<svg width="330" height="247" viewBox="0 0 330 247" fill="none" xmlns="http://www.w3.org/2000/svg">
<path d="M6.9259 16.7542C19.4486 0.966679 51.3123 -5.9487 84.6581 6.1531C93.1335 9.229 113.267 9.36381 114.546 16.7542C121.215 55.2832 114.867 206.93 110.421 212.116C105.975 217.303 18.7822 225.947 6.9259 212.116C-4.93036 198.285 0.738504 24.5547 6.9259 16.7542Z" transform="translate(106.212 27.415)" fill="white"/>
<path d="M0.936448 7.90551C-1.4002 5.57157 1.24728 1.60355 2.27516 1.39761C4.4221 0.967486 43.5073 -1.5198 45.3571 1.39761C46.0436 2.48036 46.2276 5.58673 45.3571 7.90551C43.5316 12.7679 3.85726 10.8229 0.936448 7.90551Z" transform="translate(118.562 151.894)" fill="#F2F2F2"/>
<path d="M0.90624 39.8869C-1.35503 28.1111 1.20704 8.09062 2.20177 7.0516C4.27945 4.8814 42.1038 -7.66809 43.894 7.0516C44.5584 12.5145 44.7364 28.1876 43.894 39.8869C42.1273 64.4197 3.73283 54.6066 0.90624 39.8869Z" transform="translate(171.916 151.894)" fill="#F2F2F2"/>
<path d="M0.00611338 2.42365C0.187253 7.78332 4.76102 2.26601 4.73837 2.26601C4.76102 2.26601 -0.197668 -2.93603 0.00611338 2.42365Z" transform="translate(180.393 178.907)" fill="#FBCAA9"/>
<path d="M-8.63739e-08 1.26163C0.883054 2.86052 1.69818 2.838 2.46802 1.17155C1.58497 -0.427345 0.747199 -0.382306 -8.63739e-08 1.26163Z" transform="translate(181.531 180.024)" fill="#D8A68B"/>
<path d="M0.00611301 2.42365C0.187252 7.78332 4.76102 2.26601 4.73838 2.26601C4.76102 2.26601 -0.197669 -2.93603 0.00611301 2.42365Z" transform="translate(203.873 178.096)" fill="#FBCAA9"/>
<path d="M-3.45496e-07 1.26991C0.883053 2.8688 1.69818 2.84628 2.46802 1.17983C1.58497 -0.419064 0.769841 -0.396544 -3.45496e-07 1.26991Z" transform="translate(205.011 179.228)" fill="#D8A68B"/>
<path d="M10.4429 32.8025C26.6323 35.4373 28.7606 7.46795 18.8659 2.22087C-2.03303 -8.92635 -6.62944 25.1233 10.4429 32.8025Z" transform="translate(182.024 164.855)" fill="#FBCAA9"/>
<path d="M7.92484 0.815763C7.17764 0.590566 0.0452848 -0.602975 0 0.387889C0.747199 0.590566 7.87956 1.80663 7.92484 0.815763Z" transform="translate(195.931 175.56)" fill="#2D2D2D"/>
<path d="M7.87956 0.198034C5.52475 -0.252359 2.21896 0.0854363 0 1.00874C0.0679272 1.77441 7.92484 0.761025 7.87956 0.198034Z" transform="translate(184.611 175.908)" fill="#2D2D2D"/>
<path d="M3.45496e-07 1.13187C0.792484 2.57313 1.51704 2.55061 2.21895 1.06431C1.40383 -0.376945 0.679272 -0.354424 3.45496e-07 1.13187Z" transform="translate(199.078 178.712)" fill="#2D2D2D"/>
<path d="M-1.72748e-07 1.13187C0.792484 2.57313 1.51704 2.55061 2.21896 1.06431C1.42647 -0.376944 0.679272 -0.354425 -1.72748e-07 1.13187Z" transform="translate(187.621 179.118)" fill="#2D2D2D"/>
<path d="M-6.90991e-07 0.774326C0.543417 1.74267 1.04155 1.72015 1.4944 0.729288C0.950982 -0.261577 0.452847 -0.239058 -6.90991e-07 0.774326Z" transform="translate(195.75 184.948)" fill="#D8A68B"/>
<path d="M3.45496e-07 0.774326C0.543418 1.74267 1.04155 1.72015 1.4944 0.729288C0.973623 -0.261577 0.475491 -0.239058 3.45496e-07 0.774326Z" transform="translate(192.626 185.06)" fill="#D8A68B"/>
<path d="M3.45496e-07 0.382834C3.82657 4.41385 7.47199 4.27873 10.891 6.87245e-07C9.28339 1.82409 1.76611 1.93669 3.45496e-07 0.382834Z" transform="translate(189.343 189.393)" fill="#D8A68B"/>
<path d="M13.0669 15.1695C7.83648 11.5213 -10.1869 -0.751896 7.81384 0.0362915C16.3274 0.396606 19.9728 19.9887 13.0669 15.1695Z" transform="translate(194.254 162.761)" fill="#2D2D2D"/>
<path d="M3.28834 14.137C9.06216 11.3671 28.8516 2.17911 10.9641 0.0397406C2.49586 -0.973643 -4.29686 17.7627 3.28834 14.137Z" transform="translate(178.832 163.253)" fill="#2D2D2D"/>
<path d="M0.976725 7.90551C-1.46042 5.57157 1.30092 1.60355 2.37302 1.39761C4.6123 0.967486 45.3785 -1.5198 47.3079 1.39761C48.024 2.48036 48.2159 5.58673 47.3079 7.90551C45.4039 12.7679 4.02316 10.8229 0.976725 7.90551Z" transform="translate(164.506 181.531) rotate(180)" fill="#F2F2F2"/>
<path d="M0.976725 7.90551C-1.46042 5.57157 1.30092 1.60355 2.37302 1.39761C4.6123 0.967486 45.3785 -1.5198 47.3079 1.39761C48.024 2.48036 48.2159 5.58673 47.3079 7.90551C45.4039 12.7679 4.02316 10.8229 0.976725 7.90551Z" transform="translate(116.587 188.447)" fill="#F2F2F2"/>
<path d="M65.8969 4.77836C66.5318 5.10635 66.3808 14.2547 63.2495 17.0105C57.0092 22.5024 5.32267 22.7964 1.60334 17.0105C-0.0427631 14.4498 -1.26797 6.66253 2.35973 4.77836C13.8948 -1.21275 52.8491 -1.96183 65.8969 4.77836Z" transform="translate(115.105 218.578)" fill="#66CC33"/>
<path d="M19.6707 4.33386C19.8602 4.63134 19.8152 12.9287 18.8804 15.4281C17.0177 20.4092 1.58886 20.6758 0.478608 15.4281C-0.0127651 13.1056 -0.378498 6.04276 0.704397 4.33386C4.14769 -1.09993 15.7758 -1.77933 19.6707 4.33386Z" transform="translate(188.218 219.566)" fill="#E54848"/>
<path d="M5.94467 6.47769C4.08622 8.12836 2.98035 9.12834 0.757553 10.9234C0.257218 10.6783 -0.0801049 10.6308 0.016536 9.44147L4.70964 5.24279L0.757553 1.29109C0.669906 0.492347 0.823958 0.157352 1.99258 0.0561801L5.94467 4.25486C7.38619 3.11569 10.5799 0.230803 10.8848 0.0561801C11.3877 -0.231905 12.2871 0.649994 12.1198 1.29109C10.3058 3.05274 9.15038 4.00634 7.1797 5.73675L10.8848 10.1824C10.5943 10.8361 10.3339 11.0174 9.64975 10.9234L5.94467 6.47769Z" transform="translate(192.648 224.697)" fill="white"/>
<path d="M16.3279 8.6958C16.2322 8.3973 16.1388 8.10449 16.0476 7.81738C16.0089 7.69434 15.9679 7.56787 15.9246 7.43799C15.8813 7.30811 15.838 7.17936 15.7947 7.05176C15.7537 6.92415 15.7127 6.80111 15.6717 6.68262C15.6306 6.56413 15.5919 6.45703 15.5554 6.36133C15.5395 6.31803 15.5133 6.29183 15.4768 6.28271C15.4404 6.27132 15.3982 6.26904 15.3504 6.27588C15.3025 6.28271 15.2501 6.29411 15.1931 6.31006C15.1385 6.32373 15.0849 6.33398 15.0325 6.34082C14.6861 6.39095 14.3364 6.43311 13.9832 6.46729C13.6323 6.50146 13.2802 6.51855 12.927 6.51855C12.7128 6.51855 12.4986 6.51172 12.2844 6.49805C12.2525 6.49577 12.2263 6.49235 12.2058 6.48779C12.1853 6.48324 12.166 6.48096 12.1477 6.48096C12.1295 6.48096 12.1135 6.48779 12.0999 6.50146C12.0862 6.51514 12.0737 6.54134 12.0623 6.58008C12.0395 6.65983 12.0144 6.743 11.9871 6.82959C11.9597 6.91618 11.9335 7.00505 11.9085 7.09619C11.8834 7.18506 11.8618 7.27507 11.8435 7.36621C11.8276 7.45508 11.8196 7.54281 11.8196 7.62939C11.8196 7.7251 11.8321 7.81966 11.8572 7.91309C11.8823 8.00423 11.9187 8.09082 11.9666 8.17285C12.0167 8.2526 12.076 8.32552 12.1443 8.3916C12.2149 8.4554 12.2947 8.50553 12.3836 8.54199C12.5112 8.59668 12.6468 8.6377 12.7903 8.66504C12.9361 8.69238 13.0729 8.71403 13.2005 8.72998C13.2346 8.73454 13.2597 8.74365 13.2757 8.75732C13.2916 8.771 13.303 8.78809 13.3098 8.80859C13.3167 8.8291 13.3212 8.85303 13.3235 8.88037C13.3258 8.90771 13.3303 8.9362 13.3372 8.96582C12.8313 8.94076 12.3323 8.89746 11.8401 8.83594C11.3502 8.77441 10.8546 8.6958 10.3533 8.6001C10.3146 8.59098 10.2861 8.57617 10.2678 8.55566C10.2519 8.53288 10.2405 8.50667 10.2337 8.47705C10.2246 8.44515 10.2189 8.41097 10.2166 8.37451C10.2143 8.33805 10.2109 8.30273 10.2063 8.26855C10.2656 8.28451 10.3271 8.29818 10.3909 8.30957C10.4547 8.31868 10.5185 8.32324 10.5823 8.32324C10.7008 8.32324 10.8022 8.30501 10.8865 8.26855C10.9708 8.22982 11.0437 8.17855 11.1052 8.11475C11.1668 8.04867 11.218 7.97347 11.2591 7.88916C11.3001 7.80485 11.3343 7.71598 11.3616 7.62256C11.3912 7.52913 11.4174 7.43457 11.4402 7.33887C11.463 7.24089 11.4858 7.1486 11.5086 7.06201C11.6886 6.39893 11.8777 5.73812 12.076 5.07959C12.2742 4.41878 12.4861 3.76367 12.7117 3.11426C12.9373 2.46257 13.1788 1.81771 13.4363 1.17969C13.6961 0.541667 13.9763 -0.0849609 14.2771 -0.700195C14.3181 -0.786784 14.3592 -0.871094 14.4002 -0.953125C14.4435 -1.03743 14.4856 -1.12288 14.5266 -1.20947H15.1897C15.2307 -1.20947 15.2672 -1.19352 15.2991 -1.16162C15.331 -1.132 15.3595 -1.09554 15.3845 -1.05225C15.4096 -1.00895 15.4324 -0.96224 15.4529 -0.912109C15.4734 -0.864258 15.4928 -0.823242 15.511 -0.789062C15.7685 -0.312826 16.0146 0.171387 16.2493 0.663574C16.4863 1.15576 16.7084 1.65479 16.9158 2.16064C17.1232 2.6665 17.3146 3.1792 17.49 3.69873C17.6677 4.21598 17.8273 4.73779 17.9685 5.26416C18.1075 5.78597 18.2306 6.31006 18.3377 6.83643C18.447 7.36279 18.545 7.89372 18.6316 8.4292C18.7683 8.40413 18.9051 8.37907 19.0418 8.354C19.1808 8.32666 19.3186 8.29818 19.4553 8.26855C19.4485 8.30273 19.444 8.33805 19.4417 8.37451C19.4417 8.41097 19.4371 8.44515 19.428 8.47705C19.4212 8.50667 19.4086 8.53288 19.3904 8.55566C19.3722 8.57617 19.3437 8.59098 19.305 8.6001C18.6282 8.74365 17.9423 8.84277 17.2473 8.89746C16.5546 8.95215 15.8596 8.98519 15.1624 8.99658C15.1624 8.95329 15.1635 8.91113 15.1658 8.87012C15.1681 8.8291 15.1704 8.78809 15.1726 8.74707C15.364 8.73568 15.5554 8.7277 15.7468 8.72314C15.9405 8.71631 16.1342 8.70719 16.3279 8.6958L16.2322 8.34717L16.3279 8.6958ZM15.4597 5.89307C15.2342 5.33024 15.0165 4.77767 14.8069 4.23535C14.718 4.00521 14.6246 3.76595 14.5266 3.51758C14.4309 3.26921 14.3364 3.02425 14.2429 2.78271C14.1518 2.5389 14.0641 2.3042 13.9798 2.07861C13.8954 1.85303 13.8191 1.64681 13.7508 1.45996C13.4523 2.23698 13.1697 3.01514 12.9031 3.79443C12.6388 4.57145 12.387 5.35872 12.1477 6.15625C12.2412 6.16081 12.3334 6.16536 12.4246 6.16992C12.5157 6.1722 12.608 6.17334 12.7014 6.17334C13.1663 6.17334 13.6277 6.14486 14.0857 6.08789C14.5437 6.03092 15.0017 5.96598 15.4597 5.89307ZM25.6658 6.86377C25.6931 6.86605 25.7228 6.87516 25.7547 6.89111C25.7866 6.90706 25.8185 6.92529 25.8504 6.9458C25.8071 7.07568 25.7581 7.20671 25.7034 7.33887C25.6487 7.46875 25.5872 7.59635 25.5188 7.72168C25.4505 7.84701 25.3753 7.96891 25.2932 8.0874C25.2112 8.20361 25.1201 8.31185 25.0198 8.41211C24.8876 8.54655 24.7407 8.6639 24.5789 8.76416C24.4194 8.86214 24.2508 8.94417 24.073 9.01025C23.8976 9.07633 23.7164 9.12533 23.5296 9.15723C23.3427 9.19141 23.1581 9.2085 22.9759 9.2085C22.6728 9.2085 22.3777 9.1709 22.0906 9.0957C21.8058 9.02279 21.5357 8.91683 21.2805 8.77783C21.0276 8.63883 20.7952 8.47021 20.5833 8.27197C20.3714 8.07145 20.1879 7.84473 20.033 7.5918C19.8803 7.33659 19.7607 7.05745 19.6741 6.75439C19.5898 6.45133 19.5476 6.12777 19.5476 5.78369C19.5476 5.5262 19.575 5.27214 19.6297 5.02148C19.6866 4.77083 19.7687 4.52816 19.8758 4.29346C19.9829 4.05876 20.115 3.83545 20.2722 3.62354C20.4295 3.40934 20.6095 3.20996 20.8123 3.02539C20.9672 2.88411 21.1347 2.75765 21.3147 2.646C21.4947 2.53434 21.6816 2.43978 21.8753 2.3623C22.069 2.28483 22.2683 2.22559 22.4734 2.18457C22.6785 2.14355 22.8836 2.12305 23.0886 2.12305C23.3575 2.12305 23.6218 2.16064 23.8816 2.23584C24.1437 2.30876 24.3943 2.42611 24.6336 2.58789C24.768 2.67904 24.8945 2.78613 25.013 2.90918C25.1315 3.03223 25.2351 3.16553 25.324 3.30908C25.4129 3.45264 25.4824 3.60531 25.5325 3.76709C25.5849 3.92887 25.6111 4.09294 25.6111 4.25928C25.6111 4.37321 25.5929 4.47803 25.5564 4.57373C25.5222 4.66715 25.4687 4.74805 25.3958 4.81641C25.3251 4.88477 25.234 4.93831 25.1223 4.97705C25.013 5.01351 24.8819 5.03174 24.7293 5.03174C24.5857 5.03174 24.4581 5.01123 24.3465 4.97021C24.2371 4.92692 24.1402 4.86995 24.0559 4.79932C23.9739 4.7264 23.9044 4.64095 23.8474 4.54297C23.7905 4.44499 23.7438 4.34131 23.7073 4.23193C23.6845 4.1613 23.6663 4.09408 23.6526 4.03027C23.6412 3.96419 23.6355 3.90039 23.6355 3.83887C23.6355 3.73861 23.6538 3.64404 23.6902 3.55518C23.7267 3.46631 23.7882 3.37858 23.8748 3.29199C23.9386 3.22819 23.9876 3.16439 24.0218 3.10059C24.0582 3.03678 24.0764 2.97184 24.0764 2.90576C24.0764 2.79411 24.0423 2.6984 23.9739 2.61865C23.9055 2.5389 23.8201 2.47396 23.7176 2.42383C23.615 2.3737 23.5034 2.33724 23.3826 2.31445C23.2641 2.29167 23.1536 2.28027 23.051 2.28027C22.846 2.28027 22.6728 2.31673 22.5315 2.38965C22.3902 2.46257 22.274 2.56055 22.1829 2.68359C22.0917 2.80664 22.0211 2.94906 21.971 3.11084C21.9208 3.27035 21.8821 3.43669 21.8548 3.60986C21.816 3.85824 21.791 4.10775 21.7796 4.3584C21.7704 4.60677 21.7648 4.85856 21.7625 5.11377C21.7625 5.26872 21.7636 5.42253 21.7659 5.5752C21.7682 5.72786 21.7704 5.87939 21.7727 6.02979C21.775 6.22347 21.7773 6.41829 21.7796 6.61426C21.7818 6.81022 21.791 7.00618 21.8069 7.20215C21.8251 7.39583 21.8536 7.58838 21.8924 7.77979C21.9311 7.96891 21.9881 8.15348 22.0633 8.3335C22.1111 8.45199 22.1726 8.55225 22.2478 8.63428C22.3253 8.71631 22.4107 8.78353 22.5042 8.83594C22.5999 8.88607 22.7013 8.92367 22.8084 8.94873C22.9177 8.97152 23.0305 8.98291 23.1468 8.98291C23.3632 8.98291 23.5649 8.95443 23.7517 8.89746C23.9409 8.83822 24.1163 8.75846 24.2781 8.6582C24.4399 8.55566 24.5891 8.43604 24.7259 8.29932C24.8626 8.16032 24.9879 8.01107 25.1018 7.85156C25.2158 7.69206 25.3183 7.52572 25.4094 7.35254C25.5029 7.17708 25.5849 7.00277 25.6555 6.82959C25.6624 6.83643 25.6658 6.84782 25.6658 6.86377ZM32.1052 6.86377C32.1326 6.86605 32.1622 6.87516 32.1941 6.89111C32.226 6.90706 32.2579 6.92529 32.2898 6.9458C32.2465 7.07568 32.1975 7.20671 32.1428 7.33887C32.0882 7.46875 32.0266 7.59635 31.9583 7.72168C31.8899 7.84701 31.8147 7.96891 31.7327 8.0874C31.6507 8.20361 31.5595 8.31185 31.4593 8.41211C31.3271 8.54655 31.1801 8.6639 31.0183 8.76416C30.8588 8.86214 30.6902 8.94417 30.5125 9.01025C30.337 9.07633 30.1559 9.12533 29.969 9.15723C29.7822 9.19141 29.5976 9.2085 29.4153 9.2085C29.1122 9.2085 28.8172 9.1709 28.5301 9.0957C28.2452 9.02279 27.9752 8.91683 27.72 8.77783C27.4671 8.63883 27.2346 8.47021 27.0227 8.27197C26.8108 8.07145 26.6274 7.84473 26.4724 7.5918C26.3198 7.33659 26.2001 7.05745 26.1135 6.75439C26.0292 6.45133 25.9871 6.12777 25.9871 5.78369C25.9871 5.5262 26.0144 5.27214 26.0691 5.02148C26.1261 4.77083 26.2081 4.52816 26.3152 4.29346C26.4223 4.05876 26.5545 3.83545 26.7117 3.62354C26.8689 3.40934 27.0489 3.20996 27.2517 3.02539C27.4067 2.88411 27.5742 2.75765 27.7542 2.646C27.9342 2.53434 28.121 2.43978 28.3147 2.3623C28.5084 2.28483 28.7078 2.22559 28.9129 2.18457C29.1179 2.14355 29.323 2.12305 29.5281 2.12305C29.797 2.12305 30.0613 2.16064 30.3211 2.23584C30.5831 2.30876 30.8338 2.42611 31.073 2.58789C31.2075 2.67904 31.3339 2.78613 31.4524 2.90918C31.5709 3.03223 31.6746 3.16553 31.7635 3.30908C31.8523 3.45264 31.9218 3.60531 31.9719 3.76709C32.0244 3.92887 32.0506 4.09294 32.0506 4.25928C32.0506 4.37321 32.0323 4.47803 31.9959 4.57373C31.9617 4.66715 31.9081 4.74805 31.8352 4.81641C31.7646 4.88477 31.6734 4.93831 31.5618 4.97705C31.4524 5.01351 31.3214 5.03174 31.1687 5.03174C31.0252 5.03174 30.8976 5.01123 30.7859 4.97021C30.6765 4.92692 30.5797 4.86995 30.4954 4.79932C30.4134 4.7264 30.3439 4.64095 30.2869 4.54297C30.2299 4.44499 30.1832 4.34131 30.1468 4.23193C30.124 4.1613 30.1057 4.09408 30.0921 4.03027C30.0807 3.96419 30.075 3.90039 30.075 3.83887C30.075 3.73861 30.0932 3.64404 30.1297 3.55518C30.1661 3.46631 30.2276 3.37858 30.3142 3.29199C30.378 3.22819 30.427 3.16439 30.4612 3.10059C30.4977 3.03678 30.5159 2.97184 30.5159 2.90576C30.5159 2.79411 30.4817 2.6984 30.4134 2.61865C30.345 2.5389 30.2595 2.47396 30.157 2.42383C30.0545 2.3737 29.9428 2.33724 29.822 2.31445C29.7036 2.29167 29.593 2.28027 29.4905 2.28027C29.2854 2.28027 29.1122 2.31673 28.971 2.38965C28.8297 2.46257 28.7135 2.56055 28.6223 2.68359C28.5312 2.80664 28.4606 2.94906 28.4104 3.11084C28.3603 3.27035 28.3216 3.43669 28.2942 3.60986C28.2555 3.85824 28.2304 4.10775 28.219 4.3584C28.2099 4.60677 28.2042 4.85856 28.2019 5.11377C28.2019 5.26872 28.2031 5.42253 28.2053 5.5752C28.2076 5.72786 28.2099 5.87939 28.2122 6.02979C28.2145 6.22347 28.2167 6.41829 28.219 6.61426C28.2213 6.81022 28.2304 7.00618 28.2464 7.20215C28.2646 7.39583 28.2931 7.58838 28.3318 7.77979C28.3705 7.96891 28.4275 8.15348 28.5027 8.3335C28.5506 8.45199 28.6121 8.55225 28.6873 8.63428C28.7648 8.71631 28.8502 8.78353 28.9436 8.83594C29.0393 8.88607 29.1407 8.92367 29.2478 8.94873C29.3572 8.97152 29.47 8.98291 29.5862 8.98291C29.8027 8.98291 30.0043 8.95443 30.1912 8.89746C30.3803 8.83822 30.5558 8.75846 30.7176 8.6582C30.8793 8.55566 31.0286 8.43604 31.1653 8.29932C31.302 8.16032 31.4274 8.01107 31.5413 7.85156C31.6552 7.69206 31.7578 7.52572 31.8489 7.35254C31.9423 7.17708 32.0244 7.00277 32.095 6.82959C32.1018 6.83643 32.1052 6.84782 32.1052 6.86377ZM38.4661 7.09277C38.4957 7.12012 38.5253 7.14746 38.555 7.1748C38.5846 7.19987 38.6142 7.22493 38.6438 7.25C38.5025 7.50521 38.3373 7.74788 38.1482 7.97803C37.9614 8.20817 37.7529 8.41097 37.5227 8.58643C37.2949 8.7596 37.0476 8.89746 36.781 9C36.5144 9.10254 36.233 9.15381 35.9368 9.15381C35.6246 9.15381 35.317 9.11849 35.0139 9.04785C34.7132 8.97721 34.4272 8.87354 34.156 8.73682C33.8871 8.6001 33.6388 8.43262 33.4109 8.23438C33.183 8.03385 32.9859 7.80485 32.8196 7.54736C32.6555 7.28988 32.5268 7.00391 32.4334 6.68945C32.3399 6.375 32.2932 6.03548 32.2932 5.6709C32.2932 5.4248 32.3172 5.18099 32.365 4.93945C32.4151 4.69564 32.4881 4.4598 32.5838 4.23193C32.6795 4.00407 32.7968 3.78646 32.9358 3.5791C33.0771 3.36947 33.2389 3.17578 33.4212 2.99805C33.5647 2.85677 33.7174 2.72917 33.8792 2.61523C34.041 2.49902 34.2107 2.40104 34.3885 2.32129C34.5685 2.23926 34.7553 2.17546 34.949 2.12988C35.1427 2.08431 35.3432 2.06152 35.5506 2.06152C35.7101 2.06152 35.8707 2.07292 36.0325 2.0957C36.1943 2.11849 36.3538 2.15267 36.511 2.19824C36.6682 2.24382 36.8209 2.30078 36.969 2.36914C37.1171 2.43522 37.2561 2.51156 37.386 2.59814C37.6207 2.75537 37.8235 2.93766 37.9944 3.14502C38.1653 3.35238 38.3066 3.57682 38.4182 3.81836C38.5322 4.05762 38.6188 4.30941 38.678 4.57373C38.7372 4.83805 38.7737 5.10693 38.7874 5.38037C38.555 5.27555 38.3157 5.20264 38.0696 5.16162C37.8258 5.11833 37.5763 5.09668 37.3211 5.09668C37.0841 5.09668 36.8482 5.11035 36.6135 5.1377C36.3811 5.16276 36.1498 5.1958 35.9197 5.23682C35.6896 5.27555 35.4617 5.31885 35.2361 5.3667C35.0128 5.41227 34.7929 5.45557 34.5764 5.49658C34.5423 5.50342 34.5195 5.51367 34.5081 5.52734C34.4967 5.53874 34.491 5.55583 34.491 5.57861C34.491 5.59456 34.4921 5.61279 34.4944 5.6333C34.499 5.65381 34.5012 5.6766 34.5012 5.70166C34.5035 5.99333 34.5058 6.28499 34.5081 6.57666C34.5104 6.86605 34.5274 7.15658 34.5593 7.44824C34.5707 7.5599 34.5878 7.67497 34.6106 7.79346C34.6357 7.90967 34.6699 8.02246 34.7132 8.13184C34.7587 8.24121 34.8146 8.34489 34.8806 8.44287C34.9467 8.53857 35.0288 8.62061 35.1267 8.68896C35.2429 8.77327 35.3694 8.83366 35.5061 8.87012C35.6428 8.9043 35.7841 8.92139 35.93 8.92139C36.1236 8.92139 36.3082 8.89746 36.4837 8.84961C36.6614 8.80176 36.8289 8.73568 36.9861 8.65137C37.1433 8.56478 37.2926 8.46338 37.4339 8.34717C37.5751 8.23096 37.7073 8.10563 37.8303 7.97119C37.9534 7.83447 38.0673 7.69206 38.1721 7.54395C38.2792 7.39355 38.3772 7.24316 38.4661 7.09277ZM34.5047 5.17871C34.8692 5.11263 35.2361 5.04313 35.6052 4.97021C35.9767 4.8973 36.3492 4.84147 36.7229 4.80273C36.732 4.80501 36.74 4.80729 36.7468 4.80957C36.7537 4.80957 36.7605 4.80957 36.7674 4.80957C36.8084 4.80957 36.8289 4.79248 36.8289 4.7583C36.8289 4.73324 36.8255 4.69564 36.8186 4.64551C36.8141 4.5931 36.8107 4.54639 36.8084 4.50537C36.8015 4.30713 36.7901 4.1123 36.7742 3.9209C36.7605 3.72721 36.7343 3.53467 36.6956 3.34326C36.6774 3.25895 36.6557 3.17236 36.6306 3.0835C36.6079 2.99463 36.5771 2.90918 36.5384 2.82715C36.5019 2.74284 36.4563 2.6665 36.4016 2.59814C36.3469 2.52751 36.2797 2.4694 36.2 2.42383C36.1157 2.37598 36.0302 2.34066 35.9436 2.31787C35.8593 2.29508 35.7739 2.28369 35.6873 2.28369C35.587 2.28369 35.489 2.2985 35.3933 2.32812C35.2999 2.35775 35.211 2.3999 35.1267 2.45459C35.0447 2.50928 34.9695 2.5765 34.9011 2.65625C34.8351 2.73372 34.7792 2.82145 34.7337 2.91943C34.6653 3.06982 34.6197 3.22363 34.5969 3.38086C34.5764 3.53581 34.5605 3.69417 34.5491 3.85596C34.5309 4.07699 34.5195 4.29801 34.5149 4.51904C34.5104 4.73779 34.5069 4.95768 34.5047 5.17871ZM41.7063 1.96582C41.6813 2.15039 41.6596 2.33382 41.6414 2.51611C41.6232 2.6984 41.6061 2.88184 41.5901 3.06641C41.7542 2.71777 41.9832 2.44548 42.2771 2.24951C42.5711 2.05127 42.9368 1.95215 43.3743 1.95215C43.732 1.95215 44.0579 2.0057 44.3518 2.11279C44.6458 2.21989 44.909 2.36572 45.1414 2.55029C45.3761 2.73486 45.58 2.9502 45.7532 3.19629C45.9264 3.44238 46.0699 3.70557 46.1839 3.98584C46.2978 4.26611 46.3832 4.5555 46.4402 4.854C46.4972 5.15023 46.5257 5.44189 46.5257 5.729C46.5257 5.99105 46.4983 6.25081 46.4436 6.5083C46.3912 6.76579 46.2978 7.00846 46.1634 7.23633C46.0836 7.37077 45.9936 7.49837 45.8933 7.61914C45.7954 7.73763 45.6894 7.85042 45.5755 7.95752C45.4615 8.06234 45.3408 8.16146 45.2132 8.25488C45.0878 8.34831 44.9602 8.43604 44.8303 8.51807C44.6936 8.60465 44.5489 8.6901 44.3963 8.77441C44.2459 8.85645 44.0898 8.9305 43.928 8.99658C43.7685 9.06266 43.6056 9.11621 43.4392 9.15723C43.2729 9.19824 43.1077 9.21875 42.9436 9.21875C42.6041 9.21875 42.3067 9.13786 42.0515 8.97607C41.7963 8.81429 41.6015 8.57845 41.4671 8.26855C41.4785 8.82454 41.4967 9.37826 41.5218 9.92969C41.5491 10.4811 41.5935 11.0326 41.6551 11.584C41.6573 11.6182 41.6573 11.6478 41.6551 11.6729C41.6551 11.6979 41.6573 11.7184 41.6619 11.7344C41.6687 11.7526 41.6801 11.7651 41.6961 11.772C41.712 11.7811 41.7394 11.7856 41.7781 11.7856C41.8806 11.7902 41.9809 11.7925 42.0789 11.7925C42.1791 11.7925 42.2805 11.7925 42.3831 11.7925L42.3933 12.0078C41.8465 11.9987 41.3007 11.9668 40.7561 11.9121C40.2138 11.8597 39.6783 11.764 39.1497 11.625C39.1132 11.6159 39.087 11.6011 39.0711 11.5806C39.0551 11.5601 39.0437 11.5361 39.0369 11.5088C39.0301 11.4814 39.0266 11.4518 39.0266 11.4199C39.0266 11.388 39.0244 11.355 39.0198 11.3208C39.1292 11.3573 39.2397 11.3903 39.3513 11.4199C39.463 11.4518 39.5746 11.4826 39.6863 11.5122C39.5701 10.7603 39.4835 10.0083 39.4265 9.25635C39.3696 8.50667 39.3411 7.7513 39.3411 6.99023C39.3411 5.54329 39.4436 4.10547 39.6487 2.67676C39.5371 2.70182 39.4254 2.72689 39.3137 2.75195C39.2044 2.77474 39.0939 2.80094 38.9822 2.83057C38.9868 2.78271 38.9925 2.736 38.9993 2.69043C39.0061 2.64258 39.0118 2.59473 39.0164 2.54688C39.1987 2.5013 39.381 2.45915 39.5633 2.42041C39.7455 2.37939 39.929 2.34294 40.1135 2.31104C40.3824 2.26546 40.649 2.21761 40.9134 2.16748C41.18 2.11735 41.4443 2.05013 41.7063 1.96582ZM44.3928 6.04346C44.3883 5.67432 44.3815 5.30632 44.3723 4.93945C44.3655 4.57031 44.3325 4.20231 44.2732 3.83545C44.2527 3.71696 44.2288 3.59505 44.2014 3.46973C44.1764 3.34212 44.1433 3.21908 44.1023 3.10059C44.0613 2.97982 44.0112 2.86589 43.9519 2.75879C43.8927 2.64941 43.8186 2.55485 43.7298 2.4751C43.6432 2.39307 43.5395 2.32812 43.4187 2.28027C43.3002 2.23242 43.1612 2.2085 43.0017 2.2085C42.7967 2.2085 42.6189 2.25863 42.4685 2.35889C42.3204 2.45915 42.194 2.59017 42.0891 2.75195C41.9843 2.91374 41.8977 3.09831 41.8294 3.30566C41.7633 3.51074 41.7097 3.72038 41.6687 3.93457C41.6277 4.14648 41.5969 4.35384 41.5764 4.55664C41.5559 4.75716 41.54 4.93376 41.5286 5.08643C41.5149 5.25732 41.5035 5.42936 41.4944 5.60254C41.4853 5.77572 41.4807 5.94889 41.4807 6.12207C41.4807 6.32487 41.4876 6.52539 41.5012 6.72363C41.5172 6.92188 41.5434 7.12012 41.5799 7.31836C41.6004 7.43001 41.622 7.54281 41.6448 7.65674C41.6699 7.77067 41.7018 7.88005 41.7405 7.98486C41.7792 8.08968 41.826 8.1888 41.8806 8.28223C41.9376 8.37565 42.0071 8.45654 42.0891 8.5249C42.1734 8.59326 42.2714 8.64795 42.3831 8.68896C42.497 8.7277 42.6315 8.74707 42.7864 8.74707C42.9003 8.74707 43.0131 8.7334 43.1248 8.70605C43.2387 8.67871 43.3458 8.63883 43.4461 8.58643C43.5486 8.53402 43.6432 8.47135 43.7298 8.39844C43.8186 8.32324 43.895 8.23779 43.9588 8.14209C44.0545 8.00081 44.1285 7.84359 44.1809 7.67041C44.2356 7.49495 44.2766 7.31494 44.304 7.13037C44.3336 6.94352 44.353 6.75667 44.3621 6.56982C44.3735 6.38298 44.3837 6.20752 44.3928 6.04346C44.3928 6.02295 44.3917 6.0127 44.3894 6.0127C44.3894 6.0127 44.3883 6.02409 44.386 6.04688C44.3837 6.06966 44.3815 6.09701 44.3792 6.12891C44.3792 6.15853 44.378 6.18815 44.3758 6.21777C44.3758 6.24512 44.3758 6.26449 44.3758 6.27588V6.28613C44.378 6.28613 44.3803 6.26904 44.3826 6.23486C44.3849 6.1984 44.3883 6.1346 44.3928 6.04346ZM47.4622 0.338867C47.7766 0.174805 48.1025 0.0449219 48.4397 -0.0507812C48.7792 -0.146484 49.1256 -0.212565 49.4788 -0.249023C49.513 0.0950521 49.5392 0.436849 49.5574 0.776367C49.5779 1.11589 49.595 1.45882 49.6087 1.80518C49.6109 1.84391 49.6212 1.87354 49.6394 1.89404C49.6599 1.91227 49.685 1.92708 49.7146 1.93848C49.7465 1.94759 49.7807 1.95557 49.8172 1.9624C49.8536 1.96696 49.8889 1.97493 49.9231 1.98633C50.0553 2.02962 50.1829 2.08659 50.3059 2.15723C50.4313 2.22559 50.5486 2.3042 50.658 2.39307C50.6944 2.42497 50.7218 2.45459 50.74 2.48193C50.7582 2.50928 50.7708 2.53776 50.7776 2.56738C50.7844 2.59701 50.7879 2.63005 50.7879 2.6665C50.7879 2.70068 50.7879 2.74056 50.7879 2.78613C50.6261 2.62663 50.4461 2.50016 50.2478 2.40674C50.0519 2.31104 49.8434 2.24268 49.6223 2.20166C49.6337 2.57764 49.6428 2.95247 49.6497 3.32617C49.6565 3.69759 49.6599 4.07129 49.6599 4.44727C49.6599 4.69792 49.6577 4.94743 49.6531 5.1958C49.6508 5.44417 49.6474 5.69368 49.6428 5.94434C49.6383 6.19271 49.6269 6.44222 49.6087 6.69287C49.5927 6.94352 49.5836 7.19531 49.5813 7.44824C49.5813 7.51432 49.5802 7.59635 49.5779 7.69434C49.5779 7.79004 49.5859 7.88346 49.6018 7.97461C49.6201 8.06576 49.6531 8.14437 49.701 8.21045C49.7488 8.27425 49.8217 8.30615 49.9197 8.30615C49.9789 8.30615 50.0382 8.29704 50.0974 8.27881C50.1567 8.26058 50.2136 8.23779 50.2683 8.21045C50.3253 8.18083 50.3788 8.14893 50.429 8.11475C50.4791 8.07829 50.527 8.04183 50.5725 8.00537C50.5908 8.03727 50.6124 8.07487 50.6375 8.11816C50.6625 8.15918 50.6751 8.19108 50.6751 8.21387C50.6751 8.24805 50.6591 8.27995 50.6272 8.30957C50.5976 8.33691 50.5703 8.3654 50.5452 8.39502C50.4313 8.51807 50.3116 8.63086 50.1863 8.7334C50.061 8.83366 49.9277 8.91911 49.7864 8.98975C49.6474 9.06038 49.4993 9.11507 49.3421 9.15381C49.1848 9.19255 49.0174 9.21191 48.8396 9.21191C48.6573 9.21191 48.4978 9.19368 48.3611 9.15723C48.2244 9.12305 48.1048 9.07178 48.0022 9.00342C47.8997 8.93734 47.812 8.85531 47.739 8.75732C47.6684 8.65934 47.6057 8.54655 47.551 8.41895C47.5078 8.31868 47.4747 8.21615 47.4519 8.11133C47.4291 8.00651 47.4109 7.90169 47.3972 7.79688C47.3858 7.68978 47.3779 7.58268 47.3733 7.47559C47.3688 7.36621 47.3642 7.25798 47.3596 7.15088C47.3369 6.68604 47.3198 6.22461 47.3084 5.7666C47.297 5.30632 47.2913 4.84375 47.2913 4.37891C47.2913 4.11003 47.2924 3.84456 47.2947 3.58252C47.2993 3.3182 47.3038 3.0516 47.3084 2.78271C47.2446 2.78727 47.1819 2.79183 47.1204 2.79639C47.0589 2.79867 46.9973 2.7998 46.9358 2.7998C46.8994 2.7998 46.864 2.7998 46.8299 2.7998C46.7957 2.7998 46.7649 2.79867 46.7376 2.79639C46.7125 2.79183 46.692 2.78613 46.676 2.7793C46.6601 2.77018 46.6521 2.75879 46.6521 2.74512C46.6521 2.72461 46.6533 2.69157 46.6555 2.646C46.6601 2.59814 46.6624 2.55029 46.6624 2.50244C46.7421 2.50244 46.8219 2.50016 46.9016 2.49561C46.9814 2.49105 47.0589 2.48421 47.1341 2.4751C47.1682 2.47282 47.1967 2.47168 47.2195 2.47168C47.2423 2.47168 47.2617 2.4694 47.2776 2.46484C47.2936 2.46029 47.305 2.45003 47.3118 2.43408C47.3186 2.41813 47.3232 2.39079 47.3255 2.35205C47.3437 2.01481 47.3631 1.67985 47.3836 1.34717C47.4064 1.01221 47.4326 0.676107 47.4622 0.338867Z" transform="translate(117.574 225.494)" fill="white"/>
<path d="M4.96522 91.8202C0.222712 89.4492 -3.3022 14.5151 4.96521 2.90678C8.30715 -1.78564 88.6507 -0.0569933 92.4052 2.90678C97.0983 6.6115 98.8273 86.8806 95.1222 91.8202C91.4171 96.7599 10.8934 94.784 4.96522 91.8202Z" transform="translate(116.636 45.2349)" fill="#F2F2F2"/>
<ellipse cx="47.1781" cy="29.6378" rx="47.1781" ry="29.6378" transform="translate(118.637 68.3943)" fill="white"/>
<path d="M0.179664 0C0.179664 19.3685 -3.48646 30.9645 22.3028 31.0065C47.9236 31.0485 45.9009 20.1668 45.9009 0C30.6886 0 15.4341 0 0.179664 0Z" transform="translate(142.769 77.4182)" fill="#D08738"/>
<path d="M21.1118 8.52888C13.8217 8.52888 6.48946 6.89033 0 3.57121C0 2.64689 0 1.7646 0 0.840284C14.3695 8.15075 31.436 6.97436 45.6791 0C45.6791 0.840284 45.6791 1.68057 45.6791 2.47884C38.1361 6.17609 29.5818 8.52888 21.1118 8.52888Z" transform="translate(142.991 86.6614)" fill="#D4145A"/>
<path d="M21.1118 8.65493C13.8217 8.65493 6.48946 6.93234 0 3.65524C0 2.73092 0 1.84863 0 0.924313C14.4117 8.23478 31.4781 6.97436 45.6791 3.20543e-07C45.6791 0.882298 45.6791 1.72258 45.7212 2.60488C38.1361 6.30213 29.5818 8.65493 21.1118 8.65493Z" transform="translate(142.991 82.3337)" fill="#D4145A"/>
<path d="M2.5117e-09 21.8474C3.62399 18.4022 18.1199 0 22.966 0C28.107 0 41.8444 18.1501 45.7212 21.8474C31.141 28.9478 14.4959 29.62 2.5117e-09 21.8474Z" transform="translate(142.949 55.5708)" fill="white"/>
<path d="M6.11043 3.08104C6.11043 10.0134 -0.0419232 3.08104 0.000216128 3.08104C-0.0419232 3.08104 6.11043 -3.8513 6.11043 3.08104Z" transform="translate(162.754 62.9092)" fill="#D4145A"/>
<path d="M6.11042 3.08104C6.11042 10.0134 -0.0419242 3.08104 0.000215164 3.08104C-0.0419242 3.08104 6.11042 -3.8513 6.11042 3.08104Z" transform="translate(153.652 72.0684)" fill="#D4145A"/>
<path d="M6.11042 3.08104C6.11042 10.0134 -0.0419239 3.08104 0.000215485 3.08104C-0.0419239 3.08104 6.11042 -3.8513 6.11042 3.08104Z" transform="translate(171.856 71.3123)" fill="#D4145A"/>
<path d="M1.48203 50.3842L3.45808 33.3425L0 1.72887L6.66915 0C8.09834 5.90674 9.22983 15.2642 9.81482 21.7955C9.86966 16.0189 10.2706 8.22722 11.1152 3.45774H16.7964L16.0554 37.2942C14.0793 36.6356 10.1272 35.5159 10.1272 36.3062C10.1272 37.0966 9.1392 50.1372 8.39819 57.0527L0.494011 56.5587L1.48203 50.3842Z" transform="translate(193.405)" fill="#F2C94C"/>
<path d="M5.36062 13.0003C15.0531 0.750086 39.7155 -4.61584 65.525 4.77444C72.085 7.16116 87.6679 7.26577 88.658 13.0003C93.8199 42.8965 88.9069 160.565 85.4656 164.59C82.0244 168.614 14.5373 175.322 5.36062 164.59C-3.81608 153.858 0.571599 19.053 5.36062 13.0003Z" transform="translate(0 46.4644)" fill="white"/>
<path d="M0.724807 6.13421C-1.08375 4.32321 0.965386 1.24426 1.76097 1.08447C3.42269 0.750712 33.6745 -1.17928 35.1062 1.08447C35.6376 1.92461 35.78 4.33497 35.1062 6.13421C33.6933 9.90711 2.9855 8.39795 0.724807 6.13421Z" transform="translate(9.55884 143.052)" fill="#F2F2F2"/>
<path d="M0.701426 30.9499C-1.04879 21.8126 0.934245 6.27784 1.70416 5.47162C3.31228 3.78768 32.5882 -5.94998 33.9738 5.47162C34.488 9.71054 34.6258 21.8719 33.9738 30.9499C32.6064 49.9859 2.8892 42.3715 0.701426 30.9499Z" transform="translate(50.854 143.052)" fill="#F2F2F2"/>
<path d="M20.8015 9.48033C20.8015 -1.65694 5.41676 -3.36162 1.376 6.39566C0.233326 9.20433 -0.793425 23.2477 0.879186 24.9848C1.72377 25.8778 18.5327 25.8291 19.7085 24.9848C22.325 23.1016 20.8015 13.5391 20.8015 9.48033Z" transform="translate(58.2932 149.72)" fill="#F7931E"/>
<path d="M0.127052 16.8572C0.127052 11.4672 -1.24747 3.47953 5.04552 0.768274C11.7525 -2.10533 15.9092 3.59318 16.82 9.40534C17.5818 14.3408 17.1844 20.8673 12.2659 23.6597C7.36399 26.4359 0.127052 23.2863 0.127052 16.8572Z" transform="translate(60.6682 150.315)" fill="#FBCAA9"/>
<path d="M1.44076 0.706226C0.960509 1.64786 0.480254 1.64786 -2.52693e-07 0.706226C0.480254 -0.235408 0.960509 -0.235408 1.44076 0.706226Z" transform="translate(64.687 163.056)" fill="#2D2D2D"/>
<path d="M1.44076 0.706226C0.960509 1.64786 0.480254 1.64786 -2.52693e-07 0.706226C0.480254 -0.235408 0.960509 -0.235408 1.44076 0.706226Z" transform="translate(72.0571 163.056)" fill="#2D2D2D"/>
<path d="M7.62939e-07 0.4921C7.62939e-07 2.19678 7.62939e-07 -1.21258 7.62939e-07 0.4921V0.4921Z" transform="translate(68.4304 166.94)" fill="#D8A68B"/>
<path d="M0 0.4921C0 2.19678 0 -1.21258 0 0.4921V0.4921Z" transform="translate(70.4666 166.94)" fill="#D8A68B"/>
<path d="M6.78981 0C5.46497 1.23387 1.07643 1.36375 2.52693e-07 0.340938C2.7656 2.92232 5.51465 1.2014 6.78981 0Z" transform="translate(65.5649 170.289)" fill="#D8A68B"/>
<path d="M-1.26347e-07 2.56457C0.463694 1.46058 3.64331 -0.000572967 4.37197 0.242953C1.37452 -0.763622 0.397452 1.62294 -1.26347e-07 2.56457Z" transform="translate(62.6501 160.484)" fill="#2D2D2D"/>
<path d="M2.52693e-07 1.05185C1.01019 0.353743 4.52102 0.775854 5.00127 1.34408C3.03057 -1.05871 0.97707 0.353743 2.52693e-07 1.05185Z" transform="translate(71.2783 160.941)" fill="#2D2D2D"/>
<path d="M9.96942 0C4.32229 0 3.15867e-08 6.05568 3.15867e-08 11.186C6.64076 11.186 13.2815 11.186 19.9223 11.186C19.9223 6.07192 15.6331 0 9.96942 0Z" transform="translate(59.1721 149.671)" fill="#F7931E"/>
<path d="M0.755981 6.13421C-1.13036 4.32321 1.00691 1.24426 1.83671 1.08447C3.5699 0.750712 35.1228 -1.17928 36.6162 1.08447C37.1704 1.92461 37.319 4.33497 36.6162 6.13421C35.1425 9.90711 3.11391 8.39795 0.755981 6.13421Z" transform="translate(45.1187 166.05) rotate(180)" fill="#F2F2F2"/>
<path d="M0.755981 6.13421C-1.13036 4.32321 1.00691 1.24426 1.83671 1.08447C3.5699 0.750712 35.1228 -1.17928 36.6162 1.08447C37.1704 1.92461 37.319 4.33497 36.6162 6.13421C35.1425 9.90711 3.11391 8.39795 0.755981 6.13421Z" transform="translate(8.02954 171.416)" fill="#F2F2F2"/>
<path d="M51.004 3.70773C51.4954 3.96223 51.3785 11.0608 48.9549 13.1991C44.1249 17.4606 4.11973 17.6886 1.24098 13.1991C-0.0330985 11.2122 -0.981402 5.16973 1.82642 3.70773C10.7545 -0.94102 40.905 -1.52226 51.004 3.70773Z" transform="translate(6.88232 194.796)" fill="#66CC33"/>
<path d="M15.2251 3.36282C15.3718 3.59365 15.3369 10.0319 14.6134 11.9713C13.1716 15.8363 1.22977 16.0432 0.370441 11.9713C-0.00988015 10.1692 -0.292956 4.68882 0.545201 3.36282C3.2103 -0.853483 12.2104 -1.38066 15.2251 3.36282Z" transform="translate(63.4722 195.562)" fill="#E54848"/>
<path d="M4.60115 5.02631C3.16272 6.30713 2.30678 7.08306 0.586343 8.47588C0.199086 8.28571 -0.0620009 8.24886 0.0127988 7.32603L3.64525 4.06809L0.586343 1.00181C0.518505 0.382032 0.63774 0.122096 1.54225 0.0435925L4.60115 3.30152C5.71688 2.41759 8.18884 0.17909 8.42478 0.0435925C8.81403 -0.179945 9.51015 0.504357 9.38069 1.00181C7.97663 2.36874 7.08236 3.10869 5.55706 4.45138L8.42478 7.90095C8.19993 8.40815 7.99841 8.54884 7.46887 8.47588L4.60115 5.02631Z" transform="translate(66.9011 199.543)" fill="white"/>
<path d="M9.40571 8.6958C9.31001 8.3973 9.21658 8.10449 9.12544 7.81738C9.0867 7.69434 9.04569 7.56787 9.00239 7.43799C8.9591 7.30811 8.9158 7.17936 8.87251 7.05176C8.83149 6.92415 8.79048 6.80111 8.74946 6.68262C8.70845 6.56413 8.66971 6.45703 8.63325 6.36133C8.6173 6.31803 8.5911 6.29183 8.55464 6.28271C8.51818 6.27132 8.47602 6.26904 8.42817 6.27588C8.38032 6.28271 8.32791 6.29411 8.27095 6.31006C8.21626 6.32373 8.16271 6.33398 8.1103 6.34082C7.76395 6.39095 7.41418 6.43311 7.06099 6.46729C6.71007 6.50146 6.35802 6.51855 6.00483 6.51855C5.79064 6.51855 5.57645 6.51172 5.36226 6.49805C5.33035 6.49577 5.30415 6.49235 5.28364 6.48779C5.26313 6.48324 5.24377 6.48096 5.22554 6.48096C5.20731 6.48096 5.19136 6.48779 5.17768 6.50146C5.16401 6.51514 5.15148 6.54134 5.14009 6.58008C5.1173 6.65983 5.09224 6.743 5.06489 6.82959C5.03755 6.91618 5.01134 7.00505 4.98628 7.09619C4.96121 7.18506 4.93957 7.27507 4.92134 7.36621C4.90539 7.45508 4.89741 7.54281 4.89741 7.62939C4.89741 7.7251 4.90994 7.81966 4.93501 7.91309C4.96007 8.00423 4.99653 8.09082 5.04438 8.17285C5.09451 8.2526 5.15376 8.32552 5.22212 8.3916C5.29276 8.4554 5.37251 8.50553 5.46138 8.54199C5.58898 8.59668 5.72456 8.6377 5.86811 8.66504C6.01395 8.69238 6.15067 8.71403 6.27827 8.72998C6.31245 8.73454 6.33752 8.74365 6.35347 8.75732C6.36942 8.771 6.38081 8.78809 6.38765 8.80859C6.39448 8.8291 6.39904 8.85303 6.40132 8.88037C6.4036 8.90771 6.40815 8.9362 6.41499 8.96582C5.90913 8.94076 5.41011 8.89746 4.91792 8.83594C4.42801 8.77441 3.9324 8.6958 3.4311 8.6001C3.39237 8.59098 3.36388 8.57617 3.34565 8.55566C3.3297 8.53288 3.31831 8.50667 3.31147 8.47705C3.30236 8.44515 3.29666 8.41097 3.29438 8.37451C3.29211 8.33805 3.28869 8.30273 3.28413 8.26855C3.34337 8.28451 3.4049 8.29818 3.4687 8.30957C3.5325 8.31868 3.5963 8.32324 3.66011 8.32324C3.7786 8.32324 3.88 8.30501 3.96431 8.26855C4.04862 8.22982 4.12153 8.17855 4.18306 8.11475C4.24458 8.04867 4.29585 7.97347 4.33686 7.88916C4.37788 7.80485 4.41206 7.71598 4.4394 7.62256C4.46903 7.52913 4.49523 7.43457 4.51802 7.33887C4.5408 7.24089 4.56359 7.1486 4.58638 7.06201C4.76639 6.39893 4.95552 5.73812 5.15376 5.07959C5.352 4.41878 5.56392 3.76367 5.7895 3.11426C6.01509 2.46257 6.25662 1.81771 6.51411 1.17969C6.77388 0.541667 7.05415 -0.0849609 7.35493 -0.700195C7.39595 -0.786784 7.43696 -0.871094 7.47798 -0.953125C7.52127 -1.03743 7.56343 -1.12288 7.60444 -1.20947H8.26753C8.30854 -1.20947 8.345 -1.19352 8.3769 -1.16162C8.4088 -1.132 8.43729 -1.09554 8.46235 -1.05225C8.48742 -1.00895 8.5102 -0.96224 8.53071 -0.912109C8.55122 -0.864258 8.57059 -0.823242 8.58882 -0.789062C8.8463 -0.312826 9.0924 0.171387 9.3271 0.663574C9.56408 1.15576 9.78625 1.65479 9.9936 2.16064C10.201 2.6665 10.3924 3.1792 10.5678 3.69873C10.7456 4.21598 10.9051 4.73779 11.0463 5.26416C11.1853 5.78597 11.3084 6.31006 11.4155 6.83643C11.5249 7.36279 11.6228 7.89372 11.7094 8.4292C11.8461 8.40413 11.9829 8.37907 12.1196 8.354C12.2586 8.32666 12.3964 8.29818 12.5332 8.26855C12.5263 8.30273 12.5218 8.33805 12.5195 8.37451C12.5195 8.41097 12.5149 8.44515 12.5058 8.47705C12.499 8.50667 12.4864 8.53288 12.4682 8.55566C12.45 8.57617 12.4215 8.59098 12.3828 8.6001C11.706 8.74365 11.0201 8.84277 10.3251 8.89746C9.63244 8.95215 8.93745 8.98519 8.24018 8.99658C8.24018 8.95329 8.24132 8.91113 8.2436 8.87012C8.24588 8.8291 8.24816 8.78809 8.25044 8.74707C8.44184 8.73568 8.63325 8.7277 8.82466 8.72314C9.01834 8.71631 9.21203 8.70719 9.40571 8.6958L9.31001 8.34717L9.40571 8.6958ZM8.53755 5.89307C8.31196 5.33024 8.09435 4.77767 7.88472 4.23535C7.79585 4.00521 7.70242 3.76595 7.60444 3.51758C7.50874 3.26921 7.41418 3.02425 7.32075 2.78271C7.22961 2.5389 7.14188 2.3042 7.05757 2.07861C6.97326 1.85303 6.89692 1.64681 6.82856 1.45996C6.53006 2.23698 6.24751 3.01514 5.98091 3.79443C5.71658 4.57145 5.46479 5.35872 5.22554 6.15625C5.31896 6.16081 5.41125 6.16536 5.50239 6.16992C5.59354 6.1722 5.68582 6.17334 5.77925 6.17334C6.24409 6.17334 6.70552 6.14486 7.16352 6.08789C7.62153 6.03092 8.07954 5.96598 8.53755 5.89307ZM18.7436 6.86377C18.7709 6.86605 18.8006 6.87516 18.8325 6.89111C18.8644 6.90706 18.8963 6.92529 18.9282 6.9458C18.8849 7.07568 18.8359 7.20671 18.7812 7.33887C18.7265 7.46875 18.665 7.59635 18.5966 7.72168C18.5283 7.84701 18.4531 7.96891 18.371 8.0874C18.289 8.20361 18.1979 8.31185 18.0976 8.41211C17.9654 8.54655 17.8185 8.6639 17.6567 8.76416C17.4972 8.86214 17.3286 8.94417 17.1508 9.01025C16.9754 9.07633 16.7942 9.12533 16.6074 9.15723C16.4205 9.19141 16.236 9.2085 16.0537 9.2085C15.7506 9.2085 15.4555 9.1709 15.1684 9.0957C14.8836 9.02279 14.6136 8.91683 14.3583 8.77783C14.1054 8.63883 13.873 8.47021 13.6611 8.27197C13.4492 8.07145 13.2657 7.84473 13.1108 7.5918C12.9581 7.33659 12.8385 7.05745 12.7519 6.75439C12.6676 6.45133 12.6254 6.12777 12.6254 5.78369C12.6254 5.5262 12.6528 5.27214 12.7075 5.02148C12.7644 4.77083 12.8465 4.52816 12.9536 4.29346C13.0607 4.05876 13.1928 3.83545 13.35 3.62354C13.5073 3.40934 13.6873 3.20996 13.8901 3.02539C14.045 2.88411 14.2125 2.75765 14.3925 2.646C14.5725 2.53434 14.7594 2.43978 14.9531 2.3623C15.1468 2.28483 15.3461 2.22559 15.5512 2.18457C15.7563 2.14355 15.9614 2.12305 16.1665 2.12305C16.4353 2.12305 16.6997 2.16064 16.9594 2.23584C17.2215 2.30876 17.4721 2.42611 17.7114 2.58789C17.8458 2.67904 17.9723 2.78613 18.0908 2.90918C18.2093 3.03223 18.3129 3.16553 18.4018 3.30908C18.4907 3.45264 18.5602 3.60531 18.6103 3.76709C18.6627 3.92887 18.6889 4.09294 18.6889 4.25928C18.6889 4.37321 18.6707 4.47803 18.6342 4.57373C18.6 4.66715 18.5465 4.74805 18.4736 4.81641C18.4029 4.88477 18.3118 4.93831 18.2001 4.97705C18.0908 5.01351 17.9597 5.03174 17.8071 5.03174C17.6635 5.03174 17.5359 5.01123 17.4243 4.97021C17.3149 4.92692 17.218 4.86995 17.1337 4.79932C17.0517 4.7264 16.9822 4.64095 16.9252 4.54297C16.8683 4.44499 16.8216 4.34131 16.7851 4.23193C16.7623 4.1613 16.7441 4.09408 16.7304 4.03027C16.719 3.96419 16.7133 3.90039 16.7133 3.83887C16.7133 3.73861 16.7316 3.64404 16.768 3.55518C16.8045 3.46631 16.866 3.37858 16.9526 3.29199C17.0164 3.22819 17.0654 3.16439 17.0996 3.10059C17.136 3.03678 17.1542 2.97184 17.1542 2.90576C17.1542 2.79411 17.1201 2.6984 17.0517 2.61865C16.9833 2.5389 16.8979 2.47396 16.7954 2.42383C16.6928 2.3737 16.5812 2.33724 16.4604 2.31445C16.3419 2.29167 16.2314 2.28027 16.1289 2.28027C15.9238 2.28027 15.7506 2.31673 15.6093 2.38965C15.468 2.46257 15.3518 2.56055 15.2607 2.68359C15.1695 2.80664 15.0989 2.94906 15.0488 3.11084C14.9986 3.27035 14.9599 3.43669 14.9326 3.60986C14.8938 3.85824 14.8688 4.10775 14.8574 4.3584C14.8483 4.60677 14.8426 4.85856 14.8403 5.11377C14.8403 5.26872 14.8414 5.42253 14.8437 5.5752C14.846 5.72786 14.8483 5.87939 14.8505 6.02979C14.8528 6.22347 14.8551 6.41829 14.8574 6.61426C14.8597 6.81022 14.8688 7.00618 14.8847 7.20215C14.9029 7.39583 14.9314 7.58838 14.9702 7.77979C15.0089 7.96891 15.0659 8.15348 15.1411 8.3335C15.1889 8.45199 15.2504 8.55225 15.3256 8.63428C15.4031 8.71631 15.4886 8.78353 15.582 8.83594C15.6777 8.88607 15.7791 8.92367 15.8862 8.94873C15.9956 8.97152 16.1083 8.98291 16.2246 8.98291C16.441 8.98291 16.6427 8.95443 16.8295 8.89746C17.0187 8.83822 17.1941 8.75846 17.3559 8.6582C17.5177 8.55566 17.6669 8.43604 17.8037 8.29932C17.9404 8.16032 18.0657 8.01107 18.1796 7.85156C18.2936 7.69206 18.3961 7.52572 18.4873 7.35254C18.5807 7.17708 18.6627 7.00277 18.7333 6.82959C18.7402 6.83643 18.7436 6.84782 18.7436 6.86377ZM25.1831 6.86377C25.2104 6.86605 25.24 6.87516 25.2719 6.89111C25.3038 6.90706 25.3357 6.92529 25.3676 6.9458C25.3243 7.07568 25.2753 7.20671 25.2207 7.33887C25.166 7.46875 25.1044 7.59635 25.0361 7.72168C24.9677 7.84701 24.8925 7.96891 24.8105 8.0874C24.7285 8.20361 24.6373 8.31185 24.5371 8.41211C24.4049 8.54655 24.2579 8.6639 24.0961 8.76416C23.9366 8.86214 23.768 8.94417 23.5903 9.01025C23.4148 9.07633 23.2337 9.12533 23.0468 9.15723C22.86 9.19141 22.6754 9.2085 22.4931 9.2085C22.1901 9.2085 21.895 9.1709 21.6079 9.0957C21.323 9.02279 21.053 8.91683 20.7978 8.77783C20.5449 8.63883 20.3125 8.47021 20.1005 8.27197C19.8886 8.07145 19.7052 7.84473 19.5502 7.5918C19.3976 7.33659 19.2779 7.05745 19.1914 6.75439C19.107 6.45133 19.0649 6.12777 19.0649 5.78369C19.0649 5.5262 19.0922 5.27214 19.1469 5.02148C19.2039 4.77083 19.2859 4.52816 19.393 4.29346C19.5001 4.05876 19.6323 3.83545 19.7895 3.62354C19.9467 3.40934 20.1267 3.20996 20.3295 3.02539C20.4845 2.88411 20.652 2.75765 20.832 2.646C21.012 2.53434 21.1988 2.43978 21.3925 2.3623C21.5862 2.28483 21.7856 2.22559 21.9907 2.18457C22.1958 2.14355 22.4008 2.12305 22.6059 2.12305C22.8748 2.12305 23.1391 2.16064 23.3989 2.23584C23.6609 2.30876 23.9116 2.42611 24.1508 2.58789C24.2853 2.67904 24.4117 2.78613 24.5302 2.90918C24.6487 3.03223 24.7524 3.16553 24.8413 3.30908C24.9301 3.45264 24.9996 3.60531 25.0498 3.76709C25.1022 3.92887 25.1284 4.09294 25.1284 4.25928C25.1284 4.37321 25.1101 4.47803 25.0737 4.57373C25.0395 4.66715 24.986 4.74805 24.913 4.81641C24.8424 4.88477 24.7513 4.93831 24.6396 4.97705C24.5302 5.01351 24.3992 5.03174 24.2465 5.03174C24.103 5.03174 23.9754 5.01123 23.8637 4.97021C23.7543 4.92692 23.6575 4.86995 23.5732 4.79932C23.4912 4.7264 23.4217 4.64095 23.3647 4.54297C23.3077 4.44499 23.261 4.34131 23.2246 4.23193C23.2018 4.1613 23.1835 4.09408 23.1699 4.03027C23.1585 3.96419 23.1528 3.90039 23.1528 3.83887C23.1528 3.73861 23.171 3.64404 23.2075 3.55518C23.2439 3.46631 23.3055 3.37858 23.392 3.29199C23.4558 3.22819 23.5048 3.16439 23.539 3.10059C23.5755 3.03678 23.5937 2.97184 23.5937 2.90576C23.5937 2.79411 23.5595 2.6984 23.4912 2.61865C23.4228 2.5389 23.3374 2.47396 23.2348 2.42383C23.1323 2.3737 23.0206 2.33724 22.8999 2.31445C22.7814 2.29167 22.6708 2.28027 22.5683 2.28027C22.3632 2.28027 22.1901 2.31673 22.0488 2.38965C21.9075 2.46257 21.7913 2.56055 21.7001 2.68359C21.609 2.80664 21.5384 2.94906 21.4882 3.11084C21.4381 3.27035 21.3994 3.43669 21.372 3.60986C21.3333 3.85824 21.3082 4.10775 21.2968 4.3584C21.2877 4.60677 21.282 4.85856 21.2797 5.11377C21.2797 5.26872 21.2809 5.42253 21.2832 5.5752C21.2854 5.72786 21.2877 5.87939 21.29 6.02979C21.2923 6.22347 21.2945 6.41829 21.2968 6.61426C21.2991 6.81022 21.3082 7.00618 21.3242 7.20215C21.3424 7.39583 21.3709 7.58838 21.4096 7.77979C21.4484 7.96891 21.5053 8.15348 21.5805 8.3335C21.6284 8.45199 21.6899 8.55225 21.7651 8.63428C21.8426 8.71631 21.928 8.78353 22.0214 8.83594C22.1171 8.88607 22.2185 8.92367 22.3256 8.94873C22.435 8.97152 22.5478 8.98291 22.664 8.98291C22.8805 8.98291 23.0821 8.95443 23.269 8.89746C23.4581 8.83822 23.6336 8.75846 23.7954 8.6582C23.9571 8.55566 24.1064 8.43604 24.2431 8.29932C24.3798 8.16032 24.5052 8.01107 24.6191 7.85156C24.733 7.69206 24.8356 7.52572 24.9267 7.35254C25.0201 7.17708 25.1022 7.00277 25.1728 6.82959C25.1796 6.83643 25.1831 6.84782 25.1831 6.86377ZM31.5439 7.09277C31.5735 7.12012 31.6031 7.14746 31.6328 7.1748C31.6624 7.19987 31.692 7.22493 31.7216 7.25C31.5804 7.50521 31.4152 7.74788 31.226 7.97803C31.0392 8.20817 30.8307 8.41097 30.6005 8.58643C30.3727 8.7596 30.1254 8.89746 29.8588 9C29.5922 9.10254 29.3108 9.15381 29.0146 9.15381C28.7024 9.15381 28.3948 9.11849 28.0917 9.04785C27.791 8.97721 27.505 8.87354 27.2338 8.73682C26.965 8.6001 26.7166 8.43262 26.4887 8.23438C26.2609 8.03385 26.0638 7.80485 25.8974 7.54736C25.7333 7.28988 25.6046 7.00391 25.5112 6.68945C25.4178 6.375 25.371 6.03548 25.371 5.6709C25.371 5.4248 25.395 5.18099 25.4428 4.93945C25.493 4.69564 25.5659 4.4598 25.6616 4.23193C25.7573 4.00407 25.8746 3.78646 26.0136 3.5791C26.1549 3.36947 26.3167 3.17578 26.499 2.99805C26.6425 2.85677 26.7952 2.72917 26.957 2.61523C27.1188 2.49902 27.2885 2.40104 27.4663 2.32129C27.6463 2.23926 27.8331 2.17546 28.0268 2.12988C28.2205 2.08431 28.421 2.06152 28.6284 2.06152C28.7879 2.06152 28.9485 2.07292 29.1103 2.0957C29.2721 2.11849 29.4316 2.15267 29.5888 2.19824C29.746 2.24382 29.8987 2.30078 30.0468 2.36914C30.1949 2.43522 30.3339 2.51156 30.4638 2.59814C30.6985 2.75537 30.9013 2.93766 31.0722 3.14502C31.2431 3.35238 31.3844 3.57682 31.496 3.81836C31.61 4.05762 31.6966 4.30941 31.7558 4.57373C31.8151 4.83805 31.8515 5.10693 31.8652 5.38037C31.6328 5.27555 31.3935 5.20264 31.1474 5.16162C30.9036 5.11833 30.6541 5.09668 30.3989 5.09668C30.1619 5.09668 29.9261 5.11035 29.6914 5.1377C29.4589 5.16276 29.2277 5.1958 28.9975 5.23682C28.7674 5.27555 28.5395 5.31885 28.3139 5.3667C28.0906 5.41227 27.8707 5.45557 27.6542 5.49658C27.6201 5.50342 27.5973 5.51367 27.5859 5.52734C27.5745 5.53874 27.5688 5.55583 27.5688 5.57861C27.5688 5.59456 27.5699 5.61279 27.5722 5.6333C27.5768 5.65381 27.5791 5.6766 27.5791 5.70166C27.5813 5.99333 27.5836 6.28499 27.5859 6.57666C27.5882 6.86605 27.6053 7.15658 27.6372 7.44824C27.6486 7.5599 27.6656 7.67497 27.6884 7.79346C27.7135 7.90967 27.7477 8.02246 27.791 8.13184C27.8365 8.24121 27.8924 8.34489 27.9584 8.44287C28.0245 8.53857 28.1066 8.62061 28.2045 8.68896C28.3208 8.77327 28.4472 8.83366 28.5839 8.87012C28.7207 8.9043 28.8619 8.92139 29.0078 8.92139C29.2014 8.92139 29.386 8.89746 29.5615 8.84961C29.7392 8.80176 29.9067 8.73568 30.0639 8.65137C30.2211 8.56478 30.3704 8.46338 30.5117 8.34717C30.6529 8.23096 30.7851 8.10563 30.9082 7.97119C31.0312 7.83447 31.1451 7.69206 31.25 7.54395C31.357 7.39355 31.455 7.24316 31.5439 7.09277ZM27.5825 5.17871C27.9471 5.11263 28.3139 5.04313 28.6831 4.97021C29.0545 4.8973 29.427 4.84147 29.8007 4.80273C29.8098 4.80501 29.8178 4.80729 29.8247 4.80957C29.8315 4.80957 29.8383 4.80957 29.8452 4.80957C29.8862 4.80957 29.9067 4.79248 29.9067 4.7583C29.9067 4.73324 29.9033 4.69564 29.8964 4.64551C29.8919 4.5931 29.8885 4.54639 29.8862 4.50537C29.8793 4.30713 29.868 4.1123 29.852 3.9209C29.8383 3.72721 29.8121 3.53467 29.7734 3.34326C29.7552 3.25895 29.7335 3.17236 29.7084 3.0835C29.6857 2.99463 29.6549 2.90918 29.6162 2.82715C29.5797 2.74284 29.5341 2.6665 29.4794 2.59814C29.4248 2.52751 29.3575 2.4694 29.2778 2.42383C29.1935 2.37598 29.108 2.34066 29.0214 2.31787C28.9371 2.29508 28.8517 2.28369 28.7651 2.28369C28.6648 2.28369 28.5668 2.2985 28.4711 2.32812C28.3777 2.35775 28.2889 2.3999 28.2045 2.45459C28.1225 2.50928 28.0473 2.5765 27.979 2.65625C27.9129 2.73372 27.857 2.82145 27.8115 2.91943C27.7431 3.06982 27.6975 3.22363 27.6748 3.38086C27.6542 3.53581 27.6383 3.69417 27.6269 3.85596C27.6087 4.07699 27.5973 4.29801 27.5927 4.51904C27.5882 4.73779 27.5847 4.95768 27.5825 5.17871ZM34.7841 1.96582C34.7591 2.15039 34.7374 2.33382 34.7192 2.51611C34.701 2.6984 34.6839 2.88184 34.6679 3.06641C34.832 2.71777 35.061 2.44548 35.3549 2.24951C35.6489 2.05127 36.0146 1.95215 36.4521 1.95215C36.8098 1.95215 37.1357 2.0057 37.4296 2.11279C37.7236 2.21989 37.9868 2.36572 38.2192 2.55029C38.4539 2.73486 38.6578 2.9502 38.831 3.19629C39.0042 3.44238 39.1477 3.70557 39.2617 3.98584C39.3756 4.26611 39.4611 4.5555 39.518 4.854C39.575 5.15023 39.6035 5.44189 39.6035 5.729C39.6035 5.99105 39.5761 6.25081 39.5214 6.5083C39.469 6.76579 39.3756 7.00846 39.2412 7.23633C39.1614 7.37077 39.0714 7.49837 38.9711 7.61914C38.8732 7.73763 38.7672 7.85042 38.6533 7.95752C38.5393 8.06234 38.4186 8.16146 38.291 8.25488C38.1656 8.34831 38.038 8.43604 37.9082 8.51807C37.7714 8.60465 37.6267 8.6901 37.4741 8.77441C37.3237 8.85645 37.1676 8.9305 37.0058 8.99658C36.8463 9.06266 36.6834 9.11621 36.517 9.15723C36.3507 9.19824 36.1855 9.21875 36.0214 9.21875C35.6819 9.21875 35.3846 9.13786 35.1293 8.97607C34.8741 8.81429 34.6793 8.57845 34.5449 8.26855C34.5563 8.82454 34.5745 9.37826 34.5996 9.92969C34.6269 10.4811 34.6713 11.0326 34.7329 11.584C34.7351 11.6182 34.7351 11.6478 34.7329 11.6729C34.7329 11.6979 34.7351 11.7184 34.7397 11.7344C34.7465 11.7526 34.7579 11.7651 34.7739 11.772C34.7898 11.7811 34.8172 11.7856 34.8559 11.7856C34.9584 11.7902 35.0587 11.7925 35.1567 11.7925C35.2569 11.7925 35.3583 11.7925 35.4609 11.7925L35.4711 12.0078C34.9243 11.9987 34.3785 11.9668 33.8339 11.9121C33.2916 11.8597 32.7561 11.764 32.2275 11.625C32.191 11.6159 32.1648 11.6011 32.1489 11.5806C32.1329 11.5601 32.1215 11.5361 32.1147 11.5088C32.1079 11.4814 32.1044 11.4518 32.1044 11.4199C32.1044 11.388 32.1022 11.355 32.0976 11.3208C32.207 11.3573 32.3175 11.3903 32.4291 11.4199C32.5408 11.4518 32.6525 11.4826 32.7641 11.5122C32.6479 10.7603 32.5613 10.0083 32.5043 9.25635C32.4474 8.50667 32.4189 7.7513 32.4189 6.99023C32.4189 5.54329 32.5214 4.10547 32.7265 2.67676C32.6149 2.70182 32.5032 2.72689 32.3916 2.75195C32.2822 2.77474 32.1717 2.80094 32.06 2.83057C32.0646 2.78271 32.0703 2.736 32.0771 2.69043C32.0839 2.64258 32.0896 2.59473 32.0942 2.54688C32.2765 2.5013 32.4588 2.45915 32.6411 2.42041C32.8234 2.37939 33.0068 2.34294 33.1914 2.31104C33.4602 2.26546 33.7268 2.21761 33.9912 2.16748C34.2578 2.11735 34.5221 2.05013 34.7841 1.96582ZM37.4707 6.04346C37.4661 5.67432 37.4593 5.30632 37.4501 4.93945C37.4433 4.57031 37.4103 4.20231 37.351 3.83545C37.3305 3.71696 37.3066 3.59505 37.2792 3.46973C37.2542 3.34212 37.2211 3.21908 37.1801 3.10059C37.1391 2.97982 37.089 2.86589 37.0297 2.75879C36.9705 2.64941 36.8964 2.55485 36.8076 2.4751C36.721 2.39307 36.6173 2.32812 36.4965 2.28027C36.378 2.23242 36.239 2.2085 36.0795 2.2085C35.8745 2.2085 35.6967 2.25863 35.5463 2.35889C35.3982 2.45915 35.2718 2.59017 35.1669 2.75195C35.0621 2.91374 34.9755 3.09831 34.9072 3.30566C34.8411 3.51074 34.7875 3.72038 34.7465 3.93457C34.7055 4.14648 34.6748 4.35384 34.6542 4.55664C34.6337 4.75716 34.6178 4.93376 34.6064 5.08643C34.5927 5.25732 34.5813 5.42936 34.5722 5.60254C34.5631 5.77572 34.5585 5.94889 34.5585 6.12207C34.5585 6.32487 34.5654 6.52539 34.5791 6.72363C34.595 6.92188 34.6212 7.12012 34.6577 7.31836C34.6782 7.43001 34.6998 7.54281 34.7226 7.65674C34.7477 7.77067 34.7796 7.88005 34.8183 7.98486C34.857 8.08968 34.9038 8.1888 34.9584 8.28223C35.0154 8.37565 35.0849 8.45654 35.1669 8.5249C35.2513 8.59326 35.3492 8.64795 35.4609 8.68896C35.5748 8.7277 35.7093 8.74707 35.8642 8.74707C35.9781 8.74707 36.0909 8.7334 36.2026 8.70605C36.3165 8.67871 36.4236 8.63883 36.5239 8.58643C36.6264 8.53402 36.721 8.47135 36.8076 8.39844C36.8964 8.32324 36.9728 8.23779 37.0366 8.14209C37.1323 8.00081 37.2063 7.84359 37.2587 7.67041C37.3134 7.49495 37.3544 7.31494 37.3818 7.13037C37.4114 6.94352 37.4308 6.75667 37.4399 6.56982C37.4513 6.38298 37.4615 6.20752 37.4707 6.04346C37.4707 6.02295 37.4695 6.0127 37.4672 6.0127C37.4672 6.0127 37.4661 6.02409 37.4638 6.04688C37.4615 6.06966 37.4593 6.09701 37.457 6.12891C37.457 6.15853 37.4558 6.18815 37.4536 6.21777C37.4536 6.24512 37.4536 6.26449 37.4536 6.27588V6.28613C37.4558 6.28613 37.4581 6.26904 37.4604 6.23486C37.4627 6.1984 37.4661 6.1346 37.4707 6.04346ZM40.54 0.338867C40.8544 0.174805 41.1803 0.0449219 41.5175 -0.0507812C41.857 -0.146484 42.2034 -0.212565 42.5566 -0.249023C42.5908 0.0950521 42.617 0.436849 42.6352 0.776367C42.6557 1.11589 42.6728 1.45882 42.6865 1.80518C42.6888 1.84391 42.699 1.87354 42.7172 1.89404C42.7377 1.91227 42.7628 1.92708 42.7924 1.93848C42.8243 1.94759 42.8585 1.95557 42.895 1.9624C42.9314 1.96696 42.9667 1.97493 43.0009 1.98633C43.1331 2.02962 43.2607 2.08659 43.3837 2.15723C43.5091 2.22559 43.6264 2.3042 43.7358 2.39307C43.7722 2.42497 43.7996 2.45459 43.8178 2.48193C43.8361 2.50928 43.8486 2.53776 43.8554 2.56738C43.8623 2.59701 43.8657 2.63005 43.8657 2.6665C43.8657 2.70068 43.8657 2.74056 43.8657 2.78613C43.7039 2.62663 43.5239 2.50016 43.3256 2.40674C43.1297 2.31104 42.9212 2.24268 42.7001 2.20166C42.7115 2.57764 42.7207 2.95247 42.7275 3.32617C42.7343 3.69759 42.7377 4.07129 42.7377 4.44727C42.7377 4.69792 42.7355 4.94743 42.7309 5.1958C42.7286 5.44417 42.7252 5.69368 42.7207 5.94434C42.7161 6.19271 42.7047 6.44222 42.6865 6.69287C42.6705 6.94352 42.6614 7.19531 42.6591 7.44824C42.6591 7.51432 42.658 7.59635 42.6557 7.69434C42.6557 7.79004 42.6637 7.88346 42.6796 7.97461C42.6979 8.06576 42.7309 8.14437 42.7788 8.21045C42.8266 8.27425 42.8995 8.30615 42.9975 8.30615C43.0568 8.30615 43.116 8.29704 43.1752 8.27881C43.2345 8.26058 43.2915 8.23779 43.3461 8.21045C43.4031 8.18083 43.4567 8.14893 43.5068 8.11475C43.5569 8.07829 43.6048 8.04183 43.6503 8.00537C43.6686 8.03727 43.6902 8.07487 43.7153 8.11816C43.7403 8.15918 43.7529 8.19108 43.7529 8.21387C43.7529 8.24805 43.7369 8.27995 43.705 8.30957C43.6754 8.33691 43.6481 8.3654 43.623 8.39502C43.5091 8.51807 43.3894 8.63086 43.2641 8.7334C43.1388 8.83366 43.0055 8.91911 42.8642 8.98975C42.7252 9.06038 42.5771 9.11507 42.4199 9.15381C42.2626 9.19255 42.0952 9.21191 41.9174 9.21191C41.7351 9.21191 41.5756 9.19368 41.4389 9.15723C41.3022 9.12305 41.1826 9.07178 41.08 9.00342C40.9775 8.93734 40.8898 8.85531 40.8168 8.75732C40.7462 8.65934 40.6835 8.54655 40.6289 8.41895C40.5856 8.31868 40.5525 8.21615 40.5297 8.11133C40.5069 8.00651 40.4887 7.90169 40.475 7.79688C40.4637 7.68978 40.4557 7.58268 40.4511 7.47559C40.4466 7.36621 40.442 7.25798 40.4375 7.15088C40.4147 6.68604 40.3976 6.22461 40.3862 5.7666C40.3748 5.30632 40.3691 4.84375 40.3691 4.37891C40.3691 4.11003 40.3702 3.84456 40.3725 3.58252C40.3771 3.3182 40.3816 3.0516 40.3862 2.78271C40.3224 2.78727 40.2597 2.79183 40.1982 2.79639C40.1367 2.79867 40.0751 2.7998 40.0136 2.7998C39.9772 2.7998 39.9418 2.7998 39.9077 2.7998C39.8735 2.7998 39.8427 2.79867 39.8154 2.79639C39.7903 2.79183 39.7698 2.78613 39.7539 2.7793C39.7379 2.77018 39.7299 2.75879 39.7299 2.74512C39.7299 2.72461 39.7311 2.69157 39.7333 2.646C39.7379 2.59814 39.7402 2.55029 39.7402 2.50244C39.8199 2.50244 39.8997 2.50016 39.9794 2.49561C40.0592 2.49105 40.1367 2.48421 40.2119 2.4751C40.246 2.47282 40.2745 2.47168 40.2973 2.47168C40.3201 2.47168 40.3395 2.4694 40.3554 2.46484C40.3714 2.46029 40.3828 2.45003 40.3896 2.43408C40.3964 2.41813 40.401 2.39079 40.4033 2.35205C40.4215 2.01481 40.4409 1.67985 40.4614 1.34717C40.4842 1.01221 40.5104 0.676107 40.54 0.338867Z" transform="translate(8.79468 200.162)" fill="white"/>
<path d="M3.84306 71.2471C0.172378 69.4073 -2.55589 11.2628 3.84305 2.25549C6.4297 -1.38555 68.6153 -0.0442234 71.5213 2.25549C75.1537 5.13014 76.492 67.4142 73.6243 71.2471C70.7565 75.0799 8.43141 73.5468 3.84306 71.2471Z" transform="translate(8.06763 60.2915)" fill="#F2F2F2"/>
<ellipse cx="36.5156" cy="22.9971" rx="36.5156" ry="22.9971" transform="translate(9.61719 78.262)" fill="white"/>
<path d="M0.139059 0C0.139059 15.0289 -2.69851 24.0266 17.2623 24.0592C37.0927 24.0918 35.5271 15.6483 35.5271 0C23.7528 0 11.946 0 0.139059 0Z" transform="translate(28.2952 85.2642)" fill="#D08738"/>
<path d="M16.3405 6.61791C10.698 6.61791 5.02282 5.34649 0 2.77105C0 2.05383 0 1.36922 0 0.652011C11.122 6.32451 24.3313 5.41169 35.3554 0C35.3554 0.652011 35.3554 1.30402 35.3554 1.92343C29.5172 4.79228 22.8962 6.61791 16.3405 6.61791Z" transform="translate(28.4666 92.4363)" fill="#D4145A"/>
<path d="M16.3405 6.71571C10.698 6.71571 5.02282 5.37909 0 2.83625C0 2.11904 0 1.43442 0 0.717213C11.1546 6.38971 24.3639 5.41169 35.3554 2.48722e-07C35.3554 0.684612 35.3554 1.33662 35.3881 2.02123C29.5172 4.89008 22.8962 6.71571 16.3405 6.71571Z" transform="translate(28.4666 89.0784)" fill="#D4145A"/>
<path d="M1.94405e-09 16.9523C2.80495 14.279 14.0248 0 17.7756 0C21.7547 0 32.3874 14.0834 35.3881 16.9523C24.103 22.4618 11.2198 22.9834 1.94405e-09 16.9523Z" transform="translate(28.4338 68.3118)" fill="white"/>
<path d="M4.72945 2.39071C4.72945 7.7698 -0.0324484 2.39071 0.000167282 2.39071C-0.0324484 2.39071 4.72945 -2.98838 4.72945 2.39071Z" transform="translate(43.7634 74.0061)" fill="#D4145A"/>
<path d="M4.72945 2.39071C4.72945 7.7698 -0.0324492 2.39071 0.000166536 2.39071C-0.0324492 2.39071 4.72945 -2.98838 4.72945 2.39071Z" transform="translate(36.7183 81.113)" fill="#D4145A"/>
<path d="M4.72945 2.39071C4.72945 7.7698 -0.0324489 2.39071 0.000166785 2.39071C-0.0324489 2.39071 4.72945 -2.98838 4.72945 2.39071Z" transform="translate(50.8079 80.5261)" fill="#D4145A"/>
<path d="M1.14709 39.0952L2.67654 25.8718L0 1.3415L5.1619 0C6.26809 4.58328 7.14386 11.8442 7.59664 16.9121C7.63908 12.4297 7.94938 6.38384 8.60316 2.683H13.0003L12.4268 28.9381C10.8973 28.427 7.83844 27.5583 7.83844 28.1715C7.83844 28.7848 7.07371 38.9035 6.50017 44.2695L0.382363 43.8862L1.14709 39.0952Z" transform="translate(67.4875 25.1921)" fill="#F2C94C"/>
<path d="M5.36062 13.0003C15.0531 0.750086 39.7155 -4.61584 65.525 4.77444C72.085 7.16116 87.6679 7.26577 88.658 13.0003C93.8199 42.8965 88.9069 160.565 85.4656 164.59C82.0244 168.614 14.5373 175.322 5.36062 164.59C-3.81608 153.858 0.571599 19.053 5.36062 13.0003Z" transform="translate(239.102 41.031)" fill="white"/>
<path d="M0.724807 6.13421C-1.08375 4.32321 0.965386 1.24426 1.76097 1.08447C3.42269 0.750712 33.6745 -1.17928 35.1062 1.08447C35.6376 1.92461 35.78 4.33497 35.1062 6.13421C33.6933 9.90711 2.9855 8.39795 0.724807 6.13421Z" transform="translate(248.661 137.619)" fill="#F2F2F2"/>
<path d="M0.701426 30.9499C-1.04879 21.8126 0.934245 6.27784 1.70416 5.47162C3.31228 3.78768 32.5882 -5.94998 33.9738 5.47162C34.488 9.71054 34.6258 21.8719 33.9738 30.9499C32.6064 49.9859 2.8892 42.3715 0.701426 30.9499Z" transform="translate(289.956 137.619)" fill="#F2F2F2"/>
<path d="M0.000216462 1.63157C-0.0307047 5.3051 3.2624 1.66244 3.23148 1.66244C3.2624 1.66244 0.0465983 -2.05739 0.000216462 1.63157Z" transform="translate(296.823 157.045)" fill="#FBCAA9"/>
<path d="M-2.94888e-08 0.83157C0.541121 1.95832 1.11316 1.95833 1.68521 0.847006C1.12862 -0.279749 0.572042 -0.27975 -2.94888e-08 0.83157Z" transform="translate(297.612 157.845)" fill="#D8A68B"/>
<path d="M0.000483387 1.63157C-0.0458984 5.32054 3.26267 1.66244 3.23175 1.66244C3.26267 1.66244 0.0468652 -2.05739 0.000483387 1.63157Z" transform="translate(312.871 157.23)" fill="#FBCAA9"/>
<path d="M2.3591e-07 0.825813C0.541121 1.95257 1.11316 1.95257 1.68521 0.841248C1.12862 -0.270072 0.572042 -0.285507 2.3591e-07 0.825813Z" transform="translate(313.644 158.036)" fill="#D8A68B"/>
<path d="M6.42285 22.5428C11.8959 23.7004 15.1426 19.0545 16.1167 14.4394C16.6114 12.0779 17.2762 7.74066 16.8433 5.3791C16.0703 1.18078 11.9578 0.100334 8.92747 0.0231589C6.84029 -0.0231461 0.0376286 -0.517066 0.00670738 6.81456C-0.0396744 13.251 -0.0242144 19.2706 6.42285 22.5428Z" transform="translate(298.131 147.695)" fill="#FFD7BD"/>
<path d="M5.38029 1.21045C4.88555 0.870876 0.139145 -0.919583 0 0.608482C0.479279 0.948052 5.24114 2.72308 5.38029 1.21045Z" transform="translate(307.708 154.704)" fill="#BDBDBD"/>
<path d="M5.41121 0.572515C3.78785 -0.291845 1.51514 -0.168365 -1.17955e-07 0.881215C0.0618423 1.93079 5.45759 1.37513 5.41121 0.572515Z" transform="translate(299.869 154.847)" fill="#BDBDBD"/>
<path d="M4.7182e-07 0.750538C0.49474 1.75381 0.989478 1.76925 1.51514 0.765973C1.0204 -0.252737 0.525661 -0.252737 4.7182e-07 0.750538Z" transform="translate(309.609 157.494)" fill="#2D2D2D"/>
<path d="M-1.17955e-07 0.738962C0.494739 1.74224 0.989478 1.75767 1.51514 0.754397C1.00494 -0.248878 0.5102 -0.248878 -1.17955e-07 0.738962Z" transform="translate(301.801 157.413)" fill="#2D2D2D"/>
<path d="M0 0.495865C0.340133 1.17501 0.680266 1.17501 1.0204 0.511301C0.680266 -0.167838 0.340133 -0.167839 0 0.495865Z" transform="translate(307.167 161.654)" fill="#D8A68B"/>
<path d="M1.17955e-07 0.507442C0.340133 1.18658 0.680267 1.18658 1.0204 0.522876C0.695728 -0.171699 0.355594 -0.171698 1.17955e-07 0.507442Z" transform="translate(305.033 161.627)" fill="#D8A68B"/>
<path d="M0.17316 1.01122C3.15706 3.83582 5.56891 3.21842 7.68701 0.378381C7.87254 0.146856 7.60971 -0.115539 7.36234 0.054246C4.98141 1.55144 3.00245 1.78297 0.497833 0.687081C0.219542 0.563601 -0.151513 0.717951 0.0649358 0.918606L0.17316 1.01122Z" transform="translate(302.432 164.426)" fill="#D8A68B"/>
<path d="M2.8263 3.12607C0.73912 3.23411 -1.62635 0.872555 1.54307 0.0699355C3.97039 -0.547464 5.64013 3.12607 2.8263 3.12607Z" transform="translate(295.419 154.918)" fill="#BDBDBD"/>
<path d="M2.8374 3.12607C0.750215 3.23411 -1.63072 0.872556 1.5387 0.0699357C3.98148 -0.547464 5.65122 3.12607 2.8374 3.12607Z" transform="translate(313.343 155.443)" fill="#BDBDBD"/>
<path d="M0.755981 6.13421C-1.13036 4.32321 1.00691 1.24426 1.83671 1.08447C3.5699 0.750712 35.1228 -1.17928 36.6162 1.08447C37.1704 1.92461 37.319 4.33497 36.6162 6.13421C35.1425 9.90711 3.11391 8.39795 0.755981 6.13421Z" transform="translate(284.221 160.616) rotate(180)" fill="#F2F2F2"/>
<path d="M0.755981 6.13421C-1.13036 4.32321 1.00691 1.24426 1.83671 1.08447C3.5699 0.750712 35.1228 -1.17928 36.6162 1.08447C37.1704 1.92461 37.319 4.33497 36.6162 6.13421C35.1425 9.90711 3.11391 8.39795 0.755981 6.13421Z" transform="translate(247.132 165.982)" fill="#F2F2F2"/>
<path d="M51.004 3.70773C51.4954 3.96223 51.3785 11.0608 48.9549 13.1991C44.1249 17.4606 4.11973 17.6886 1.24098 13.1991C-0.0330985 11.2122 -0.981402 5.16973 1.82642 3.70773C10.7545 -0.94102 40.905 -1.52226 51.004 3.70773Z" transform="translate(245.984 189.362)" fill="#66CC33"/>
<path d="M15.2251 3.36282C15.3718 3.59365 15.3369 10.0319 14.6134 11.9713C13.1716 15.8363 1.22977 16.0432 0.370441 11.9713C-0.00988015 10.1692 -0.292956 4.68882 0.545201 3.36282C3.2103 -0.853483 12.2104 -1.38066 15.2251 3.36282Z" transform="translate(302.574 190.129)" fill="#E54848"/>
<path d="M4.60115 5.02631C3.16272 6.30713 2.30678 7.08306 0.586343 8.47588C0.199086 8.28571 -0.0620009 8.24886 0.0127988 7.32603L3.64525 4.06809L0.586343 1.00181C0.518505 0.382032 0.63774 0.122096 1.54225 0.0435925L4.60115 3.30152C5.71688 2.41759 8.18884 0.17909 8.42478 0.0435925C8.81403 -0.179945 9.51015 0.504357 9.38069 1.00181C7.97663 2.36874 7.08236 3.10869 5.55706 4.45138L8.42478 7.90095C8.19993 8.40815 7.99841 8.54884 7.46887 8.47588L4.60115 5.02631Z" transform="translate(306.003 194.11)" fill="white"/>
<path d="M9.40571 8.6958C9.31001 8.3973 9.21658 8.10449 9.12544 7.81738C9.0867 7.69434 9.04569 7.56787 9.00239 7.43799C8.9591 7.30811 8.9158 7.17936 8.87251 7.05176C8.83149 6.92415 8.79048 6.80111 8.74946 6.68262C8.70845 6.56413 8.66971 6.45703 8.63325 6.36133C8.6173 6.31803 8.5911 6.29183 8.55464 6.28271C8.51818 6.27132 8.47602 6.26904 8.42817 6.27588C8.38032 6.28271 8.32791 6.29411 8.27095 6.31006C8.21626 6.32373 8.16271 6.33398 8.1103 6.34082C7.76395 6.39095 7.41418 6.43311 7.06099 6.46729C6.71007 6.50146 6.35802 6.51855 6.00483 6.51855C5.79064 6.51855 5.57645 6.51172 5.36226 6.49805C5.33035 6.49577 5.30415 6.49235 5.28364 6.48779C5.26313 6.48324 5.24377 6.48096 5.22554 6.48096C5.20731 6.48096 5.19136 6.48779 5.17768 6.50146C5.16401 6.51514 5.15148 6.54134 5.14009 6.58008C5.1173 6.65983 5.09224 6.743 5.06489 6.82959C5.03755 6.91618 5.01134 7.00505 4.98628 7.09619C4.96121 7.18506 4.93957 7.27507 4.92134 7.36621C4.90539 7.45508 4.89741 7.54281 4.89741 7.62939C4.89741 7.7251 4.90994 7.81966 4.93501 7.91309C4.96007 8.00423 4.99653 8.09082 5.04438 8.17285C5.09451 8.2526 5.15376 8.32552 5.22212 8.3916C5.29276 8.4554 5.37251 8.50553 5.46138 8.54199C5.58898 8.59668 5.72456 8.6377 5.86811 8.66504C6.01395 8.69238 6.15067 8.71403 6.27827 8.72998C6.31245 8.73454 6.33752 8.74365 6.35347 8.75732C6.36942 8.771 6.38081 8.78809 6.38765 8.80859C6.39448 8.8291 6.39904 8.85303 6.40132 8.88037C6.4036 8.90771 6.40815 8.9362 6.41499 8.96582C5.90913 8.94076 5.41011 8.89746 4.91792 8.83594C4.42801 8.77441 3.9324 8.6958 3.4311 8.6001C3.39237 8.59098 3.36388 8.57617 3.34565 8.55566C3.3297 8.53288 3.31831 8.50667 3.31147 8.47705C3.30236 8.44515 3.29666 8.41097 3.29438 8.37451C3.29211 8.33805 3.28869 8.30273 3.28413 8.26855C3.34337 8.28451 3.4049 8.29818 3.4687 8.30957C3.5325 8.31868 3.5963 8.32324 3.66011 8.32324C3.7786 8.32324 3.88 8.30501 3.96431 8.26855C4.04862 8.22982 4.12153 8.17855 4.18306 8.11475C4.24458 8.04867 4.29585 7.97347 4.33686 7.88916C4.37788 7.80485 4.41206 7.71598 4.4394 7.62256C4.46903 7.52913 4.49523 7.43457 4.51802 7.33887C4.5408 7.24089 4.56359 7.1486 4.58638 7.06201C4.76639 6.39893 4.95552 5.73812 5.15376 5.07959C5.352 4.41878 5.56392 3.76367 5.7895 3.11426C6.01509 2.46257 6.25662 1.81771 6.51411 1.17969C6.77388 0.541667 7.05415 -0.0849609 7.35493 -0.700195C7.39595 -0.786784 7.43696 -0.871094 7.47798 -0.953125C7.52127 -1.03743 7.56343 -1.12288 7.60444 -1.20947H8.26753C8.30854 -1.20947 8.345 -1.19352 8.3769 -1.16162C8.4088 -1.132 8.43729 -1.09554 8.46235 -1.05225C8.48742 -1.00895 8.5102 -0.96224 8.53071 -0.912109C8.55122 -0.864258 8.57059 -0.823242 8.58882 -0.789062C8.8463 -0.312826 9.0924 0.171387 9.3271 0.663574C9.56408 1.15576 9.78625 1.65479 9.9936 2.16064C10.201 2.6665 10.3924 3.1792 10.5678 3.69873C10.7456 4.21598 10.9051 4.73779 11.0463 5.26416C11.1853 5.78597 11.3084 6.31006 11.4155 6.83643C11.5249 7.36279 11.6228 7.89372 11.7094 8.4292C11.8461 8.40413 11.9829 8.37907 12.1196 8.354C12.2586 8.32666 12.3964 8.29818 12.5332 8.26855C12.5263 8.30273 12.5218 8.33805 12.5195 8.37451C12.5195 8.41097 12.5149 8.44515 12.5058 8.47705C12.499 8.50667 12.4864 8.53288 12.4682 8.55566C12.45 8.57617 12.4215 8.59098 12.3828 8.6001C11.706 8.74365 11.0201 8.84277 10.3251 8.89746C9.63244 8.95215 8.93745 8.98519 8.24018 8.99658C8.24018 8.95329 8.24132 8.91113 8.2436 8.87012C8.24588 8.8291 8.24816 8.78809 8.25044 8.74707C8.44184 8.73568 8.63325 8.7277 8.82466 8.72314C9.01834 8.71631 9.21203 8.70719 9.40571 8.6958L9.31001 8.34717L9.40571 8.6958ZM8.53755 5.89307C8.31196 5.33024 8.09435 4.77767 7.88472 4.23535C7.79585 4.00521 7.70242 3.76595 7.60444 3.51758C7.50874 3.26921 7.41418 3.02425 7.32075 2.78271C7.22961 2.5389 7.14188 2.3042 7.05757 2.07861C6.97326 1.85303 6.89692 1.64681 6.82856 1.45996C6.53006 2.23698 6.24751 3.01514 5.98091 3.79443C5.71658 4.57145 5.46479 5.35872 5.22554 6.15625C5.31896 6.16081 5.41125 6.16536 5.50239 6.16992C5.59354 6.1722 5.68582 6.17334 5.77925 6.17334C6.24409 6.17334 6.70552 6.14486 7.16352 6.08789C7.62153 6.03092 8.07954 5.96598 8.53755 5.89307ZM18.7436 6.86377C18.7709 6.86605 18.8006 6.87516 18.8325 6.89111C18.8644 6.90706 18.8963 6.92529 18.9282 6.9458C18.8849 7.07568 18.8359 7.20671 18.7812 7.33887C18.7265 7.46875 18.665 7.59635 18.5966 7.72168C18.5283 7.84701 18.4531 7.96891 18.371 8.0874C18.289 8.20361 18.1979 8.31185 18.0976 8.41211C17.9654 8.54655 17.8185 8.6639 17.6567 8.76416C17.4972 8.86214 17.3286 8.94417 17.1508 9.01025C16.9754 9.07633 16.7942 9.12533 16.6074 9.15723C16.4205 9.19141 16.236 9.2085 16.0537 9.2085C15.7506 9.2085 15.4555 9.1709 15.1684 9.0957C14.8836 9.02279 14.6136 8.91683 14.3583 8.77783C14.1054 8.63883 13.873 8.47021 13.6611 8.27197C13.4492 8.07145 13.2657 7.84473 13.1108 7.5918C12.9581 7.33659 12.8385 7.05745 12.7519 6.75439C12.6676 6.45133 12.6254 6.12777 12.6254 5.78369C12.6254 5.5262 12.6528 5.27214 12.7075 5.02148C12.7644 4.77083 12.8465 4.52816 12.9536 4.29346C13.0607 4.05876 13.1928 3.83545 13.35 3.62354C13.5073 3.40934 13.6873 3.20996 13.8901 3.02539C14.045 2.88411 14.2125 2.75765 14.3925 2.646C14.5725 2.53434 14.7594 2.43978 14.9531 2.3623C15.1468 2.28483 15.3461 2.22559 15.5512 2.18457C15.7563 2.14355 15.9614 2.12305 16.1665 2.12305C16.4353 2.12305 16.6997 2.16064 16.9594 2.23584C17.2215 2.30876 17.4721 2.42611 17.7114 2.58789C17.8458 2.67904 17.9723 2.78613 18.0908 2.90918C18.2093 3.03223 18.3129 3.16553 18.4018 3.30908C18.4907 3.45264 18.5602 3.60531 18.6103 3.76709C18.6627 3.92887 18.6889 4.09294 18.6889 4.25928C18.6889 4.37321 18.6707 4.47803 18.6342 4.57373C18.6 4.66715 18.5465 4.74805 18.4736 4.81641C18.4029 4.88477 18.3118 4.93831 18.2001 4.97705C18.0908 5.01351 17.9597 5.03174 17.8071 5.03174C17.6635 5.03174 17.5359 5.01123 17.4243 4.97021C17.3149 4.92692 17.218 4.86995 17.1337 4.79932C17.0517 4.7264 16.9822 4.64095 16.9252 4.54297C16.8683 4.44499 16.8216 4.34131 16.7851 4.23193C16.7623 4.1613 16.7441 4.09408 16.7304 4.03027C16.719 3.96419 16.7133 3.90039 16.7133 3.83887C16.7133 3.73861 16.7316 3.64404 16.768 3.55518C16.8045 3.46631 16.866 3.37858 16.9526 3.29199C17.0164 3.22819 17.0654 3.16439 17.0996 3.10059C17.136 3.03678 17.1542 2.97184 17.1542 2.90576C17.1542 2.79411 17.1201 2.6984 17.0517 2.61865C16.9833 2.5389 16.8979 2.47396 16.7954 2.42383C16.6928 2.3737 16.5812 2.33724 16.4604 2.31445C16.3419 2.29167 16.2314 2.28027 16.1289 2.28027C15.9238 2.28027 15.7506 2.31673 15.6093 2.38965C15.468 2.46257 15.3518 2.56055 15.2607 2.68359C15.1695 2.80664 15.0989 2.94906 15.0488 3.11084C14.9986 3.27035 14.9599 3.43669 14.9326 3.60986C14.8938 3.85824 14.8688 4.10775 14.8574 4.3584C14.8483 4.60677 14.8426 4.85856 14.8403 5.11377C14.8403 5.26872 14.8414 5.42253 14.8437 5.5752C14.846 5.72786 14.8483 5.87939 14.8505 6.02979C14.8528 6.22347 14.8551 6.41829 14.8574 6.61426C14.8597 6.81022 14.8688 7.00618 14.8847 7.20215C14.9029 7.39583 14.9314 7.58838 14.9702 7.77979C15.0089 7.96891 15.0659 8.15348 15.1411 8.3335C15.1889 8.45199 15.2504 8.55225 15.3256 8.63428C15.4031 8.71631 15.4886 8.78353 15.582 8.83594C15.6777 8.88607 15.7791 8.92367 15.8862 8.94873C15.9956 8.97152 16.1083 8.98291 16.2246 8.98291C16.441 8.98291 16.6427 8.95443 16.8295 8.89746C17.0187 8.83822 17.1941 8.75846 17.3559 8.6582C17.5177 8.55566 17.6669 8.43604 17.8037 8.29932C17.9404 8.16032 18.0657 8.01107 18.1796 7.85156C18.2936 7.69206 18.3961 7.52572 18.4873 7.35254C18.5807 7.17708 18.6627 7.00277 18.7333 6.82959C18.7402 6.83643 18.7436 6.84782 18.7436 6.86377ZM25.1831 6.86377C25.2104 6.86605 25.24 6.87516 25.2719 6.89111C25.3038 6.90706 25.3357 6.92529 25.3676 6.9458C25.3243 7.07568 25.2753 7.20671 25.2207 7.33887C25.166 7.46875 25.1044 7.59635 25.0361 7.72168C24.9677 7.84701 24.8925 7.96891 24.8105 8.0874C24.7285 8.20361 24.6373 8.31185 24.5371 8.41211C24.4049 8.54655 24.2579 8.6639 24.0961 8.76416C23.9366 8.86214 23.768 8.94417 23.5903 9.01025C23.4148 9.07633 23.2337 9.12533 23.0468 9.15723C22.86 9.19141 22.6754 9.2085 22.4931 9.2085C22.1901 9.2085 21.895 9.1709 21.6079 9.0957C21.323 9.02279 21.053 8.91683 20.7978 8.77783C20.5449 8.63883 20.3125 8.47021 20.1005 8.27197C19.8886 8.07145 19.7052 7.84473 19.5502 7.5918C19.3976 7.33659 19.2779 7.05745 19.1914 6.75439C19.107 6.45133 19.0649 6.12777 19.0649 5.78369C19.0649 5.5262 19.0922 5.27214 19.1469 5.02148C19.2039 4.77083 19.2859 4.52816 19.393 4.29346C19.5001 4.05876 19.6323 3.83545 19.7895 3.62354C19.9467 3.40934 20.1267 3.20996 20.3295 3.02539C20.4845 2.88411 20.652 2.75765 20.832 2.646C21.012 2.53434 21.1988 2.43978 21.3925 2.3623C21.5862 2.28483 21.7856 2.22559 21.9907 2.18457C22.1958 2.14355 22.4008 2.12305 22.6059 2.12305C22.8748 2.12305 23.1391 2.16064 23.3989 2.23584C23.6609 2.30876 23.9116 2.42611 24.1508 2.58789C24.2853 2.67904 24.4117 2.78613 24.5302 2.90918C24.6487 3.03223 24.7524 3.16553 24.8413 3.30908C24.9301 3.45264 24.9996 3.60531 25.0498 3.76709C25.1022 3.92887 25.1284 4.09294 25.1284 4.25928C25.1284 4.37321 25.1101 4.47803 25.0737 4.57373C25.0395 4.66715 24.986 4.74805 24.913 4.81641C24.8424 4.88477 24.7513 4.93831 24.6396 4.97705C24.5302 5.01351 24.3992 5.03174 24.2465 5.03174C24.103 5.03174 23.9754 5.01123 23.8637 4.97021C23.7543 4.92692 23.6575 4.86995 23.5732 4.79932C23.4912 4.7264 23.4217 4.64095 23.3647 4.54297C23.3077 4.44499 23.261 4.34131 23.2246 4.23193C23.2018 4.1613 23.1835 4.09408 23.1699 4.03027C23.1585 3.96419 23.1528 3.90039 23.1528 3.83887C23.1528 3.73861 23.171 3.64404 23.2075 3.55518C23.2439 3.46631 23.3055 3.37858 23.392 3.29199C23.4558 3.22819 23.5048 3.16439 23.539 3.10059C23.5755 3.03678 23.5937 2.97184 23.5937 2.90576C23.5937 2.79411 23.5595 2.6984 23.4912 2.61865C23.4228 2.5389 23.3374 2.47396 23.2348 2.42383C23.1323 2.3737 23.0206 2.33724 22.8999 2.31445C22.7814 2.29167 22.6708 2.28027 22.5683 2.28027C22.3632 2.28027 22.1901 2.31673 22.0488 2.38965C21.9075 2.46257 21.7913 2.56055 21.7001 2.68359C21.609 2.80664 21.5384 2.94906 21.4882 3.11084C21.4381 3.27035 21.3994 3.43669 21.372 3.60986C21.3333 3.85824 21.3082 4.10775 21.2968 4.3584C21.2877 4.60677 21.282 4.85856 21.2797 5.11377C21.2797 5.26872 21.2809 5.42253 21.2832 5.5752C21.2854 5.72786 21.2877 5.87939 21.29 6.02979C21.2923 6.22347 21.2945 6.41829 21.2968 6.61426C21.2991 6.81022 21.3082 7.00618 21.3242 7.20215C21.3424 7.39583 21.3709 7.58838 21.4096 7.77979C21.4484 7.96891 21.5053 8.15348 21.5805 8.3335C21.6284 8.45199 21.6899 8.55225 21.7651 8.63428C21.8426 8.71631 21.928 8.78353 22.0214 8.83594C22.1171 8.88607 22.2185 8.92367 22.3256 8.94873C22.435 8.97152 22.5478 8.98291 22.664 8.98291C22.8805 8.98291 23.0821 8.95443 23.269 8.89746C23.4581 8.83822 23.6336 8.75846 23.7954 8.6582C23.9571 8.55566 24.1064 8.43604 24.2431 8.29932C24.3798 8.16032 24.5052 8.01107 24.6191 7.85156C24.733 7.69206 24.8356 7.52572 24.9267 7.35254C25.0201 7.17708 25.1022 7.00277 25.1728 6.82959C25.1796 6.83643 25.1831 6.84782 25.1831 6.86377ZM31.5439 7.09277C31.5735 7.12012 31.6031 7.14746 31.6328 7.1748C31.6624 7.19987 31.692 7.22493 31.7216 7.25C31.5804 7.50521 31.4152 7.74788 31.226 7.97803C31.0392 8.20817 30.8307 8.41097 30.6005 8.58643C30.3727 8.7596 30.1254 8.89746 29.8588 9C29.5922 9.10254 29.3108 9.15381 29.0146 9.15381C28.7024 9.15381 28.3948 9.11849 28.0917 9.04785C27.791 8.97721 27.505 8.87354 27.2338 8.73682C26.965 8.6001 26.7166 8.43262 26.4887 8.23438C26.2609 8.03385 26.0638 7.80485 25.8974 7.54736C25.7333 7.28988 25.6046 7.00391 25.5112 6.68945C25.4178 6.375 25.371 6.03548 25.371 5.6709C25.371 5.4248 25.395 5.18099 25.4428 4.93945C25.493 4.69564 25.5659 4.4598 25.6616 4.23193C25.7573 4.00407 25.8746 3.78646 26.0136 3.5791C26.1549 3.36947 26.3167 3.17578 26.499 2.99805C26.6425 2.85677 26.7952 2.72917 26.957 2.61523C27.1188 2.49902 27.2885 2.40104 27.4663 2.32129C27.6463 2.23926 27.8331 2.17546 28.0268 2.12988C28.2205 2.08431 28.421 2.06152 28.6284 2.06152C28.7879 2.06152 28.9485 2.07292 29.1103 2.0957C29.2721 2.11849 29.4316 2.15267 29.5888 2.19824C29.746 2.24382 29.8987 2.30078 30.0468 2.36914C30.1949 2.43522 30.3339 2.51156 30.4638 2.59814C30.6985 2.75537 30.9013 2.93766 31.0722 3.14502C31.2431 3.35238 31.3844 3.57682 31.496 3.81836C31.61 4.05762 31.6966 4.30941 31.7558 4.57373C31.8151 4.83805 31.8515 5.10693 31.8652 5.38037C31.6328 5.27555 31.3935 5.20264 31.1474 5.16162C30.9036 5.11833 30.6541 5.09668 30.3989 5.09668C30.1619 5.09668 29.9261 5.11035 29.6914 5.1377C29.4589 5.16276 29.2277 5.1958 28.9975 5.23682C28.7674 5.27555 28.5395 5.31885 28.3139 5.3667C28.0906 5.41227 27.8707 5.45557 27.6542 5.49658C27.6201 5.50342 27.5973 5.51367 27.5859 5.52734C27.5745 5.53874 27.5688 5.55583 27.5688 5.57861C27.5688 5.59456 27.5699 5.61279 27.5722 5.6333C27.5768 5.65381 27.5791 5.6766 27.5791 5.70166C27.5813 5.99333 27.5836 6.28499 27.5859 6.57666C27.5882 6.86605 27.6053 7.15658 27.6372 7.44824C27.6486 7.5599 27.6656 7.67497 27.6884 7.79346C27.7135 7.90967 27.7477 8.02246 27.791 8.13184C27.8365 8.24121 27.8924 8.34489 27.9584 8.44287C28.0245 8.53857 28.1066 8.62061 28.2045 8.68896C28.3208 8.77327 28.4472 8.83366 28.5839 8.87012C28.7207 8.9043 28.8619 8.92139 29.0078 8.92139C29.2014 8.92139 29.386 8.89746 29.5615 8.84961C29.7392 8.80176 29.9067 8.73568 30.0639 8.65137C30.2211 8.56478 30.3704 8.46338 30.5117 8.34717C30.6529 8.23096 30.7851 8.10563 30.9082 7.97119C31.0312 7.83447 31.1451 7.69206 31.25 7.54395C31.357 7.39355 31.455 7.24316 31.5439 7.09277ZM27.5825 5.17871C27.9471 5.11263 28.3139 5.04313 28.6831 4.97021C29.0545 4.8973 29.427 4.84147 29.8007 4.80273C29.8098 4.80501 29.8178 4.80729 29.8247 4.80957C29.8315 4.80957 29.8383 4.80957 29.8452 4.80957C29.8862 4.80957 29.9067 4.79248 29.9067 4.7583C29.9067 4.73324 29.9033 4.69564 29.8964 4.64551C29.8919 4.5931 29.8885 4.54639 29.8862 4.50537C29.8793 4.30713 29.868 4.1123 29.852 3.9209C29.8383 3.72721 29.8121 3.53467 29.7734 3.34326C29.7552 3.25895 29.7335 3.17236 29.7084 3.0835C29.6857 2.99463 29.6549 2.90918 29.6162 2.82715C29.5797 2.74284 29.5341 2.6665 29.4794 2.59814C29.4248 2.52751 29.3575 2.4694 29.2778 2.42383C29.1935 2.37598 29.108 2.34066 29.0214 2.31787C28.9371 2.29508 28.8517 2.28369 28.7651 2.28369C28.6648 2.28369 28.5668 2.2985 28.4711 2.32812C28.3777 2.35775 28.2889 2.3999 28.2045 2.45459C28.1225 2.50928 28.0473 2.5765 27.979 2.65625C27.9129 2.73372 27.857 2.82145 27.8115 2.91943C27.7431 3.06982 27.6975 3.22363 27.6748 3.38086C27.6542 3.53581 27.6383 3.69417 27.6269 3.85596C27.6087 4.07699 27.5973 4.29801 27.5927 4.51904C27.5882 4.73779 27.5847 4.95768 27.5825 5.17871ZM34.7841 1.96582C34.7591 2.15039 34.7374 2.33382 34.7192 2.51611C34.701 2.6984 34.6839 2.88184 34.6679 3.06641C34.832 2.71777 35.061 2.44548 35.3549 2.24951C35.6489 2.05127 36.0146 1.95215 36.4521 1.95215C36.8098 1.95215 37.1357 2.0057 37.4296 2.11279C37.7236 2.21989 37.9868 2.36572 38.2192 2.55029C38.4539 2.73486 38.6578 2.9502 38.831 3.19629C39.0042 3.44238 39.1477 3.70557 39.2617 3.98584C39.3756 4.26611 39.4611 4.5555 39.518 4.854C39.575 5.15023 39.6035 5.44189 39.6035 5.729C39.6035 5.99105 39.5761 6.25081 39.5214 6.5083C39.469 6.76579 39.3756 7.00846 39.2412 7.23633C39.1614 7.37077 39.0714 7.49837 38.9711 7.61914C38.8732 7.73763 38.7672 7.85042 38.6533 7.95752C38.5393 8.06234 38.4186 8.16146 38.291 8.25488C38.1656 8.34831 38.038 8.43604 37.9082 8.51807C37.7714 8.60465 37.6267 8.6901 37.4741 8.77441C37.3237 8.85645 37.1676 8.9305 37.0058 8.99658C36.8463 9.06266 36.6834 9.11621 36.517 9.15723C36.3507 9.19824 36.1855 9.21875 36.0214 9.21875C35.6819 9.21875 35.3846 9.13786 35.1293 8.97607C34.8741 8.81429 34.6793 8.57845 34.5449 8.26855C34.5563 8.82454 34.5745 9.37826 34.5996 9.92969C34.6269 10.4811 34.6713 11.0326 34.7329 11.584C34.7351 11.6182 34.7351 11.6478 34.7329 11.6729C34.7329 11.6979 34.7351 11.7184 34.7397 11.7344C34.7465 11.7526 34.7579 11.7651 34.7739 11.772C34.7898 11.7811 34.8172 11.7856 34.8559 11.7856C34.9584 11.7902 35.0587 11.7925 35.1567 11.7925C35.2569 11.7925 35.3583 11.7925 35.4609 11.7925L35.4711 12.0078C34.9243 11.9987 34.3785 11.9668 33.8339 11.9121C33.2916 11.8597 32.7561 11.764 32.2275 11.625C32.191 11.6159 32.1648 11.6011 32.1489 11.5806C32.1329 11.5601 32.1215 11.5361 32.1147 11.5088C32.1079 11.4814 32.1044 11.4518 32.1044 11.4199C32.1044 11.388 32.1022 11.355 32.0976 11.3208C32.207 11.3573 32.3175 11.3903 32.4291 11.4199C32.5408 11.4518 32.6525 11.4826 32.7641 11.5122C32.6479 10.7603 32.5613 10.0083 32.5043 9.25635C32.4474 8.50667 32.4189 7.7513 32.4189 6.99023C32.4189 5.54329 32.5214 4.10547 32.7265 2.67676C32.6149 2.70182 32.5032 2.72689 32.3916 2.75195C32.2822 2.77474 32.1717 2.80094 32.06 2.83057C32.0646 2.78271 32.0703 2.736 32.0771 2.69043C32.0839 2.64258 32.0896 2.59473 32.0942 2.54688C32.2765 2.5013 32.4588 2.45915 32.6411 2.42041C32.8234 2.37939 33.0068 2.34294 33.1914 2.31104C33.4602 2.26546 33.7268 2.21761 33.9912 2.16748C34.2578 2.11735 34.5221 2.05013 34.7841 1.96582ZM37.4707 6.04346C37.4661 5.67432 37.4593 5.30632 37.4501 4.93945C37.4433 4.57031 37.4103 4.20231 37.351 3.83545C37.3305 3.71696 37.3066 3.59505 37.2792 3.46973C37.2542 3.34212 37.2211 3.21908 37.1801 3.10059C37.1391 2.97982 37.089 2.86589 37.0297 2.75879C36.9705 2.64941 36.8964 2.55485 36.8076 2.4751C36.721 2.39307 36.6173 2.32812 36.4965 2.28027C36.378 2.23242 36.239 2.2085 36.0795 2.2085C35.8745 2.2085 35.6967 2.25863 35.5463 2.35889C35.3982 2.45915 35.2718 2.59017 35.1669 2.75195C35.0621 2.91374 34.9755 3.09831 34.9072 3.30566C34.8411 3.51074 34.7875 3.72038 34.7465 3.93457C34.7055 4.14648 34.6748 4.35384 34.6542 4.55664C34.6337 4.75716 34.6178 4.93376 34.6064 5.08643C34.5927 5.25732 34.5813 5.42936 34.5722 5.60254C34.5631 5.77572 34.5585 5.94889 34.5585 6.12207C34.5585 6.32487 34.5654 6.52539 34.5791 6.72363C34.595 6.92188 34.6212 7.12012 34.6577 7.31836C34.6782 7.43001 34.6998 7.54281 34.7226 7.65674C34.7477 7.77067 34.7796 7.88005 34.8183 7.98486C34.857 8.08968 34.9038 8.1888 34.9584 8.28223C35.0154 8.37565 35.0849 8.45654 35.1669 8.5249C35.2513 8.59326 35.3492 8.64795 35.4609 8.68896C35.5748 8.7277 35.7093 8.74707 35.8642 8.74707C35.9781 8.74707 36.0909 8.7334 36.2026 8.70605C36.3165 8.67871 36.4236 8.63883 36.5239 8.58643C36.6264 8.53402 36.721 8.47135 36.8076 8.39844C36.8964 8.32324 36.9728 8.23779 37.0366 8.14209C37.1323 8.00081 37.2063 7.84359 37.2587 7.67041C37.3134 7.49495 37.3544 7.31494 37.3818 7.13037C37.4114 6.94352 37.4308 6.75667 37.4399 6.56982C37.4513 6.38298 37.4615 6.20752 37.4707 6.04346C37.4707 6.02295 37.4695 6.0127 37.4672 6.0127C37.4672 6.0127 37.4661 6.02409 37.4638 6.04688C37.4615 6.06966 37.4593 6.09701 37.457 6.12891C37.457 6.15853 37.4558 6.18815 37.4536 6.21777C37.4536 6.24512 37.4536 6.26449 37.4536 6.27588V6.28613C37.4558 6.28613 37.4581 6.26904 37.4604 6.23486C37.4627 6.1984 37.4661 6.1346 37.4707 6.04346ZM40.54 0.338867C40.8544 0.174805 41.1803 0.0449219 41.5175 -0.0507812C41.857 -0.146484 42.2034 -0.212565 42.5566 -0.249023C42.5908 0.0950521 42.617 0.436849 42.6352 0.776367C42.6557 1.11589 42.6728 1.45882 42.6865 1.80518C42.6888 1.84391 42.699 1.87354 42.7172 1.89404C42.7377 1.91227 42.7628 1.92708 42.7924 1.93848C42.8243 1.94759 42.8585 1.95557 42.895 1.9624C42.9314 1.96696 42.9667 1.97493 43.0009 1.98633C43.1331 2.02962 43.2607 2.08659 43.3837 2.15723C43.5091 2.22559 43.6264 2.3042 43.7358 2.39307C43.7722 2.42497 43.7996 2.45459 43.8178 2.48193C43.8361 2.50928 43.8486 2.53776 43.8554 2.56738C43.8623 2.59701 43.8657 2.63005 43.8657 2.6665C43.8657 2.70068 43.8657 2.74056 43.8657 2.78613C43.7039 2.62663 43.5239 2.50016 43.3256 2.40674C43.1297 2.31104 42.9212 2.24268 42.7001 2.20166C42.7115 2.57764 42.7207 2.95247 42.7275 3.32617C42.7343 3.69759 42.7377 4.07129 42.7377 4.44727C42.7377 4.69792 42.7355 4.94743 42.7309 5.1958C42.7286 5.44417 42.7252 5.69368 42.7207 5.94434C42.7161 6.19271 42.7047 6.44222 42.6865 6.69287C42.6705 6.94352 42.6614 7.19531 42.6591 7.44824C42.6591 7.51432 42.658 7.59635 42.6557 7.69434C42.6557 7.79004 42.6637 7.88346 42.6796 7.97461C42.6979 8.06576 42.7309 8.14437 42.7788 8.21045C42.8266 8.27425 42.8995 8.30615 42.9975 8.30615C43.0568 8.30615 43.116 8.29704 43.1752 8.27881C43.2345 8.26058 43.2915 8.23779 43.3461 8.21045C43.4031 8.18083 43.4567 8.14893 43.5068 8.11475C43.5569 8.07829 43.6048 8.04183 43.6503 8.00537C43.6686 8.03727 43.6902 8.07487 43.7153 8.11816C43.7403 8.15918 43.7529 8.19108 43.7529 8.21387C43.7529 8.24805 43.7369 8.27995 43.705 8.30957C43.6754 8.33691 43.6481 8.3654 43.623 8.39502C43.5091 8.51807 43.3894 8.63086 43.2641 8.7334C43.1388 8.83366 43.0055 8.91911 42.8642 8.98975C42.7252 9.06038 42.5771 9.11507 42.4199 9.15381C42.2626 9.19255 42.0952 9.21191 41.9174 9.21191C41.7351 9.21191 41.5756 9.19368 41.4389 9.15723C41.3022 9.12305 41.1826 9.07178 41.08 9.00342C40.9775 8.93734 40.8898 8.85531 40.8168 8.75732C40.7462 8.65934 40.6835 8.54655 40.6289 8.41895C40.5856 8.31868 40.5525 8.21615 40.5297 8.11133C40.5069 8.00651 40.4887 7.90169 40.475 7.79688C40.4637 7.68978 40.4557 7.58268 40.4511 7.47559C40.4466 7.36621 40.442 7.25798 40.4375 7.15088C40.4147 6.68604 40.3976 6.22461 40.3862 5.7666C40.3748 5.30632 40.3691 4.84375 40.3691 4.37891C40.3691 4.11003 40.3702 3.84456 40.3725 3.58252C40.3771 3.3182 40.3816 3.0516 40.3862 2.78271C40.3224 2.78727 40.2597 2.79183 40.1982 2.79639C40.1367 2.79867 40.0751 2.7998 40.0136 2.7998C39.9772 2.7998 39.9418 2.7998 39.9077 2.7998C39.8735 2.7998 39.8427 2.79867 39.8154 2.79639C39.7903 2.79183 39.7698 2.78613 39.7539 2.7793C39.7379 2.77018 39.7299 2.75879 39.7299 2.74512C39.7299 2.72461 39.7311 2.69157 39.7333 2.646C39.7379 2.59814 39.7402 2.55029 39.7402 2.50244C39.8199 2.50244 39.8997 2.50016 39.9794 2.49561C40.0592 2.49105 40.1367 2.48421 40.2119 2.4751C40.246 2.47282 40.2745 2.47168 40.2973 2.47168C40.3201 2.47168 40.3395 2.4694 40.3554 2.46484C40.3714 2.46029 40.3828 2.45003 40.3896 2.43408C40.3964 2.41813 40.401 2.39079 40.4033 2.35205C40.4215 2.01481 40.4409 1.67985 40.4614 1.34717C40.4842 1.01221 40.5104 0.676107 40.54 0.338867Z" transform="translate(247.896 194.728)" fill="white"/>
<path d="M3.84306 71.2471C0.172378 69.4073 -2.55589 11.2628 3.84305 2.25549C6.4297 -1.38555 68.6153 -0.0442234 71.5213 2.25549C75.1537 5.13014 76.492 67.4142 73.6243 71.2471C70.7565 75.0799 8.43141 73.5468 3.84306 71.2471Z" transform="translate(247.17 54.8582)" fill="#F2F2F2"/>
<ellipse cx="36.5156" cy="22.9971" rx="36.5156" ry="22.9971" transform="translate(248.719 72.8286)" fill="white"/>
<path d="M0.139059 0C0.139059 15.0289 -2.69851 24.0266 17.2623 24.0592C37.0927 24.0918 35.5271 15.6483 35.5271 0C23.7528 0 11.946 0 0.139059 0Z" transform="translate(267.398 79.8306)" fill="#D08738"/>
<path d="M16.3405 6.61791C10.698 6.61791 5.02282 5.34649 0 2.77105C0 2.05383 0 1.36922 0 0.652011C11.122 6.32451 24.3313 5.41169 35.3554 0C35.3554 0.652011 35.3554 1.30402 35.3554 1.92343C29.5172 4.79228 22.8962 6.61791 16.3405 6.61791Z" transform="translate(267.569 87.0027)" fill="#D4145A"/>
<path d="M16.3405 6.71571C10.698 6.71571 5.02282 5.37909 0 2.83625C0 2.11904 0 1.43442 0 0.717213C11.1546 6.38971 24.3639 5.41169 35.3554 2.48722e-07C35.3554 0.684612 35.3554 1.33662 35.3881 2.02123C29.5172 4.89008 22.8962 6.71571 16.3405 6.71571Z" transform="translate(267.569 83.645)" fill="#D4145A"/>
<path d="M1.94405e-09 16.9523C2.80495 14.279 14.0248 0 17.7756 0C21.7547 0 32.3874 14.0834 35.3881 16.9523C24.103 22.4618 11.2198 22.9834 1.94405e-09 16.9523Z" transform="translate(267.536 62.8782)" fill="white"/>
<path d="M4.72945 2.39071C4.72945 7.7698 -0.0324484 2.39071 0.000167282 2.39071C-0.0324484 2.39071 4.72945 -2.98838 4.72945 2.39071Z" transform="translate(282.866 68.5725)" fill="#D4145A"/>
<path d="M4.72945 2.39071C4.72945 7.7698 -0.0324492 2.39071 0.000166536 2.39071C-0.0324492 2.39071 4.72945 -2.98838 4.72945 2.39071Z" transform="translate(275.821 75.6794)" fill="#D4145A"/>
<path d="M4.72945 2.39071C4.72945 7.7698 -0.0324489 2.39071 0.000166785 2.39071C-0.0324489 2.39071 4.72945 -2.98838 4.72945 2.39071Z" transform="translate(289.911 75.0928)" fill="#D4145A"/>
<path d="M1.14709 39.0952L2.67654 25.8718L0 1.3415L5.1619 0C6.26809 4.58328 7.14386 11.8442 7.59664 16.9121C7.63908 12.4297 7.94938 6.38384 8.60316 2.683H13.0003L12.4268 28.9381C10.8973 28.427 7.83844 27.5583 7.83844 28.1715C7.83844 28.7848 7.07371 38.9035 6.50017 44.2695L0.382363 43.8862L1.14709 39.0952Z" transform="translate(306.59 19.7585)" fill="#F2C94C"/>
</svg>
