<svg width="27" height="24" viewBox="0 0 27 24" fill="none" xmlns="http://www.w3.org/2000/svg">
<path d="M0.886919 8.84555C-0.295673 8.84555 -0.295609 11.2384 0.886928 11.2384H1.67525L2.85772 22.006C3.13681 23.3085 3.25188 24 4.82852 24H21.7774C22.9599 24 23.5137 23.4758 23.7482 22.006L25.3249 11.2384H26.1132C27.2956 11.2384 27.2956 8.84555 26.1132 8.84555H22.1716L17.8358 0.869516C17.0474 -0.725675 14.6825 0.071926 15.4708 1.66713L19.0183 8.84555H7.9818L11.5292 1.66712C12.3175 0.0719194 9.95255 -0.725672 9.16423 0.869522L4.82852 8.84555H0.886919Z" fill="white"/>
<path d="M0 1C0 0.447715 0.447715 0 1 0H1.36496C1.91725 0 2.36496 0.447715 2.36496 1V9.36883C2.36496 9.92112 1.91725 10.3688 1.36496 10.3688H1C0.447715 10.3688 0 9.92112 0 9.36883V1Z" transform="translate(6.40503 11.2384)" fill="#2D2D2D"/>
<path d="M0 1C0 0.447715 0.447715 0 1 0H1.36496C1.91725 0 2.36496 0.447715 2.36496 1V9.36883C2.36496 9.92112 1.91725 10.3688 1.36496 10.3688H1C0.447715 10.3688 0 9.92112 0 9.36883V1Z" transform="translate(10.3467 11.2384)" fill="#2D2D2D"/>
<path d="M0 1C0 0.447715 0.447715 0 1 0H1.36496C1.91725 0 2.36496 0.447715 2.36496 1V9.36883C2.36496 9.92112 1.91725 10.3688 1.36496 10.3688H1C0.447715 10.3688 0 9.92112 0 9.36883V1Z" transform="translate(14.2883 11.2384)" fill="#2D2D2D"/>
<path d="M0 1C0 0.447715 0.447715 0 1 0H1.36496C1.91725 0 2.36496 0.447715 2.36496 1V9.36883C2.36496 9.92112 1.91725 10.3688 1.36496 10.3688H1C0.447715 10.3688 0 9.92112 0 9.36883V1Z" transform="translate(18.23 11.2384)" fill="#2D2D2D"/>
</svg>
