<svg width="360" height="3028" viewBox="0 0 360 3028" fill="none" xmlns="http://www.w3.org/2000/svg">
<path d="M215.799 39.412C191.835 11.8394 147.897 21.5711 116.625 4.30653C90.0312 -10.3757 53.1673 15.8039 16.5079 33.0963C-20.1516 50.3887 15.7455 33.3933 15.3644 33.5418V224.208C15.3644 227.051 16.5079 263 16.5079 263C16.5079 263 68.1062 213.243 104.568 203.182C155.622 189.095 196.799 239.062 230.446 171.663C253.354 125.775 246.402 74.623 215.799 39.412Z" transform="translate(376 263) rotate(180)" fill="#E0E0E0"/>
<path d="M262.828 75.1963C234.055 48.5839 210.048 43.2657 173.047 30.3254C132.872 16.275 117.582 -15.3516 66.1998 8.83958C14.8176 33.0308 65.1313 9.25505 64.5971 9.46279C64.5971 9.46279 76.72 106.767 24.0126 182.198C-28.6948 257.628 14.4528 299.929 66.1998 331.395C114.251 360.612 156.765 332.692 208.849 311.606C257.77 291.801 299.156 283.022 318.656 232.838C338.156 182.655 310.781 119.548 262.828 75.1963Z" transform="translate(-180 691) rotate(-90)" fill="#E0E0E0"/>
<path d="M255.598 46.7549C227.215 14.0452 175.173 25.5901 138.134 5.10889C106.635 -12.3089 62.9728 18.7484 19.5523 39.2625C-23.8681 59.7767 18.6494 39.6149 18.198 39.791V265.981C18.198 269.353 19.5523 312 19.5523 312C19.5523 312 80.6667 252.973 123.853 241.038C184.323 224.325 233.094 283.603 272.946 203.646C300.079 149.208 291.845 88.5262 255.598 46.7549Z" transform="translate(-23 1241)" fill="#E0E0E0"/>
<path d="M245.559 70.2783C218.676 45.4064 196.246 40.436 161.677 28.3421C124.142 15.2106 109.856 -14.3476 61.8501 8.26145C13.844 30.8705 60.8518 8.64975 60.3527 8.8439C60.3527 8.8439 71.6791 99.7845 22.4349 170.282C-26.8094 240.779 13.5032 280.313 61.8501 309.721C106.744 337.027 146.465 310.933 195.127 291.226C240.833 272.716 279.5 264.511 297.718 217.61C315.937 170.709 290.361 111.729 245.559 70.2783Z" transform="translate(531.505 1769.15) rotate(140.801)" fill="#E0E0E0"/>
<path d="M285.98 42.6436C256.681 9.05945 213.385 28.4209 175.152 7.39217C142.637 -10.4912 65.0039 7.08353 20.183 28.1461C-24.6379 49.2086 19.251 28.5078 18.7849 28.6887V260.925C18.7849 264.388 18.8299 308 18.8299 308C18.8299 308 83.2686 247.569 127.848 235.315C190.269 218.156 272.187 324.66 313.324 242.566C341.333 186.673 323.396 85.5315 285.98 42.6436Z" transform="translate(380 2351) scale(-1 1)" fill="#E0E0E0"/>
<path d="M250.985 66.2715C178.867 12.5585 123.251 -2.32583e-05 16.504 0L1.47871 252.067C-7.26737 332.8 23.9046 233.47 65.3924 233.47C115.364 233.47 193.353 233.47 193.353 233.47C193.353 233.47 280.353 234.334 296.117 193.752C311.881 153.17 293.341 97.8173 250.985 66.2715Z" transform="translate(-59 1998.84) rotate(-8.54847)" fill="#E0E0E0"/>
<path d="M291.076 76.8571C207.438 14.5645 142.938 -2.69734e-05 19.1403 0L1.71491 292.33C-8.42821 385.958 27.7229 270.762 75.8377 270.762C133.792 270.762 224.238 270.762 224.238 270.762C224.238 270.762 325.135 271.764 343.416 224.7C361.698 177.637 340.196 113.442 291.076 76.8571Z" transform="translate(453.104 1041.79) rotate(165)" fill="#E0E0E0"/>
<path d="M307.205 232.52C304.566 305.625 417.38 311.767 469 327H42.682L3.45856 81.1462C-0.291708 76.5057 -0.685172 70.4145 0.820599 64.6114L3.45856 81.1462C14.4198 94.7096 54.0571 95.8809 158.764 41.2479C334.427 -50.4084 474.657 24.2269 437.925 132.904C417.377 193.698 309.519 168.391 307.205 232.52Z" transform="translate(-279 2701)" fill="#E0E0E0"/>
</svg>
