<svg width="280" height="285" viewBox="0 0 280 285" fill="none" xmlns="http://www.w3.org/2000/svg">
<g opacity="0.8">
<path d="M2.87338 0C-3.40977 9.43546 1.13183 16.7505 11.4444 15.7662C12.2981 4.19246 13.6981 3.80134 2.87338 0Z" transform="translate(217.648 157.778)" fill="#ECBB9B"/>
<path d="M0.252934 3.1229C-1.59103 10.9971 7.25317 4.7181 7.21903 4.7181C7.25317 4.75204 2.0969 -4.7513 0.252934 3.1229Z" transform="translate(209.956 129.896)" fill="#FBCAA9"/>
<path d="M-1.0421e-06 1.39786C0.648802 4.07916 1.84397 4.35069 3.61964 2.21244C2.97083 -0.434924 1.77567 -0.706448 -1.0421e-06 1.39786Z" transform="translate(211.883 131.994)" fill="#D8A68B"/>
<path d="M0.284396 3.63381C-1.55957 11.508 6.12366 7.68887 7.25049 5.22902C8.37731 2.76916 2.12836 -4.24039 0.284396 3.63381Z" transform="translate(244.447 137.361)" fill="#FBCAA9"/>
<path d="M1.0421e-06 1.42299C0.648804 4.10429 1.84396 4.37582 3.61963 2.23756C2.97083 -0.443737 1.74152 -0.715262 1.0421e-06 1.42299Z" transform="translate(246.404 139.979)" fill="#D8A68B"/>
<path d="M9.06863 46.527C20.3373 51.5842 29.523 43.1669 33.8256 33.6975C36.0452 28.844 39.4941 19.8837 39.699 14.589C40.0404 5.22142 39.7672 6.8845 29.8986 4.50867C16.4786 1.28432 6.26853 -5.97895 2.71719 9.73551C-0.458532 23.5154 -3.25863 36.4806 9.06863 46.527Z" transform="translate(212.306 114.968)" fill="#FBCAA9"/>
<path d="M11.337 3.91718C10.4491 2.96684 3.17557 -0.580736 0 0.0818995C0.887835 1.03223 6.59032 3.15267 11.337 3.91718Z" transform="translate(235.272 130.866)" fill="#2D2D2D"/>
<path d="M11.815 2.08769C8.70762 -0.525729 4.37068 -0.034442 0 0.187021C1.12672 0.983828 6.07804 1.32323 11.815 2.08769Z" transform="translate(218.199 127.944)" fill="#2D2D2D"/>
<path d="M-1.0421e-06 1.26415C0.580507 3.67393 1.67323 3.91151 3.24401 2.01084C2.66351 -0.398936 1.57078 -0.636521 -1.0421e-06 1.26415Z" transform="translate(238.003 136.879)" fill="#2D2D2D"/>
<path d="M-2.0842e-06 1.26415C0.580506 3.67392 1.67323 3.91151 3.24401 2.01084C2.6635 -0.398936 1.57078 -0.636521 -2.0842e-06 1.26415Z" transform="translate(221.17 133.01)" fill="#2D2D2D"/>
<path d="M-1.0421e-06 0.840832C0.409769 2.46998 1.12687 2.63968 2.18544 1.34994C1.80982 -0.279205 1.09272 -0.414967 -1.0421e-06 0.840832Z" transform="translate(230.834 144.532)" fill="#D8A68B"/>
<path d="M1.0421e-06 0.829726C0.409771 2.45887 1.12687 2.62857 2.18544 1.33883C1.80982 -0.256371 1.09272 -0.426074 1.0421e-06 0.829726Z" transform="translate(226.259 143.491)" fill="#D8A68B"/>
<path d="M0.093415 0.756261C5.1814 8.22318 8.73274 9.30927 16.1086 4.45578C16.655 4.08243 16.1428 3.26786 15.5622 3.60727C10.5084 6.59403 4.15697 5.13459 0.947103 0.247153C0.57148 -0.329836 -0.282208 0.213212 0.093415 0.756261Z" transform="translate(219.848 148.045)" fill="#D8A68B"/>
<path d="M30.3401 18.4475C23.8521 17.1578 10.3297 17.2596 5.17338 13.4243C-1.10977 8.77444 -2.91959 2.63121 6.9149 0.153548C10.637 -0.796787 26.0717 2.90273 29.6913 4.70158C33.4817 6.56831 38.1599 5.68585 37.5452 12.1685C37.2038 15.7662 34.5402 19.296 30.3401 18.4475Z" transform="translate(212.036 109.412)" fill="#2D2D2D"/>
<path d="M5.2991 14.2798C-2.69142 11.3269 -1.56455 -1.74015 8.13335 0.19446C17.4556 2.02725 14.5872 16.1126 5.2991 14.2798Z" transform="translate(245.58 118.637)" fill="#2D2D2D"/>
<path d="M43.1807 77.8008C33.5511 77.8008 19.1067 80.6179 10.0235 77.8008C0.803667 74.9498 2.6135 78.192 2.40861 68.451C2.13543 55.6894 -4.9331 8.61391 6.50632 1.55428C11.1162 -1.29672 32.8341 0.434247 38.3318 1.55428C48.1321 3.52283 46.9028 5.05016 47.415 14.7911C47.7907 22.1562 51.3761 77.8008 43.1807 77.8008Z" transform="translate(198.034 167.543)" fill="#F2C94C"/>
<path d="M0 12.4352C0 12.4352 5.31909 18.7155 9.20291 22.2619C18.2805 30.5507 29.6352 43.662 35.9459 38.9053C37.9927 28.8824 31.2231 23.4078 31.2231 23.4078L19.6366 14.8357C19.6366 14.8357 11.9734 9.27545 7.06123 0C4.70748 4.14507 0 12.4352 0 12.4352Z" transform="matrix(-0.930105 -0.36786 0.371587 -0.928172 263.493 222.554)" fill="white"/>
<path d="M46.2597 11.0148C42.2833 24.2122 45.0463 24.7605 41.0699 37.9578C29.0917 33.5527 10.6351 42.6723 0 28.8482C4.07579 24.9238 8.61341 24.0381 14.9004 23.1813C24.6173 22.6153 26.9169 23.3158 33.1431 23.0688C36.2698 13.0429 33.9906 10.0259 37.1174 0C40.1422 3.64888 43.2009 7.33186 46.2597 11.0148Z" transform="matrix(-0.473411 0.880842 -0.883223 -0.468953 228.756 183.185)" fill="white"/>
<ellipse cx="29.0263" cy="18.1392" rx="29.0263" ry="18.1392" transform="translate(160.08 194.603)" fill="white"/>
<path d="M0 5.02534V-1.7547e-07H33.233V4.61135C33.6366 5.08284 31.5264 7.61275 26.8793 8.09574C23.4545 8.44073 23.1663 11.8101 13.2148 12.2931C3.79378 12.7531 0.172969 5.54282 0 5.02534Z" transform="translate(172.115 206.807)" fill="#CC5F4E"/>
<path d="M14.7679 0C9.92481 0 0.699818 4.94484 0.123256 6.43979C-0.453306 7.93474 0.584505 17.0195 12.2311 17.2494C23.8776 17.4794 23.1857 12.9946 26.991 12.7646C30.7963 12.5346 35.1782 7.58976 32.2954 5.57732C29.4126 3.56489 21.3407 0.114996 18.7693 0.195494C16.1978 0.275991 14.7679 0 14.7679 0Z" transform="translate(172.118 199.723)" fill="#BA4922"/>
<path d="M13.3664 17.8359C13.0896 17.8359 12.8129 17.8359 12.5131 17.8244C6.26314 17.6979 3.1843 15.0415 1.69677 12.8451C-0.0559748 10.2462 -0.182818 7.46326 0.140056 6.62379C0.509056 5.66932 3.44952 3.90987 6.00946 2.69091C7.70455 1.87444 11.9826 0 15.0615 0H15.1191C15.1307 0 16.549 0.264491 19.0513 0.183994C21.8072 0.114996 29.9368 3.66838 32.7504 5.63482C33.6844 6.2788 34.0073 7.27926 33.6844 8.44073C33.0156 10.7982 29.9137 13.1786 27.3076 13.3396C26.0623 13.4201 25.3243 13.9835 24.3902 14.708C22.6721 16.0305 20.3543 17.8359 13.3664 17.8359ZM15.0269 0.574981C12.9397 0.586481 9.74558 1.54095 6.25161 3.2084C3.05746 4.73785 0.901118 6.2443 0.682024 6.83078C0.439868 7.46326 0.520587 10.0737 2.16955 12.5231C3.57636 14.616 6.51683 17.1344 12.5246 17.2494C19.9738 17.3989 22.3146 15.582 24.0212 14.2595C24.9899 13.5006 25.8316 12.8566 27.2615 12.7646C29.8561 12.6036 32.589 10.1887 33.1194 8.27973C33.3846 7.34826 33.1425 6.61229 32.416 6.0948C29.4294 4.01337 21.4844 0.689978 19.0628 0.770475C16.6528 0.839473 15.246 0.60948 15.0269 0.574981Z" transform="translate(171.825 199.436)" fill="#CE7B6F"/>
<path d="M3.77071 4.11687C5.85322 4.11687 7.54143 3.19528 7.54143 2.05843C7.54143 0.921592 5.85322 0 3.77071 0C1.68821 0 0 0.921592 0 2.05843C0 3.19528 1.68821 4.11687 3.77071 4.11687Z" transform="translate(179.114 205.737)" fill="#EFC0AF"/>
<path d="M6.85186 0C6.85186 0 4.83389 1.09246 4.08436 2.01244C3.33483 2.93241 -0.470473 10.1772 0.0484323 10.8097C0.567338 11.4421 2.67755 7.27927 4.21121 4.57685C5.74486 1.87444 6.85186 0 6.85186 0Z" transform="translate(185.327 202.655)" fill="#CC5F4E"/>
<path d="M6.85186 -8.77352e-08C6.85186 -8.77352e-08 4.83389 1.09246 4.08436 2.01244C3.33483 2.93241 -0.470474 10.1772 0.0484319 10.8097C0.567338 11.4421 2.67755 7.27927 4.21121 4.57685C5.73333 1.87444 6.85186 -8.77352e-08 6.85186 -8.77352e-08Z" transform="translate(190.943 204.415)" fill="#CC5F4E"/>
<path d="M0 10.8741C0 10.8741 2.01797 9.78167 2.7675 8.8617C3.51703 7.94173 7.32233 0.696966 6.80343 0.0644865C6.28452 -0.567993 4.17431 3.59487 2.65218 6.29729C1.13006 8.9997 0 10.8741 0 10.8741Z" transform="translate(187.508 203.396)" fill="#CC5F4E"/>
<path d="M5.30669 0L0 4.24233V1.96965L5.30669 0Z" transform="matrix(0.754405 0.65641 -0.660395 0.750918 175.309 218.103)" fill="#66CC33"/>
<path d="M5.30689 0L0 4.24217V1.96958L5.30689 0Z" transform="matrix(0.759221 -0.650832 0.654836 0.755771 194.021 223.593)" fill="#66CC33"/>
<path d="M5.08645 0L0 4.05848V1.8843L5.08645 0Z" transform="matrix(0.864822 0.502078 -0.506096 0.862477 186.145 198.836)" fill="#66CC33"/>
<path d="M5.0791 0L0 4.06437V1.88703L5.0791 0Z" transform="translate(170.655 214.508) scale(1.00271 0.997278) rotate(-135.439)" fill="#66CC33"/>
<path d="M5.31153 0L0 4.23845V1.96785L5.31153 0Z" transform="matrix(0.859998 0.510297 -0.514335 0.857589 210.201 211.654)" fill="#66CC33"/>
<ellipse cx="30.3532" cy="18.9879" rx="30.3532" ry="18.9879" transform="translate(219.155 201.392)" fill="white"/>
<path d="M0.266313 0C0.932097 0.175816 2.37019 0.501077 2.79629 0.395587C3.22239 0.290097 3.24015 1.40653 3.19576 1.97793C2.57436 2.1098 1.19841 2.34715 0.665783 2.24166C0.153791 2.14026 0.0109166 2.19319 0.000615018 2.23648L0 2.24166C0 2.23996 0.000199845 2.23823 0.000615018 2.23648L0.266313 0Z" transform="matrix(0.998121 0.0612784 -0.0618083 0.998088 239.693 211.066)" fill="#F2CF52"/>
<ellipse cx="1.86419" cy="3.16469" rx="1.86419" ry="3.16469" transform="matrix(0.998121 0.0612784 -0.0618083 0.998088 236.392 208.354)" fill="#D1AA1F"/>
<path d="M19.7794 0L20.7036 4.35223L1.12966 8.41569L0 7.07495C6.55204 4.22847 13.1246 1.75327 19.7794 0Z" transform="translate(238.755 207.088)" fill="#F18556"/>
<path d="M5.77155 6.06425C7.7844 6.60054 9.63294 6.43553 11.1939 4.9504C26.2082 -1.19635 37.4021 -0.536293 43.379 7.23997L37.6896 8.23005L43.5433 9.05511C36.4573 16.1507 26.66 18.8734 10.3724 11.1178C9.26323 10.3958 7.76386 10.2721 5.75101 10.9115C5.3813 11.0353 5.07321 11.2828 4.9089 11.6334C3.82031 13.7167 2.05393 15.5525 0 17.3264L2.36202 8.35381L0 -1.57369e-07C1.95123 1.58825 3.59438 3.34152 4.82674 5.36294C5.05267 5.69296 5.3813 5.96111 5.77155 6.06425Z" transform="translate(228.691 210.553)" fill="#F6AF8F"/>
<path d="M2.26748 4.06346C3.3766 2.61959 4.5268 1.36136 5.69754 0.226894L1.79507 6.29476e-07C1.0762 0.268148 0.501095 0.721933 0.0492297 1.32011C-0.0740062 1.77389 0.028691 2.20706 0.418938 2.61959L2.26748 4.06346Z" transform="translate(251.235 226.126)" fill="#E47C59"/>
<path d="M5.25806 3.73343L7.39415 2.33081L1.76638 3.14738e-07C0.821572 0.433161 0.102697 0.886948 1.56703e-07 1.42324C1.58153 2.41332 3.30683 3.17651 5.25806 3.73343Z" transform="translate(237.564 221.815)" fill="#E07853"/>
<path d="M1.42922 13.593L0.258477 9.05511C-0.111231 7.56999 -0.0906918 6.02299 0.361173 4.5585L1.75785 7.86845e-08C5.86571 1.09321 8.94661 3.03212 10.9595 5.85798L5.27007 6.84806L11.1238 7.67313C9.152 9.96269 4.94144 12.6648 1.42922 13.593Z" transform="translate(261.09 211.955)" fill="#EF885F"/>
<path d="M1.29398 2.59896C2.00862 2.59896 2.58795 2.01716 2.58795 1.29948C2.58795 0.581798 2.00862 0 1.29398 0C0.579333 0 0 0.581798 0 1.29948C0 2.01716 0.579333 2.59896 1.29398 2.59896Z" transform="translate(262.827 213.935)" fill="#212121"/>
<path d="M0.266313 0C0.932097 0.175816 2.37019 0.501077 2.79629 0.395587C3.22239 0.290097 3.24015 1.40653 3.19576 1.97793C2.57436 2.1098 1.19841 2.34715 0.665783 2.24166C0.153791 2.14026 0.0109166 2.19319 0.000615018 2.23648L0 2.24166C0 2.23996 0.000199845 2.23823 0.000615018 2.23648L0.266313 0Z" transform="matrix(0.998121 0.0612784 -0.0618083 0.998088 247.321 227.206)" fill="#F2CF52"/>
<ellipse cx="1.86419" cy="3.16469" rx="1.86419" ry="3.16469" transform="matrix(0.998121 0.0612784 -0.0618083 0.998088 244.02 224.493)" fill="#D1AA1F"/>
<path d="M0.305855 0C1.07049 0.202207 2.72211 0.576291 3.21148 0.454966C3.70085 0.333642 3.72124 1.61766 3.67026 2.27483C2.9566 2.42649 1.37635 2.69947 0.764638 2.57814C0.176626 2.46152 0.0125375 2.5224 0.00070633 2.57219L0 2.57814C0 2.57618 0.000229516 2.57419 0.00070633 2.57219L0.305855 0Z" transform="matrix(-0.9131 0.407735 -0.410679 -0.91178 262.788 230.441)" fill="#F2CF52"/>
<ellipse cx="2.14099" cy="3.63973" rx="2.14099" ry="3.63973" transform="matrix(-0.9131 0.407735 -0.410679 -0.91178 267.602 231.447)" fill="#D1AA1F"/>
<path d="M5.55172 0L0 4.43883V2.06088L5.55172 0Z" transform="matrix(0.754072 0.656791 -0.660015 0.751253 232.256 224.493)" fill="#66CC33"/>
<path d="M5.5519 0L0 4.43869V2.06082L5.5519 0Z" transform="matrix(0.758893 -0.651216 0.654453 0.756102 237.907 231.906)" fill="#66CC33"/>
<path d="M5.32035 0L0 4.24724V1.97193L5.32035 0Z" transform="matrix(0.864599 0.502462 -0.505712 0.862703 246.412 205.822)" fill="#66CC33"/>
<path d="M5.55582 0L0 4.43554V2.05936L5.55582 0Z" transform="matrix(0.859769 0.510683 -0.513948 0.857821 269.746 222.595)" fill="#66CC33"/>
</g>
<path d="M17.1868 34.4221C36.7645 31.4785 21.7047 -30.8929 7.25854 19.7595C6.58922 16.5382 4.80436 14.0945 1.95975 12.4838C-5.40279 16.7604 9.82427 36.4215 17.1868 34.4221Z" transform="translate(133.326 122.489)" fill="#FDCCAB"/>
<path d="M8.51087e-07 0.833102C0.613546 4.60982 10.9323 15.8289 15.0597 15.7178C18.9641 15.6623 28.8366 3.66564 30.4541 1.69495e-06C20.3028 0.277702 10.1514 0.555402 8.51087e-07 0.833102Z" transform="translate(62.6648 129.53)" fill="#EEBD9D"/>
<path d="M37.6493 1.99944C26.3824 3.66564 12.5498 42.2659 9.25895 52.4853C3.29083 70.758 1.67331 98.528 8.51087e-07 117.745C31.4581 117.745 62.972 117.745 94.4301 117.745C89.9122 96.9173 85.4501 76.0343 80.9322 55.2068C77.3624 38.7114 76.5816 14.607 68.1035 0C65.7609 2.27714 56.5577 14.4959 53.1553 14.607C49.5298 14.7181 40.6055 4.38766 37.6493 1.99944Z" transform="translate(25.0146 131.029)" fill="#D54342"/>
<path d="M13.1677 17.8563C13.5582 13.2465 12.2195 -2.13809 4.13189 0.25013C-5.68483 3.19375 4.02034 20.7999 12.2195 18.9116C9.93268 17.6342 -2.00356 4.47117 4.18767 3.24929C8.03627 2.52727 12.5542 16.5789 13.1677 17.8563Z" transform="translate(15.2495 217.644)" fill="#212221"/>
<path d="M15.1358 6.06525C18.4267 0.0669313 -1.37411 -3.20994 0.0760889 4.56567C5.04023 5.62093 10.0601 6.12079 15.1358 6.06525Z" transform="translate(139.951 154.123)" fill="white"/>
<path d="M30.9561 92.1964C48.3585 82.0326 62.0796 63.4267 64.478 43.1546C65.2031 37.2118 66.2071 32.0466 60.7967 27.9366C49.9203 19.6056 40.996 27.77 36.4223 36.4342C30.5099 26.7703 13.0518 0.555402 3.40435e-06 1.69495e-06C10.3187 30.7136 20.6374 61.4828 30.9561 92.1964Z" transform="translate(94.011 132.029)" fill="#D54342"/>
<path d="M75.1662 3.8878C73.8833 18.1616 87.4929 26.7703 94.0745 37.6006C101.66 50.0415 97.4211 58.7613 97.5327 72.0909C97.7558 96.4175 112.831 139.223 111.561 142.004C105.984 154.223 10.3265 161.443 0.565492 142.004C-2.5149 135.869 7.00693 71.3689 28.7041 38.9891C34.728 30.0471 37.2937 26.437 36.736 14.4404C35.5647 -9.38626 40.6403 8.8864 43.2619 20.5498C45.3814 29.7694 50.7359 54.4847 66.2977 39.9888C74.218 32.6575 70.0347 9.27518 70.5367 0C72.6562 1.61066 75.5566 3.16579 77.3415 5.10969" transform="translate(23.1401 130.974)" fill="#2D2D2D"/>
<path d="M14.9482 0C9.98405 4.88752 4.96413 9.71949 -1.70217e-06 14.607C9.59361 19.2724 16.5657 8.0533 14.9482 0Z" transform="translate(78.1704 131.029)" fill="white"/>
<path d="M7.13944 44.2654C4.74103 29.4917 2.3984 14.7181 1.70217e-06 3.38989e-06C4.40637 10.6637 7.92031 32.602 7.13944 44.2654Z" transform="translate(107.509 216.061)" fill="#595959"/>
<path d="M8.36652 5.20688C8.36652 12.1494 0 12.1494 0 5.20688C0 -1.73562 8.36652 -1.73562 8.36652 5.20688Z" transform="translate(33.1587 214.798)" fill="white"/>
<path d="M25.2669 3.99887C16.8446 3.99887 8.36652 3.49901 -8.51087e-07 2.61037C0.055776 2.05497 0.111554 1.49957 0.167331 0.944173C18.6852 2.94361 37.5378 2.94362 55.9441 3.38989e-06C56.0557 0.555403 56.1115 1.1108 56.223 1.6662C46.0159 3.27686 35.6414 3.99887 25.2669 3.99887Z" transform="translate(51.8999 214.395)" fill="white"/>
<path d="M0.477346 45.2096C-1.02863 31.4912 1.42555 14.5515 2.37376 3.38989e-06C3.48929 13.8295 1.09089 30.547 0.477346 45.2096Z" transform="translate(50.0281 217.45)" fill="#595959"/>
<path d="M3.09051 11.0139C8.61242 12.1803 10.7877 1.62767 5.37736 0.12809C-0.0329902 -1.31595 -2.31984 9.90314 3.09051 11.0139Z" transform="translate(36.2598 206.214)" fill="white"/>
<path d="M0.257816 3.38989e-06C5.44506 4.1655 10.5765 8.38655 15.7638 12.552C6.72792 18.8836 -1.58282 9.27519 0.257816 3.38989e-06Z" transform="translate(62.4065 133.029)" fill="white"/>
<path d="M1.70217e-06 0C0.223109 2.11052 0.223104 6.77588 3.40238 7.16466C4.12748 5.72062 4.74103 1.99945 4.85258 0.388787C3.23506 0.277707 1.61753 0.11108 1.70217e-06 0Z" transform="translate(72.927 244.886)" fill="#EEBD9D"/>
<path d="M2.67729 9.66395C2.67729 9.66395 14.8924 14.607 18.0717 17.384C21.251 20.161 27.8884 9.1641 27.8884 9.1641L7.13943 -3.38989e-06L8.51087e-07 5.554L2.67729 9.66395Z" transform="translate(67.9634 239.555)" fill="#5AA32B"/>
<path d="M3.40238 10.3304C3.40238 10.3304 16.3426 12.8853 20.0239 14.9958C23.6494 17.1063 28.0557 5.05414 28.0557 5.05414L5.91234 -3.38989e-06L0 6.83143L3.40238 10.3304Z" transform="translate(64.9517 237.611)" fill="#66CA33"/>
<path d="M2.67729 9.66396C2.67729 9.66396 14.8924 14.607 18.0717 17.384C21.251 20.161 27.8884 9.1641 27.8884 9.1641L7.13943 3.38989e-06L8.51087e-07 5.554L2.67729 9.66396Z" transform="translate(62.9436 242.443)" fill="#64BC31"/>
<path d="M9.74194 3.38989e-06C15.5985 1.72174 20.228 5.66509 23.4073 10.8858C12.4192 11.0525 25.0248 25.8261 9.01684 23.4379C-6.15445 21.1607 0.427207 8.10884 9.74194 3.38989e-06Z" transform="translate(54.4841 228.28)" fill="#FDCCAB"/>
<path d="M0.166041 16.6764C4.23775 21.2862 15.9509 3.68005 14.4449 1.68061C8.42101 -5.98391 -1.39571 14.9547 0.166041 16.6764Z" transform="translate(49.8372 224.656)" fill="white"/>
<path d="M57.0868 0C40.0749 0.5554 18.3777 22.8269 8.28209 34.768C-6.94498 52.763 0.752217 69.6472 15.812 83.921C25.1825 92.7518 46.3777 114.024 57.9792 98.1392C70.1386 81.4772 44.0908 60.6497 32.7681 51.9854C47.3259 38.3226 61.8278 21.1052 57.0868 0Z" transform="translate(0 134.64)" fill="#E54848"/>
<path d="M13.1076 2.07365C5.13147 3.68431 6.35856 13.3483 2.12772e-07 13.4593C1.4502 8.84953 12.996 -5.25763 13.1076 2.07365Z" transform="translate(13.4141 236.203)" fill="#2D2D2D"/>
<path d="M7.47409 27.1676C2.34263 18.2257 0.223106 27.7785 -8.51087e-07 31.5553C1.00398 34.6655 3.1235 36.6094 6.35856 37.3314C6.0239 41.3303 6.13545 45.3292 6.74899 49.2725C9.70516 60.8804 19.9681 66.4344 31.7928 67.3786C49.3625 68.8226 59.2908 59.8251 63.976 44.5516C63.5856 45.829 68.3824 28.7227 68.5497 31.2776C68.215 25.3903 65.4262 20.2251 62.2469 28.6116C61.5218 23.3909 62.4143 10.5056 59.2908 6.50672C57.3386 3.95188 39.2111 -0.213623 35.8645 0.00853725C30.6772 0.341777 17.4024 5.45145 13.6095 9.06155C8.64541 13.6714 8.81274 19.7252 7.47409 27.1676Z" transform="translate(42.9753 66.2615)" fill="#FDCCAB"/>
<path d="M-1.70217e-06 6.11861C0.334659 2.61959 4.40637 -2.21239 10.2072 1.12001C6.52589 0.397989 2.3984 1.78649 -1.70217e-06 6.11861Z" transform="translate(63.668 78.4795)" fill="#3A3A3A"/>
<path d="M10.5976 3.60399C7.6972 0.660373 2.62151 1.10469 1.70217e-06 1.82671C4.74103 -1.89447 9.42628 0.771453 10.5976 3.60399Z" transform="translate(82.4094 78.606)" fill="#3A3A3A"/>
<path d="M7.97059 43.1128C19.4606 38.5585 28.6638 29.8387 35.0223 19.3416C42.9984 28.9501 53.6518 35.5593 62.353 44.3902C69.3809 31.6715 72.839 13.2878 59.0064 3.51275C51.0303 -2.0968 46.5682 0.346966 36.6399 1.79101C29.5562 2.79073 17.9546 2.23533 11.5403 5.40111C-3.57521 13.0101 -2.85011 32.0603 7.97059 43.1128Z" transform="translate(42.8694 50.4272)" fill="#EEF0EF"/>
<path d="M32.1508 71.004C38.667 68.5647 50.7844 68.0186 67.0019 68.856C87.649 68.6375 102.329 67.7638 101.231 65.0696C100.132 57.5697 99.327 52.0357 99.7663 49.0867C105.075 47.5576 109.87 44.7542 113.897 39.8756C120.999 39.1111 125.795 36.162 127.186 29.8271C127.662 16.4656 120.596 10.0943 106.246 10.422C104.525 4.66957 98.5948 2.48512 88.3445 4.08705C79.4121 -1.59252 70.8091 -1.62893 62.6089 5.72538C50.9308 -3.44931 32.9561 2.01182 30.3569 18.0311C30.0275 22.6913 27.2819 25.2762 21.6442 25.4218C7.58658 27.2058 0.191702 31.7932 0.264918 39.5115C0.264918 40.0577 0.228312 40.6402 0.155095 41.1863C-0.577071 47.4848 1.28995 51.1619 5.60973 52.4726C4.65792 59.5357 7.87945 64.4507 16.8851 66.4531C22.2665 70.7856 27.4649 70.7492 32.4436 66.8172L32.1508 71.004Z" transform="matrix(0.994985 -0.100024 0.10087 0.9949 3.56104 8.03662)" fill="white"/>
<path d="M88.1288 68.7735C82.8206 69.1012 75.9017 69.3196 67.2255 69.3924C50.0196 68.4822 38.6344 69.174 32.4476 71.5041L32.0815 71.6497L32.3744 67.5357C27.359 71.2492 22.1973 70.9944 16.9989 66.8439C8.50575 64.9507 4.66188 60.2177 5.57709 52.827C1.2207 51.4435 -0.57311 47.5479 0.159056 41.3223C0.232273 40.8125 0.268879 40.23 0.268879 39.6839C0.159054 32.0019 7.44411 27.1597 21.8678 25.3394C27.2858 25.2301 30.0314 22.9001 30.3609 18.2035C31.569 10.8492 36.0718 5.16961 42.6979 2.58467C49.3972 -0.000259018 57.085 1.16478 62.8325 5.6065C70.6667 -1.31093 79.3428 -1.82063 88.6414 4.04097C98.7453 2.51186 104.822 4.62349 106.689 10.3759C114.157 10.2302 119.685 11.9414 123.163 15.4729C126.421 18.7496 127.922 23.6646 127.702 30.0723C126.385 36.1524 121.992 39.5019 114.304 40.3757C110.57 44.8902 105.957 47.912 100.283 49.5503C99.9167 52.3901 100.612 57.4144 101.747 65.242C101.857 65.5332 101.82 65.8609 101.637 66.1158C100.722 67.39 96.4389 68.2274 88.1288 68.7735ZM45.4435 68.7371C51.2643 68.373 58.5127 68.4094 67.2255 68.8827C75.1695 68.8099 99.331 68.5551 101.161 65.8609C101.271 65.7153 101.271 65.5696 101.198 65.424V65.3512C99.9899 57.2687 99.331 52.1717 99.7337 49.2955L99.7703 49.1135L99.9167 49.077C105.628 47.4387 110.204 44.4533 113.938 39.9388L114.011 39.866H114.121C121.662 39.065 125.909 35.8247 127.19 29.9995C127.41 23.7738 125.945 19.0045 122.797 15.837C119.392 12.4147 113.901 10.74 106.506 10.8856H106.323L106.25 10.7035C104.566 5.06038 98.6354 2.98515 88.6414 4.55068H88.5315L88.4583 4.51427C79.1232 -1.38374 70.8131 -0.87404 63.0155 6.1162L62.8691 6.26183L62.6861 6.1162C57.0484 1.67448 49.4705 0.509447 42.881 3.05797C36.4013 5.57009 32.0083 11.104 30.8734 18.2399C30.544 23.1549 27.5055 25.7034 21.9044 25.8491C7.81019 27.633 0.708179 32.2932 0.781396 39.6839C0.781396 40.2664 0.744789 40.8854 0.671573 41.3951C-0.0605935 47.5115 1.66 51.1159 5.94317 52.3901L6.16282 52.4629L6.12621 52.6814C5.13779 60.0357 8.76201 64.5138 17.1819 66.3706H17.2551L17.2917 66.407C22.5267 70.5939 27.5055 70.7395 32.5574 66.7711L33.0333 66.407L32.7038 70.8487C35.6691 69.7929 39.9523 69.1012 45.4435 68.7371Z" transform="matrix(0.994985 -0.100024 0.10087 0.9949 3.34692 7.77539)" fill="black"/>
<path d="M25.4794 6.40772C25.4794 6.44412 25.5526 6.51694 24.674 6.8082C24.2347 6.95383 23.5758 7.09946 22.5141 7.24509C21.4891 7.39072 20.0614 7.46354 18.1943 7.2815C16.3273 7.09947 14.1674 6.55335 12.154 5.67957C10.1405 4.80579 8.12704 3.93201 6.29663 3.09464C4.50282 2.25727 2.89206 1.52911 1.79381 0.946591C1.24468 0.655331 0.768774 0.43689 0.475907 0.29126C0.183041 0.109223 1.1172e-06 0.0364119 1.1172e-06 4.44427e-06C1.1172e-06 4.44427e-06 0.18304 0.0728194 0.512515 0.182042C0.84199 0.327672 1.28129 0.54611 1.86702 0.800963C3.00188 1.31067 4.61265 2.00241 6.44306 2.80338C10.1039 4.29608 14.4969 6.62617 18.2309 6.88102C20.0614 7.06306 21.4525 6.99024 22.4775 6.88102C23.5025 6.7718 24.1615 6.62617 24.6008 6.51694C25.4428 6.2985 25.4428 6.3349 25.4794 6.40772Z" transform="matrix(0.994985 -0.100024 0.10087 0.9949 24.3562 46.8284)" fill="black"/>
<path d="M21.4262 7.60569C20.5842 7.64209 19.5592 7.6785 18.2779 7.53287C16.2278 7.31442 14.1045 6.7319 12.2009 5.89453C10.1508 5.02075 8.13739 4.11056 6.34358 3.30959C4.58638 2.50863 2.97562 1.74407 1.84076 1.16155C1.32824 0.906702 0.852336 0.651852 0.522861 0.469814C0.0103445 0.214962 -0.0262643 0.178552 0.010344 0.0693294C0.0469523 -0.0398931 0.0835595 -0.0398953 0.632684 0.214957L3.92743 1.67126L6.56323 2.8363C7.36861 3.16397 8.21061 3.52804 9.08921 3.92853C12.0545 5.2392 15.4224 6.73191 18.3145 6.87754C20.2181 7.05957 21.6459 6.95035 22.5245 6.87754C23.4397 6.76831 24.0986 6.62267 24.5379 6.54986L24.6477 6.51346C25.5263 6.29502 25.5996 6.29501 25.6362 6.47705L25.5263 6.51346L25.6362 6.47705L25.5263 6.51346L25.6362 6.47705C25.6362 6.47705 25.6728 6.54986 25.6362 6.58627C25.5996 6.65908 25.4897 6.76831 24.7576 6.98675C24.2817 7.13238 23.6227 7.31443 22.5977 7.42365C22.3048 7.53287 21.9021 7.56928 21.4262 7.60569ZM2.97562 1.48922C3.96404 1.96252 5.17212 2.54504 6.45341 3.12756C8.21061 3.92852 10.2607 4.83871 12.3107 5.71249C14.1778 6.54986 16.301 7.09597 18.3145 7.31442C20.2913 7.53286 21.7191 7.38723 22.6343 7.27801C23.6593 7.13238 24.3183 6.98676 24.7942 6.84113C25.1236 6.7319 25.3067 6.65909 25.4165 6.62268C25.2335 6.65909 24.9406 6.7319 24.7942 6.76831L24.6843 6.80472C24.245 6.87753 23.5861 7.02316 22.6709 7.13238C21.7557 7.2416 20.328 7.35083 18.4243 7.13238C15.4957 6.95034 12.1277 5.45764 9.12581 4.14697C8.24721 3.74649 7.40522 3.38242 6.59984 3.05475L2.97562 1.48922ZM25.4897 6.58627L25.5996 6.54986L25.4897 6.58627Z" transform="matrix(0.994985 -0.100024 0.10087 0.9949 24.2212 46.6985)" fill="black"/>
<path d="M3.60635 18.6202C3.56974 18.6566 3.53313 18.7294 2.98401 18.0012C2.72775 17.6372 2.32506 17.091 1.84915 16.1809C1.37324 15.2707 0.750904 14.0328 0.348212 12.2488C-0.0910876 10.4649 -0.200913 8.28043 0.531254 6.2052C0.860729 5.18579 1.40985 4.20279 2.03219 3.36541C2.17862 3.14697 2.32506 2.92853 2.5081 2.74649C2.69114 2.56446 2.87418 2.34601 3.02061 2.16397C3.35009 1.76349 3.75278 1.47223 4.11886 1.14456C4.92425 0.562045 5.76624 0.161563 6.60823 0.0523402C7.45022 -0.0932898 8.219 0.088741 8.76812 0.307186C9.35386 0.525631 9.75655 0.816891 10.0494 1.03534C10.3057 1.25378 10.4521 1.39941 10.4155 1.39941C10.4155 1.39941 10.2691 1.29019 9.97619 1.10816C9.68333 0.926118 9.28064 0.671261 8.6949 0.489223C8.14578 0.307186 7.41361 0.161556 6.60823 0.307186C5.80285 0.452816 4.99747 0.853298 4.2653 1.39941C3.89922 1.72708 3.53313 2.01834 3.20366 2.41883C3.05722 2.60086 2.87418 2.78289 2.69114 3.00134C2.54471 3.21978 2.39828 3.40183 2.25184 3.62027C1.6295 4.45764 1.15359 5.40424 0.824116 6.38724C0.165166 8.38965 0.274993 10.5013 0.677685 12.2124C1.08038 13.96 1.66611 15.1614 2.14202 16.0352C2.58132 16.909 2.9474 17.4915 3.16705 17.8556C3.67957 18.5838 3.64296 18.5838 3.60635 18.6202Z" transform="matrix(0.994985 -0.100024 0.10087 0.9949 46.5229 31.9238)" fill="black"/>
<path d="M3.7047 18.8345C3.59488 18.8345 3.48505 18.7617 3.00915 18.1427C2.71628 17.7058 2.31359 17.1597 1.87429 16.3224C1.36177 15.3394 0.776038 14.1015 0.336739 12.3903C0.0438723 11.1525 -0.322211 8.71319 0.51978 6.27389C0.849255 5.25448 1.39838 4.23507 2.05733 3.3977L2.53324 2.77877C2.64306 2.63314 2.75289 2.52392 2.86272 2.37829L3.04576 2.19625C3.30202 1.90499 3.59488 1.65014 3.88774 1.39529C3.96096 1.32248 4.07079 1.24966 4.14401 1.17684C4.986 0.557916 5.8646 0.157431 6.70659 0.0482089C7.40215 -0.0610136 8.17092 0.0118058 8.93969 0.303066C9.59864 0.557918 10.0379 0.885586 10.221 1.03122C10.404 1.17685 10.6237 1.35888 10.6603 1.4681V1.50451L10.6237 1.54092C10.5505 1.61373 10.5139 1.57732 10.3674 1.4681C10.2942 1.43169 10.1844 1.35887 10.0746 1.24965C9.81829 1.06761 9.4156 0.849176 8.82986 0.630731C8.0977 0.375879 7.43875 0.339471 6.7798 0.448694C6.04764 0.557916 5.24225 0.958398 4.47348 1.54092C4.40026 1.61373 4.29044 1.68654 4.21722 1.79576C3.96096 2.01421 3.66809 2.26906 3.44845 2.56032L2.89932 3.21567L2.53324 3.76178C1.9109 4.56274 1.43499 5.50934 1.14212 6.49234C0.556387 8.20349 0.519781 10.2423 0.995689 12.2811C1.43499 14.1015 2.09394 15.4122 2.42341 16.1039C2.8261 16.8685 3.11897 17.3782 3.33862 17.7423L3.44845 17.9243C3.92435 18.6524 3.92435 18.7253 3.81453 18.8345L3.74131 18.7617L3.81453 18.8345C3.77792 18.7981 3.77792 18.7981 3.7047 18.8345ZM3.6681 18.616L3.74131 18.6889L3.6681 18.616ZM7.07267 0.157427C6.96285 0.157427 6.85302 0.193837 6.74319 0.193837C5.93781 0.303059 5.09582 0.667134 4.29044 1.28606C4.21722 1.35888 4.1074 1.43169 4.03418 1.50451C3.74131 1.75936 3.44845 1.97781 3.2288 2.30548L3.04576 2.52391C2.93593 2.63314 2.8261 2.77877 2.71628 2.88799L2.24037 3.50692C1.61803 4.34429 1.10552 5.29089 0.739432 6.3103C-0.102559 8.67679 0.263524 11.0797 0.556391 12.2811C0.959082 13.9923 1.54481 15.1937 2.05733 16.1767C2.49663 17.0141 2.86271 17.5602 3.19219 17.9607C3.37523 18.2156 3.52167 18.3612 3.59488 18.434C3.48506 18.252 3.33862 17.9971 3.2654 17.8879L3.15558 17.7058C2.93593 17.3418 2.60646 16.7957 2.20376 16.0311C1.69125 14.9753 1.14212 13.8102 0.739432 12.1719C0.263524 10.0967 0.30013 8.02145 0.885863 6.27389C1.21534 5.25448 1.69125 4.30788 2.31359 3.47051L2.75289 2.85159L3.2654 2.26907C3.48505 1.97781 3.77792 1.72295 4.03418 1.50451C4.1074 1.43169 4.21722 1.35887 4.29044 1.24965C5.09582 0.630724 5.93781 0.230251 6.70659 0.121028C6.99945 0.0846208 7.29232 0.0482089 7.58518 0.0482089C7.43875 0.157431 7.25571 0.157427 7.07267 0.157427Z" transform="matrix(0.994985 -0.100024 0.10087 0.9949 46.3804 31.8682)" fill="black"/>
<path d="M0.000300314 17.4028C0.000300314 17.33 -0.0363046 17.33 0.695862 17.1479C1.06194 17.0387 1.57446 16.9295 2.34324 16.5654C3.11201 16.2013 4.06383 15.6552 5.16208 14.5994C6.22372 13.5436 7.21214 12.0873 7.9077 10.4489C8.56665 8.81061 9.07916 7.06305 9.55507 5.53394C10.031 3.96841 10.4337 2.62134 10.6899 1.60193C10.8364 1.09222 10.9096 0.691738 10.9828 0.436886C11.056 0.145626 11.056 2.22214e-06 11.056 2.22214e-06C11.0926 2.22214e-06 11.056 0.61893 10.8364 1.63834C10.6167 2.65775 10.2872 4.04123 9.81133 5.60675C9.33542 7.17228 8.89612 8.91984 8.23717 10.5946C7.54161 12.2693 6.55319 13.7984 5.45494 14.8907C4.35669 15.9829 3.29505 16.5654 2.52628 16.9295C1.72089 17.2936 1.17177 17.4028 0.769077 17.4756C0.000302603 17.5484 0.000300314 17.4756 0.000300314 17.4028Z" transform="matrix(0.994985 -0.100024 0.10087 0.9949 60.7466 29.7771)" fill="black"/>
<path d="M0.475909 17.6576C0.183043 17.6576 0.109824 17.6576 0.0732155 17.6212C0.0366072 17.5848 0 17.512 0 17.512H0.109826H0C0 17.33 0.0732189 17.33 0.768777 17.1479H0.841992C1.17147 17.0387 1.72059 16.8931 2.41615 16.5654C3.0751 16.2377 4.06352 15.728 5.19838 14.5994C6.26002 13.5436 7.24845 12.0873 7.9074 10.4854C8.41992 9.2111 8.85921 7.86402 9.26191 6.58976C9.37173 6.22568 9.48155 5.89802 9.59138 5.57035C10.1039 3.96842 10.47 2.58493 10.7262 1.67474C10.8727 1.16504 10.9459 0.764553 10.9825 0.509701C11.0191 0.364071 11.0191 0.29126 11.0557 0.218445C11.0923 0.072815 11.0923 -2.22214e-06 11.2021 -2.22214e-06H11.2388L11.2754 0.0364075C11.3852 0.14563 11.2388 1.12864 11.0923 1.74756C10.9093 2.69416 10.5432 4.07764 10.0673 5.71598C9.99407 6.00724 9.92086 6.26209 9.81103 6.55335C9.40834 7.90042 9.00565 9.32032 8.45652 10.7038C7.76097 12.3785 6.77254 13.9077 5.63768 15.0363C4.72247 15.9465 3.77066 16.6018 2.67241 17.0751C1.90363 17.4028 1.3179 17.5484 0.915208 17.6212C0.732166 17.6576 0.585734 17.6576 0.475909 17.6576ZM0.219652 17.4756L0.109826 17.512L0.219652 17.4756ZM0.329473 17.4756C0.439298 17.4756 0.585734 17.4756 0.841992 17.4392C1.24468 17.3664 1.79381 17.2572 2.56258 16.9295C3.62422 16.4562 4.57604 15.8009 5.45464 14.9271C6.55289 13.8348 7.54131 12.3057 8.23687 10.6674C8.786 9.28392 9.18869 7.90042 9.59138 6.51694C9.66459 6.22568 9.73781 5.93442 9.84764 5.67957C10.1405 4.58735 10.4334 3.60434 10.6164 2.80338C10.3968 3.60434 10.1039 4.58735 9.77442 5.67957C9.66459 6.00724 9.55477 6.3349 9.44495 6.69898C9.04226 8.00965 8.63957 9.32032 8.09044 10.631C7.39488 12.2693 6.44307 13.7256 5.34482 14.8179C4.20996 15.9465 3.18492 16.4926 2.52597 16.8203C1.79381 17.1479 1.28129 17.2936 0.915208 17.4028H0.841992C0.695559 17.3664 0.475906 17.4392 0.329473 17.4756Z" transform="matrix(0.994985 -0.100024 0.10087 0.9949 60.5938 29.7195)" fill="black"/>
<path d="M7.47271e-05 26.359C7.47271e-05 26.2862 -0.0365336 26.2862 1.46441 25.9221C2.19657 25.7401 3.33143 25.4488 4.97881 24.7935C5.78419 24.4658 6.73601 24.0654 7.79765 23.4828C8.82269 22.9003 9.99414 22.1722 11.1656 21.0799C11.312 20.9343 11.4585 20.8251 11.6049 20.6795C11.7513 20.5338 11.8612 20.3882 12.0076 20.2426C12.3005 19.9513 12.5933 19.66 12.813 19.3324C13.3255 18.677 13.838 17.9853 14.3505 17.2571C15.3756 15.8008 16.5104 14.3445 17.6819 12.8882C20.0614 10.0121 22.624 7.20869 25.2598 5.06064C26.5777 4.00483 27.8956 3.05823 29.2135 2.4393C30.5314 1.82038 31.7029 1.34708 32.7279 0.946595C33.7529 0.58252 34.5583 0.327665 35.1441 0.182035C35.4369 0.10922 35.6566 0.072815 35.803 0.0364075C35.9494 0 36.0227 -2.22214e-06 36.0227 -2.22214e-06C36.0227 -2.22214e-06 35.9494 0.0364097 35.803 0.0728172C35.6566 0.109225 35.4369 0.18204 35.1441 0.254855C34.5949 0.436892 33.7529 0.69174 32.7645 1.09222C31.7761 1.49271 30.6046 2.00241 29.3233 2.62134C28.042 3.24027 26.7608 4.15046 25.4429 5.24268C22.8437 7.39072 20.3177 10.1941 17.9748 13.0703C16.8033 14.5266 15.705 15.9829 14.68 17.4392C14.1675 18.1673 13.6916 18.8591 13.1425 19.5508C12.8862 19.9149 12.5933 20.2062 12.3005 20.4974C12.154 20.6431 12.0076 20.7887 11.8612 20.9343C11.7147 21.0799 11.5683 21.1892 11.4219 21.3348C10.2504 22.427 9.04233 23.1916 7.98069 23.7741C6.91905 24.393 5.93062 24.7571 5.12524 25.0848C3.44126 25.7037 2.3064 25.9585 1.53763 26.1406C7.92512e-05 26.5411 7.47271e-05 26.4318 7.47271e-05 26.359Z" transform="matrix(0.994985 -0.100024 0.10087 0.9949 74.9011 19.1333)" fill="black"/>
<path d="M0.411739 26.6139C0.15548 26.6139 0.118874 26.6139 0.0822659 26.5775C0.0456576 26.5411 0.0456531 26.5047 0.00904483 26.4682H0.118876H0.00904483C-0.0275635 26.3226 -0.0275592 26.3226 1.5466 25.9221L1.65642 25.8857C2.38859 25.7037 3.52345 25.4124 5.061 24.7935L5.13421 24.7571C5.93959 24.4294 6.8548 24.0289 7.87983 23.4464C8.72182 22.9731 9.96651 22.2086 11.2112 21.0799C11.2478 21.0435 11.321 20.9707 11.3576 20.9343C11.4674 20.8615 11.5407 20.7887 11.6505 20.6795L12.1996 20.0969C12.4193 19.8421 12.6755 19.6236 12.8586 19.3324C13.3711 18.677 13.8836 17.9489 14.3961 17.2572C15.4944 15.7644 16.5926 14.2717 17.7641 12.8883C20.4731 9.61158 22.9991 6.95383 25.342 5.06064C26.8063 3.8592 28.1242 2.98541 29.3323 2.4393C30.5404 1.85678 31.7485 1.34708 32.8467 0.946596C33.9083 0.546113 34.7503 0.327666 35.2629 0.182036C35.4825 0.109221 35.7388 0.0728161 35.9218 0.0364086C36.1781 1.10944e-06 36.2513 -0.0364097 36.2879 0.0728128C36.3245 0.182035 36.2513 0.182035 35.995 0.25485L35.3361 0.436888C34.5673 0.655333 33.7619 0.946594 32.9565 1.27426C31.8583 1.71115 30.6868 2.22085 29.5153 2.80338C28.3439 3.34949 27.0992 4.22327 25.6715 5.42472C23.4018 7.31791 20.8758 9.97566 18.24 13.2523C17.1051 14.6358 16.0069 16.0921 14.9452 17.5848C14.4693 18.2766 13.9568 19.0047 13.4077 19.6964C13.188 19.9877 12.9684 20.2426 12.7121 20.4974L12.1264 21.1164C12.0166 21.2256 11.9434 21.2984 11.8335 21.4076C11.7969 21.444 11.7237 21.5168 11.6871 21.5532C10.4058 22.7547 9.08791 23.5192 8.24592 23.9925C7.18427 24.6115 6.15924 25.0119 5.35386 25.3396C3.7797 25.9221 2.68146 26.177 1.72964 26.3954C1.03408 26.5411 0.631388 26.5775 0.411739 26.6139ZM30.76 2.03882C30.3207 2.22086 29.8814 2.4393 29.4055 2.65775C28.1975 3.20386 26.9162 4.07764 25.4518 5.24268C23.1089 7.13587 20.5829 9.75721 17.9105 13.0339C16.7757 14.4174 15.6408 15.8737 14.5792 17.3664C14.0666 18.0581 13.5541 18.8227 13.0416 19.478C12.8586 19.7693 12.6023 20.0241 12.3827 20.2426L11.8335 20.8251C11.7237 20.9343 11.6505 21.0071 11.5407 21.0799C11.5041 21.1163 11.4308 21.1892 11.3942 21.2256C10.1495 22.3906 8.86825 23.1552 8.02626 23.6285C7.00123 24.211 6.08602 24.6115 5.28064 24.9391L5.20743 24.9755C3.63327 25.5945 2.49842 25.8857 1.76625 26.0678L1.65642 26.1042C1.18051 26.2134 0.81443 26.2862 0.59478 26.359C0.81443 26.3226 1.1439 26.2862 1.69303 26.177C2.64485 25.995 3.70648 25.7401 5.28064 25.1212C6.12263 24.7935 7.07445 24.393 8.1361 23.8105C8.97809 23.3372 10.2594 22.5726 11.5407 21.3712C11.5773 21.3348 11.6505 21.262 11.6871 21.2256C11.7969 21.1528 11.8701 21.0435 11.98 20.9707L12.5657 20.3518C12.7854 20.0969 13.0416 19.8421 13.2246 19.5508C13.7738 18.8591 14.2863 18.1309 14.7622 17.4392C15.8238 15.9465 16.9587 14.4538 18.0935 13.0703C20.766 9.79362 23.2919 7.13587 25.5617 5.20627C26.9894 4.00482 28.2707 3.13105 29.4421 2.58493C29.8814 2.4393 30.3207 2.25727 30.76 2.03882Z" transform="matrix(0.994985 -0.100024 0.10087 0.9949 74.7393 19.0764)" fill="black"/>
<path d="M0.000158235 11.1407C0.000158235 11.0679 -0.0364456 11.0679 0.988587 10.9222C2.01362 10.7402 4.1003 10.2669 8.16382 8.88343C12.2273 7.49994 17.4989 5.42471 21.7089 3.56793C23.7956 2.62134 25.626 1.74756 26.9073 1.09222C27.5662 0.764557 28.0787 0.473293 28.4082 0.291256C28.7743 0.109218 28.9573 0 28.9573 0C28.9573 0 28.7743 0.14563 28.4448 0.364075C28.1153 0.58252 27.6028 0.873778 26.9805 1.23785C25.6992 1.9296 23.9054 2.87619 21.8187 3.8592C17.6454 5.78879 12.3738 7.90043 8.31025 9.32032C4.21012 10.7038 2.12345 11.1407 1.06181 11.2499C0.000167143 11.2863 0.000158235 11.1771 0.000158235 11.1407Z" transform="matrix(0.994985 -0.100024 0.10087 0.9949 84.8989 34.2649)" fill="black"/>
<path d="M0.841987 11.436C0.256254 11.4724 0.109829 11.436 0.0732211 11.3632C0.0366128 11.3268 0.0366105 11.2904 0.0366105 11.254C0.0366105 11.1083 0.0366083 11.1083 0.732166 10.9991L1.09825 10.9263C2.85545 10.5986 5.2716 9.90689 8.23687 8.88748C12.4102 7.46758 17.7184 5.35595 21.7453 3.57198C24.1615 2.47976 26.0285 1.56957 26.9437 1.09627L28.5179 0.258896C29.067 -0.0323645 29.067 -0.0323667 29.1402 0.0404483C29.2134 0.149671 29.2134 0.14968 28.5911 0.550162C28.2616 0.768607 27.7491 1.05986 27.1268 1.42394C26.2848 1.89724 24.491 2.84383 21.965 4.04527C17.9381 5.93846 12.6299 8.0865 8.45652 9.5064C4.42961 10.8899 2.26972 11.3268 1.17147 11.436C1.02504 11.3996 0.915203 11.436 0.841987 11.436ZM0.402694 11.2176C0.549127 11.2176 0.768777 11.2176 1.13486 11.1811C2.23311 11.0719 4.35639 10.635 8.3833 9.25155C12.5566 7.83166 17.8649 5.68362 21.8918 3.79043C23.4659 3.06228 24.7472 2.40694 25.6624 1.93364C24.674 2.40694 23.3561 3.02587 21.8552 3.71761C17.8283 5.53798 12.4834 7.61321 8.31009 9.0331C5.30821 10.0525 2.89206 10.7443 1.13486 11.0719L0.732166 11.1447C0.622341 11.1811 0.47591 11.2176 0.402694 11.2176ZM0.10982 11.254H0.219652H0.10982ZM0.10982 11.254H0H0.10982Z" transform="matrix(0.994985 -0.100024 0.10087 0.9949 84.7773 34.1631)" fill="black"/>
<path d="M0.0189 12.9703C-0.0177083 12.9339 -0.0543122 12.8975 0.458204 12.4971C0.970721 12.0966 2.03236 11.332 3.89938 9.47523C5.76641 7.61844 8.07273 4.9971 10.1594 3.0675C11.1844 2.12091 12.1729 1.31995 12.905 0.773835C13.2711 0.518983 13.564 0.300536 13.7836 0.191313C14.0033 0.0456831 14.1131 -0.0271319 14.1131 0.00927565C14.1497 0.0456831 13.7104 0.373351 13.0149 0.919463C12.3193 1.50198 11.3675 2.30295 10.3791 3.28595C8.3656 5.25196 6.09589 7.90971 4.19226 9.76649C2.28862 11.6597 1.19037 12.3878 0.641246 12.7519C0.0555127 13.0796 0.0555083 13.0068 0.0189 12.9703Z" transform="matrix(0.994985 -0.100024 0.10087 0.9949 113.686 29.8613)" fill="black"/>
<path d="M0.185573 13.2136C0.112357 13.2136 0.0757506 13.1772 0.0391423 13.1408L0.112363 13.068L0.0391423 13.1408L0.112363 13.068L0.0391423 13.1408C-0.0706826 12.9952 0.0391379 12.8859 0.515046 12.5219C0.588263 12.449 0.661481 12.4126 0.734698 12.3398C1.28382 11.9029 2.30886 11.102 3.91963 9.50003C4.6884 8.77188 5.49379 7.8981 6.33578 6.98791C7.61707 5.64083 8.93497 4.25735 10.1797 3.09231C11.3145 2.03649 12.3029 1.27193 12.9253 0.798633C13.1815 0.580188 13.4378 0.434563 13.6208 0.32534L13.8039 0.216122C14.1333 -0.00232261 14.2066 -0.0387301 14.2798 0.0340849C14.353 0.143307 14.353 0.143305 13.6208 0.725825L13.1449 1.0899C12.1931 1.89087 11.3145 2.65542 10.5091 3.45639C9.44748 4.51221 8.27601 5.75006 7.17776 6.95151C6.15273 8.04373 5.20092 9.06314 4.32232 9.93692C2.27225 11.9757 1.13739 12.6675 0.734698 12.9223C0.47844 13.1044 0.295398 13.1772 0.185573 13.2136ZM0.222184 12.9951L0.148963 13.068L0.222184 12.9951ZM12.3029 1.52678C11.7538 1.96367 11.0582 2.5462 10.3261 3.20153C9.0814 4.36657 7.7635 5.75006 6.48221 7.09714C5.60361 8.00733 4.79822 8.8811 4.06606 9.60925C2.45529 11.2112 1.43025 12.0121 0.881129 12.449C0.807912 12.5218 0.698096 12.5947 0.661488 12.6311C0.478447 12.7767 0.368622 12.8859 0.295405 12.9223C0.368622 12.8859 0.478438 12.8131 0.698088 12.7039C1.06417 12.4854 2.19903 11.7573 4.2491 9.75488C5.1277 8.8811 6.07951 7.8617 7.10454 6.76947C8.20279 5.56802 9.37426 4.33017 10.4359 3.27435C10.985 2.69183 11.644 2.1093 12.3029 1.52678Z" transform="matrix(0.994985 -0.100024 0.10087 0.9949 113.547 29.7773)" fill="black"/>
<path d="M6.04346 0.0153948C6.11668 0.0153948 6.15328 0.0153914 6.08007 0.415874C6.00685 0.816356 5.82381 1.61732 5.20147 3.14644C4.57913 4.67555 3.51749 6.60515 2.38263 7.95222C1.7969 8.60756 1.21116 9.15368 0.771862 9.48134C0.332562 9.80901 0.00309056 9.95463 0.00309056 9.91823C-0.0335178 9.88182 0.25935 9.69979 0.662041 9.33572C1.06473 8.97164 1.61385 8.42552 2.16298 7.77019C3.22462 6.3867 4.21305 4.49352 4.83539 3.00081C5.45773 1.5081 5.67738 0.743542 5.7872 0.34306C5.93364 -0.021015 6.00685 -0.0210127 6.04346 0.0153948Z" transform="matrix(0.994985 -0.100024 0.10087 0.9949 29.5205 25.217)" fill="black"/>
<path d="M0.136732 10.0552C0.100124 10.0552 0.100124 10.0552 0.136732 10.0552H0.0635167L0.0269117 10.0188C-0.0463049 9.94594 0.0269106 9.87312 0.283169 9.69109C0.392994 9.61827 0.539426 9.47264 0.722467 9.32701C1.16177 8.96294 1.71089 8.38041 2.1868 7.76148C3.32166 6.30518 4.31008 4.33918 4.85921 3.02851C5.29851 1.9727 5.51816 1.28095 5.66459 0.844064C5.73781 0.662026 5.77441 0.516398 5.81102 0.407175C5.92085 0.0795077 5.99407 -0.029717 6.1405 0.00669047L6.10389 0.115914L6.1405 0.00669047C6.32354 0.043098 6.32354 0.188728 6.28693 0.552803C6.21371 1.0261 5.99407 1.86347 5.40833 3.31977C4.71277 5.03093 3.61452 6.92411 2.55288 8.12556C2.00376 8.78089 1.41803 9.32701 0.905509 9.65468C0.942117 9.58186 0.319774 10.0552 0.136732 10.0552ZM6.1405 0.152318C6.10389 0.188726 6.10389 0.261545 6.03067 0.407175C5.99406 0.516398 5.95746 0.662026 5.88424 0.844064C5.73781 1.31736 5.51815 2.0091 5.07885 3.06492C4.52973 4.41199 3.54131 6.378 2.40645 7.87071C2.04037 8.3076 1.67428 8.74449 1.34481 9.07215C1.71089 8.74449 2.11358 8.38041 2.47967 7.94352C3.5047 6.74207 4.60295 4.84889 5.29851 3.17414C5.88424 1.75425 6.06728 0.953286 6.1771 0.479989C6.1405 0.261544 6.1405 0.188726 6.1405 0.152318ZM6.1405 0.152318C6.1405 0.115911 6.1405 0.115911 6.1405 0.152318V0.152318ZM6.1405 0.115914L6.1771 0.00669047L6.1405 0.115914Z" transform="matrix(0.994985 -0.100024 0.10087 0.9949 29.4204 25.199)" fill="black"/>
<path d="M6.25087 0.0355454C6.28747 0.0719529 6.32408 0.10836 5.92139 0.39962C5.55531 0.727288 4.74993 1.2734 3.54185 2.80252C2.95612 3.56707 2.33378 4.55008 1.85787 5.60589C1.63822 6.15201 1.38197 6.66171 1.19892 7.20782C1.12571 7.46267 1.01588 7.75394 0.942662 8.00879C0.869445 8.26364 0.796232 8.51849 0.723015 8.77334C0.210499 10.8122 0.137279 12.4505 0.027454 12.4505C-0.00915431 12.4505 -0.00915431 12.05 0.027454 11.3583C0.027454 11.1762 0.0640645 10.9942 0.0640645 10.8122C0.100673 10.6301 0.13728 10.4117 0.13728 10.1932C0.210497 9.75635 0.247104 9.24664 0.393537 8.73694C0.466754 8.48209 0.503362 8.22723 0.576579 7.93597C0.649795 7.68112 0.759625 7.38986 0.832841 7.13501C0.979274 6.58889 1.23553 6.04278 1.45518 5.49667C1.93109 4.44085 2.55343 3.42144 3.17577 2.62048C4.45706 1.05496 5.29905 0.472435 5.73835 0.217583C6.17765 -0.0736771 6.21426 -0.000862123 6.25087 0.0355454Z" transform="matrix(0.994985 -0.100024 0.10087 0.9949 62.1758 6.03345)" fill="black"/>
<path d="M0.146433 12.6461C0.146433 12.6461 0.109825 12.6461 0.146433 12.6461C0 12.6461 -0.0366094 12.6461 0.0366072 11.4446L0.0732177 10.8985L0.146433 10.2432C0.146433 10.134 0.183044 10.0248 0.183044 9.95194C0.219652 9.58786 0.292865 9.18737 0.40269 8.78689L0.585732 7.98593C0.62234 7.80389 0.69556 7.62185 0.732169 7.43981C0.768777 7.33059 0.805384 7.25778 0.805384 7.14855C0.951817 6.67526 1.13486 6.23837 1.3179 5.80148L1.42772 5.51022C1.90363 4.4544 2.52597 3.43499 3.14831 2.59762C4.46621 0.95928 5.34481 0.41317 5.74751 0.194725C6.07698 0.012688 6.1868 -0.0237195 6.26002 0.012688C6.33324 0.012688 6.36985 0.0855019 6.36985 0.0855019L6.29663 0.121912L6.36985 0.0855019L6.29663 0.121912L6.36985 0.0855019C6.44306 0.231132 6.36985 0.340352 6.04037 0.595205C6.00377 0.631612 5.93055 0.70443 5.85733 0.740838C5.45464 1.06851 4.72247 1.68743 3.66083 2.96169C3.03849 3.76266 2.45276 4.70925 1.97685 5.72866C1.94024 5.83789 1.86703 5.94711 1.83042 6.05633C1.64738 6.45681 1.46433 6.8937 1.35451 7.29419C1.3179 7.40341 1.28129 7.47623 1.24468 7.58545C1.17147 7.76749 1.13486 7.91311 1.06164 8.09515L0.841989 8.85971C0.512514 10.134 0.366081 11.2262 0.292864 11.9179C0.256256 12.5369 0.256258 12.6461 0.146433 12.6461ZM6.1868 0.23113C6.1502 0.23113 6.04037 0.303948 5.89394 0.376763C5.52785 0.595208 4.64926 1.14132 3.36797 2.74325C2.74562 3.54422 2.15989 4.56363 1.68398 5.58304L1.57416 5.87429C1.39111 6.31118 1.20807 6.74808 1.06164 7.22137C1.02503 7.3306 0.988423 7.40341 0.951815 7.51263C0.878598 7.69467 0.841992 7.87671 0.805384 8.02234L0.622342 8.8233C0.512518 9.22378 0.475907 9.58786 0.40269 9.95194C0.40269 10.0612 0.366085 10.1704 0.366085 10.2796L0.292864 10.9349C0.402689 10.3524 0.512519 9.62427 0.732169 8.8233L0.951815 8.05874C0.988423 7.8767 1.06164 7.69467 1.13486 7.54904C1.17146 7.43982 1.20807 7.367 1.24468 7.25778C1.39112 6.82089 1.57416 6.384 1.7572 5.98351C1.79381 5.87429 1.86703 5.76507 1.90363 5.65585C2.41615 4.63644 3.00188 3.65344 3.62422 2.85247C4.68586 1.5418 5.45464 0.922872 5.85733 0.595205C5.93055 0.52239 6.00377 0.485984 6.04037 0.449577C6.07698 0.340354 6.1502 0.267537 6.1868 0.23113ZM6.22342 0.194725C6.26002 0.194725 6.26002 0.194725 6.22342 0.194725L6.29663 0.158316L6.22342 0.194725Z" transform="matrix(0.994985 -0.100024 0.10087 0.9949 62.0808 5.91943)" fill="black"/>
<path d="M12.4865 0.0921045C12.4865 0.164919 12.4865 0.201327 12.0472 0.274142C11.6079 0.346957 10.6561 0.456182 8.82568 0.856664C6.99527 1.25715 4.61573 2.09452 2.89514 3.11393C2.45584 3.36878 2.05315 3.62363 1.72367 3.87848C1.3942 4.13333 1.06472 4.35178 0.808466 4.57023C0.332558 5.00712 0.0396867 5.22556 0.00307836 5.22556C-0.03353 5.18916 0.259345 4.9343 0.698645 4.461C0.954903 4.24256 1.24777 3.98771 1.57724 3.73285C1.94333 3.478 2.3094 3.18674 2.7487 2.93189C4.46929 1.83967 6.88545 0.929476 8.75247 0.528993C10.6195 0.0921034 11.5713 0.0556948 12.0472 0.0556948C12.5231 -0.0535277 12.4865 0.0192895 12.4865 0.0921045Z" transform="matrix(0.994985 -0.100024 0.10087 0.9949 82.7119 3.65552)" fill="black"/>
<path d="M0.10982 5.42472C0.0732122 5.42472 0.0732189 5.42472 0.0366105 5.38831L0 5.3519V5.3155C0 5.24268 0 5.20627 0.732166 4.47812C0.915208 4.29608 1.13485 4.11405 1.39111 3.93201L1.61076 3.74997C1.72059 3.67716 1.79381 3.60434 1.90364 3.53153C2.1965 3.31308 2.45276 3.13104 2.78223 2.9126C4.393 1.89319 6.73593 0.946594 8.82261 0.473296C10.7262 0.0364064 11.6781 -2.22214e-06 12.154 -2.22214e-06C12.5567 -2.22214e-06 12.7397 0.0364075 12.7397 0.218445H12.6299H12.7397C12.7397 0.400483 12.6299 0.436891 12.2272 0.509706C12.1173 0.546114 11.9343 0.546113 11.7147 0.58252C11.1655 0.655335 10.3235 0.800963 8.96904 1.09222C6.95558 1.52911 4.61264 2.4393 3.03849 3.34949C2.74562 3.53153 2.45276 3.67716 2.1965 3.8592C2.08667 3.93201 1.97685 4.00483 1.83042 4.07764L0.951818 4.76938C0.366085 5.27909 0.183037 5.42472 0.10982 5.42472ZM11.7513 0.218445C11.2021 0.254853 10.3235 0.364076 8.89581 0.691744C6.84575 1.12863 4.50282 2.07523 2.92866 3.09464C2.59919 3.27667 2.34293 3.49512 2.05007 3.67716C1.94024 3.74997 1.86702 3.82279 1.75719 3.8956L1.53755 4.07764C1.50095 4.11405 1.46433 4.15045 1.42772 4.18686L1.79381 3.93201C1.90363 3.85919 2.01345 3.78638 2.15989 3.71357C2.41615 3.53153 2.70902 3.34949 3.00189 3.20386C4.57604 2.25726 6.91897 1.38348 8.96904 0.910185C10.2869 0.618925 11.1655 0.473298 11.7147 0.400483C11.9343 0.364075 12.0807 0.364076 12.1906 0.327669C12.3736 0.291261 12.4834 0.291262 12.52 0.254855C12.4834 0.254855 12.3736 0.218447 12.1906 0.254855C12.0441 0.18204 11.8977 0.182038 11.7513 0.218445ZM12.52 0.218445H12.6299H12.52Z" transform="matrix(0.994985 -0.100024 0.10087 0.9949 82.593 3.54053)" fill="black"/>
<path d="M7.24976 0.109223C7.24976 0.182038 7.24975 0.218443 6.9935 0.25485C6.73724 0.291258 6.26134 0.327665 5.2363 0.436888C4.21127 0.54611 2.89337 0.72815 1.83173 1.01941C0.770093 1.27426 0.0013179 1.60193 0.0013179 1.56552C-0.0352904 1.52911 0.696871 1.09223 1.75851 0.764559C2.82015 0.436891 4.13805 0.182035 5.19969 0.0728128C6.22472 -0.0364097 6.73724 1.10944e-06 6.9935 0.0364086C7.28636 1.10944e-06 7.24976 0.0364075 7.24976 0.109223Z" transform="matrix(0.994985 -0.100024 0.10087 0.9949 105.028 8.16479)" fill="black"/>
<path d="M0.146429 1.78725C0.0732122 1.78725 0.0732166 1.78725 0.0366083 1.71444L-2.23439e-06 1.67803V1.64162C0.0732144 1.49599 0.915206 1.0591 1.83041 0.767838C2.81884 0.440171 4.17334 0.18532 5.27159 0.0760979C6.07698 0.00328286 6.69932 -0.0331269 7.10201 0.0396881C7.32166 0.0760956 7.43149 0.112508 7.43149 0.294545H7.32166H7.43149C7.43149 0.440175 7.32166 0.512989 7.10201 0.549396C6.95557 0.585804 6.73593 0.585803 6.33324 0.62221C6.07698 0.658618 5.7475 0.658619 5.3082 0.731434C4.4296 0.804249 3.0751 1.02269 1.94025 1.31395C1.39112 1.45958 0.878597 1.60521 0.549122 1.71444C0.366081 1.71444 0.219645 1.75084 0.146429 1.78725ZM5.96716 0.185321C5.78412 0.185321 5.56446 0.221726 5.34481 0.221726C4.24656 0.330948 2.89206 0.585804 1.94025 0.913471C1.57416 1.02269 1.24468 1.16832 0.988427 1.27755C1.28129 1.20473 1.61076 1.09551 1.97684 0.986285C3.1117 0.695025 4.50282 0.512986 5.38142 0.403763C5.78412 0.367356 6.11359 0.330953 6.40645 0.294545C6.77254 0.258138 6.99219 0.258133 7.13862 0.221726C7.28505 0.185318 7.28505 0.185321 7.32166 0.185321C7.32166 0.185321 7.32166 0.148912 7.17523 0.148912C6.91897 0.185319 6.55289 0.148914 5.96716 0.185321Z" transform="matrix(0.994985 -0.100024 0.10087 0.9949 104.905 8.02734)" fill="black"/>
<path d="M3.40457 23.4742L2.89206 23.4014C3.58761 18.632 2.67241 13.6806 0.109827 8.25587L1.1172e-06 8.03742L0.219648 7.9282C21.123 -3.86783 47.5176 -0.336295 70.5808 4.68794L70.471 5.19764C47.5542 0.209815 21.3793 -3.28531 0.658952 8.25587C3.22153 13.6806 4.13674 18.6684 3.40457 23.4742Z" transform="matrix(0.994985 -0.100024 0.10087 0.9949 37.0891 49.0325)" fill="black"/>
<path d="M25.699 4.95142C25.6258 4.91502 17.1693 2.07523 1.1172e-06 0.509705L0.0366089 2.22214e-06C17.2791 1.52912 25.7722 4.44171 25.8455 4.44171L25.699 4.95142Z" transform="matrix(0.994985 -0.100024 0.10087 0.9949 14.3987 59.3186)" fill="black"/>
<path d="M0.0732155 6.18927L0 5.67957C11.6414 4.11405 15.2291 0.0728128 15.2657 -2.22214e-06L15.6684 0.327663C15.4853 0.546108 11.8977 4.58734 0.0732155 6.18927Z" transform="matrix(0.994985 -0.100024 0.10087 0.9949 26.4185 66.4529)" fill="black"/>
<path d="M11.2021 0.0010091C11.2387 0.0374166 11.2754 0.037421 10.9093 0.437903C10.5798 0.838386 9.84764 1.60294 8.3467 3.09565C6.84576 4.58835 4.83229 6.51795 3.14831 8.04707C2.30632 8.81163 1.53755 9.43055 0.951814 9.86744C0.658947 10.0859 0.4393 10.2679 0.256258 10.3771C0.0732166 10.4864 -4.46879e-06 10.5592 -4.46879e-06 10.5228C-4.46879e-06 10.4864 0.329479 10.2679 0.878604 9.79462C1.42773 9.35773 2.15989 8.666 3.00188 7.90144C4.64926 6.37233 6.6261 4.40632 8.12705 2.91361C9.62799 1.4209 10.3602 0.692749 10.7628 0.328674C11.1655 -0.0354006 11.1655 0.0010091 11.2021 0.0010091Z" transform="matrix(0.994985 -0.100024 0.10087 0.9949 87.6042 28.2847)" fill="black"/>
<path d="M0.0489714 10.6261C0.0123631 10.6261 0.0123721 10.6261 0.0123721 10.5897C-0.0242363 10.5169 0.0123631 10.5169 0.232013 10.3348C0.378446 10.2256 0.634711 10.0436 0.890969 9.78873C1.4767 9.27902 2.28208 8.55087 3.01425 7.89553C4.36875 6.65768 6.08935 4.98293 8.13941 2.9077L8.68854 2.36159C9.82339 1.23295 10.4091 0.650444 10.7386 0.322776C11.1047 -0.00489139 11.1779 -0.0413056 11.2511 0.0315094L11.2145 0.0679191L11.2511 0.0315094L11.2145 0.0679191L11.2511 0.0315094C11.3243 0.104324 11.2877 0.177137 10.9583 0.541212C10.6288 0.905287 9.89662 1.66985 8.39567 3.19897C6.60187 5.01934 4.62501 6.83972 3.19729 8.15039C2.20886 9.02417 1.51331 9.60669 1.00079 9.97076C0.744532 10.1528 0.524884 10.3348 0.305234 10.4805C0.195409 10.5533 0.0855797 10.6261 0.0489714 10.6261ZM11.1413 0.140739C11.1047 0.177146 10.9949 0.249954 10.8484 0.395584C10.5189 0.686844 9.89662 1.30577 8.79837 2.43441L8.24924 2.98052C6.16257 5.05575 4.44198 6.7305 3.08747 7.96835C2.57495 8.44165 2.02582 8.91494 1.54991 9.35183C1.95261 9.02416 2.50174 8.55086 3.12408 8.00475C4.58841 6.73049 6.52865 4.87371 8.32245 3.05334C9.86 1.52422 10.5556 0.796067 10.885 0.395584C11.0315 0.286362 11.1047 0.213554 11.1413 0.140739ZM11.2145 0.104329L11.2511 0.0679191L11.2145 0.104329Z" transform="matrix(0.994985 -0.100024 0.10087 0.9949 87.5522 28.2583)" fill="black"/>
<path d="M8.01722 0.072815C8.12705 0.0364075 8.20026 -4.44427e-06 8.31008 -4.44427e-06C8.41991 -4.44427e-06 8.52974 0.0364097 8.60295 0.109225C8.93243 0.400485 9.04225 0.837377 9.22529 1.23786C9.29851 1.38349 9.40834 1.4927 9.48155 1.63833C9.59138 1.85678 9.7012 2.07523 9.81103 2.33008C9.81103 2.36649 9.81103 2.40289 9.81103 2.4393C9.81103 2.54852 9.73781 2.69415 9.59138 2.73056L8.78599 3.09463L8.60295 2.949C8.34669 2.69415 8.09044 2.4393 7.83418 2.22085C7.39488 1.85678 6.91897 1.63833 6.36985 1.4927C6.04037 1.41989 5.7109 1.34708 5.41803 1.38349C5.19838 1.38349 4.94212 1.41989 4.68586 1.4927C3.91709 1.67474 3.18492 2.03882 2.67241 2.65775C2.45276 2.9126 2.34293 3.20386 2.26971 3.53153C2.12328 3.96842 2.08667 4.3689 2.08667 4.80579C2.08667 5.31549 2.1965 5.8252 2.37954 6.33491C2.56258 6.88102 2.92867 7.35432 3.33136 7.79121C3.44118 7.90043 3.62422 7.97324 3.77066 8.04605C4.02691 8.19168 4.28317 8.37373 4.57604 8.51936C4.72247 8.59217 4.86891 8.62858 5.05195 8.62858C5.19838 8.62858 5.34481 8.62858 5.52786 8.62858C6.04037 8.62858 6.5895 8.55576 7.10201 8.44654C7.39488 8.37372 7.72435 8.2645 7.98061 8.11887C8.20026 8.04606 8.3467 7.90042 8.56635 7.82761C8.786 7.68198 9.00564 7.49995 9.15208 7.2451C9.2619 7.09947 9.37173 6.84461 9.55477 6.84461C9.59138 6.84461 9.62799 6.84461 9.6646 6.88102C9.92085 6.95384 9.84764 7.28149 9.99407 7.46353C10.1039 7.57275 10.1405 7.68199 10.1405 7.79121C10.1405 7.93684 10.1039 8.08246 10.0307 8.19168C9.88425 8.51935 9.73781 8.81061 9.44494 8.99265C9.15208 9.2111 8.8226 9.42955 8.49313 9.61158C8.12704 9.79362 7.72435 9.86644 7.35827 9.97566C6.69932 10.1941 6.07698 10.2305 5.38142 10.2669H4.79569C4.64926 10.2669 4.50282 10.1941 4.393 10.1941C3.91709 10.1941 3.44118 10.0121 3.03849 9.79362C2.6358 9.61158 2.23311 9.39313 1.94024 9.10187C1.46433 8.70139 1.02503 8.19169 0.65895 7.71839C0.256258 7.20868 0.146434 6.58976 0.0366094 5.97083V5.89801V5.8616C0.0366094 5.75238 -1.1172e-06 5.64316 -1.1172e-06 5.53394C-1.1172e-06 5.09705 0.0366061 4.66016 0.0732144 4.22327C0.109823 3.85919 0.256259 3.53153 0.402693 3.16745C0.732167 2.40289 1.24468 1.74756 1.86703 1.23786C2.45276 0.728154 3.18492 0.364075 3.9537 0.254852C4.53943 0.182037 5.12516 0.072815 5.7109 0.072815C6.29663 0.072815 6.91897 0.109225 7.5047 0.291262C7.57792 0.32767 7.65114 0.327672 7.72435 0.327672C7.76096 0.327672 7.76096 0.327672 7.79757 0.327672C7.83418 0.218449 7.9074 0.14563 8.01722 0.072815Z" transform="matrix(0.994985 -0.100024 0.10087 0.9949 52.0156 56.8906)" fill="#2D2D2D"/>
<path d="M5.41803 10.4854C5.30821 10.4854 5.19838 10.4854 5.05195 10.449C3.77066 10.3033 2.6358 10.1213 1.50094 9.46595C1.39112 9.39313 1.3179 9.32032 1.24468 9.24751C0.988427 8.95625 0.732165 8.66499 0.549124 8.33732C0.40269 8.08247 0.329476 7.7912 0.219651 7.49994C0.183043 7.35431 0.183042 7.20868 0.109825 7.09946C0 6.8082 0.0366094 6.48053 0.0366094 6.18927C1.11556e-06 5.89801 -1.1172e-06 5.60676 -1.1172e-06 5.3519C0.0366072 5.09705 0.0732166 4.8422 0.109825 4.62375C0.183042 3.96842 0.366085 3.34949 0.69556 2.76697C0.841993 2.4393 1.06164 2.18445 1.24468 1.9296C1.42773 1.71115 1.61076 1.52911 1.83041 1.31067C2.15989 1.05582 2.45276 0.800965 2.78223 0.618928C3.03849 0.473298 3.33136 0.400485 3.58761 0.291262C4.06352 0.145632 4.53943 0.0728128 5.01534 0.0364053C5.23499 -2.22159e-06 5.45464 -4.44427e-06 5.67429 -4.44427e-06H5.78411C6.07698 0.0364031 6.36984 0.0728172 6.66271 0.109225L6.99219 0.145634L7.32166 0.254853C8.05383 0.43689 8.67617 0.728148 9.29851 1.12863C9.73781 1.41989 9.95746 1.82037 10.3235 2.25727C10.5798 2.58493 10.653 2.98542 10.7995 3.3859C10.8727 3.64075 10.9459 3.93201 11.0557 4.22327C11.1655 4.69657 11.2388 5.13346 11.2021 5.60676C11.2021 5.8252 11.1655 6.00724 11.1289 6.22568C11.0557 6.55335 11.0557 6.91742 10.9459 7.2815C10.9093 7.42713 10.7995 7.53635 10.7262 7.68198C10.4334 8.19169 10.3235 8.62858 9.88424 8.99265C9.81103 9.02906 9.73781 9.10188 9.7012 9.17469C9.44494 9.46595 9.11547 9.6844 8.78599 9.79362C8.56634 9.86644 8.38331 9.97565 8.20026 10.0485C7.28506 10.3397 6.51628 10.5582 5.60107 10.5218L5.41803 10.4854ZM9.18869 5.27908C9.18869 5.20627 9.18868 5.13346 9.22529 5.06065C9.22529 4.62376 9.11547 4.18686 8.93243 3.74997C8.56635 2.94901 7.98061 2.36649 7.24845 1.9296L7.17523 1.89319C6.73593 1.78397 6.29663 1.67474 5.85733 1.67474C5.78411 1.67474 5.7109 1.67474 5.63768 1.67474C5.49125 1.67474 5.34481 1.71115 5.23499 1.74756C5.05195 1.78397 4.86891 1.89319 4.68586 1.96601C4.28317 2.18445 3.88048 2.36649 3.5144 2.65775C2.85545 3.20386 2.41615 3.93201 2.1965 4.76938C2.12328 5.06064 2.08667 5.3519 2.08667 5.64316C2.08667 6.11646 2.15989 6.55335 2.26971 7.02665C2.30632 7.20869 2.37954 7.39073 2.45275 7.57276V7.60917C2.52597 7.86403 2.6358 8.08246 2.89206 8.19168C3.00188 8.22809 3.0751 8.26451 3.14832 8.33732C3.44118 8.59218 3.80726 8.62857 4.13674 8.7378C4.42961 8.81061 4.75908 8.81062 5.08856 8.84702C5.19838 8.84702 5.38142 8.88344 5.49125 8.88344C5.82072 8.84703 6.18681 8.81061 6.55289 8.77421C6.73593 8.7378 6.91897 8.73781 7.0654 8.7014C7.28505 8.62858 7.5047 8.55576 7.76096 8.44654C8.09044 8.33732 8.34669 8.15528 8.49313 7.86402C8.71278 7.49994 8.89582 7.09947 9.07886 6.69899C9.2253 6.33491 9.29851 5.97083 9.29851 5.53394L9.18869 5.27908Z" transform="matrix(0.994985 -0.100024 0.10087 0.9949 62.5789 55.8289)" fill="#66CC33"/>
<path d="M5.49124 10.4125C5.38142 10.4125 5.27159 10.4125 5.12516 10.4125C3.84387 10.2669 2.70902 10.1213 1.57416 9.50235C1.46434 9.42954 1.39112 9.35673 1.3179 9.28392C1.06164 8.99266 0.805383 8.7014 0.585733 8.37373C0.402691 8.15528 0.329477 7.86402 0.25626 7.57276C0.219652 7.42713 0.219651 7.2815 0.146434 7.17228C0.0366094 6.88101 0.0732166 6.55335 0.0366083 6.26209C0 5.97083 -2.23439e-06 5.67957 -2.23439e-06 5.42472C-2.23439e-06 5.16987 0.0732189 4.91501 0.0732189 4.69657C0.146435 4.04123 0.329477 3.3859 0.622344 2.80338C0.768777 2.47571 0.988427 2.22086 1.17147 1.96601C1.35451 1.74756 1.53755 1.52911 1.7572 1.34708C2.05007 1.05582 2.37954 0.83737 2.70901 0.618925C2.96527 0.473295 3.25814 0.400483 3.5144 0.29126C3.99031 0.14563 4.4296 0.0364031 4.94212 0.0364031C5.16177 -4.4459e-06 5.38143 4.44427e-06 5.60108 4.44427e-06H5.7109C6.00376 4.44427e-06 6.29663 0.0728128 6.58949 0.0728128L6.91897 0.109223L7.24845 0.182042C7.98062 0.327672 8.63957 0.655335 9.26191 1.01941C9.70121 1.31067 9.95746 1.71115 10.2869 2.11163C10.5798 2.4393 10.653 2.83979 10.7994 3.24027C10.9093 3.49512 10.9825 3.78638 11.0557 4.07764C11.1655 4.55094 11.2388 4.98783 11.2388 5.46113C11.2388 5.67957 11.2388 5.86161 11.2021 6.08005C11.1289 6.40772 11.1289 6.77179 11.0557 7.13587C11.0191 7.2815 10.9093 7.42713 10.8361 7.53635C10.5432 8.04605 10.47 8.48295 9.99407 8.84702C9.92086 8.91984 9.84764 8.95624 9.81103 9.02906C9.55477 9.32032 9.26191 9.53877 8.89582 9.64799C8.67617 9.72081 8.49313 9.86643 8.31009 9.90284C7.39488 10.1941 6.6261 10.4489 5.7109 10.4489L5.49124 10.4125ZM9.15208 5.09705C9.15208 5.02424 9.15208 4.95142 9.15208 4.87861C9.15208 4.44172 9.00564 4.00483 8.8226 3.56793C8.45652 2.76697 7.83418 2.22086 7.06541 1.78397L6.99219 1.74756C6.55289 1.63834 6.11359 1.56552 5.67429 1.56552C5.60107 1.56552 5.52785 1.56552 5.45463 1.56552C5.3082 1.56552 5.16178 1.60193 5.05195 1.63834C4.86891 1.67475 4.68587 1.78396 4.50283 1.85678C4.10014 2.07522 3.73405 2.29368 3.36797 2.54853C2.70902 3.13105 2.26972 3.8592 2.08668 4.69657C2.01346 4.98783 1.97684 5.27909 1.97684 5.57035C1.97684 6.04364 2.05006 6.48053 2.1965 6.95383C2.2331 7.13587 2.30632 7.3179 2.37954 7.49994V7.53635C2.48936 7.7548 2.56258 8.00965 2.81884 8.11887C2.92867 8.15528 3.00188 8.19168 3.07509 8.2645C3.36796 8.48294 3.77066 8.55576 4.10013 8.62858C4.393 8.70139 4.72248 8.7014 5.05195 8.7378C5.16178 8.7378 5.34481 8.7742 5.45463 8.7742C5.78411 8.73779 6.1502 8.70139 6.47967 8.66498C6.66271 8.62858 6.80915 8.62858 6.99219 8.55577C7.21184 8.48295 7.43148 8.37372 7.68774 8.30091C8.01722 8.19169 8.27348 7.97324 8.41991 7.68198C8.63956 7.3179 8.8226 6.91743 8.96903 6.51694C9.11547 6.15287 9.15208 5.78879 9.15208 5.3519V5.09705Z" transform="matrix(0.994985 -0.100024 0.10087 0.9949 74.3406 54.9763)" fill="#E54848"/>
<path d="M9.48849 9.83003C9.30545 9.83003 9.04919 9.90284 8.79293 9.90284C8.35363 9.93924 7.91434 9.90284 7.7313 9.61158C7.7313 9.57517 7.69468 9.53876 7.69468 9.50235C7.69468 9.28391 7.80451 8.88343 7.87773 8.7378C7.95094 8.51936 8.57328 8.41013 8.57328 8.22809C8.57328 8.22809 8.57328 8.19169 8.53667 8.15528C8.50006 8.08247 8.42685 8.04606 8.35363 7.97324L7.8045 7.35431L7.10895 6.51694C6.92591 6.2985 6.74287 6.08005 6.55982 5.8616L5.93748 5.06064L5.60801 5.38831C5.31514 5.64316 5.05889 5.93442 4.76602 6.22568C4.54637 6.40771 4.32671 6.58976 4.10706 6.73539L3.85081 6.95383L3.3749 7.35431V7.90042C3.3749 8.00965 3.3749 8.11887 3.3749 8.2645V8.33732C3.3749 8.48295 3.44812 8.51936 3.59455 8.51936H3.74098C4.07046 8.48295 4.39993 8.55576 4.6928 8.62857C4.83923 8.66498 4.87584 8.7378 4.87584 8.88343C4.87584 8.95625 4.87584 9.06546 4.87584 9.13828L4.91245 9.64799C4.94906 10.0485 4.65619 10.1941 4.36333 10.2305C4.2535 10.2669 4.10707 10.2669 3.96063 10.2669C3.77759 10.2669 3.63116 10.3033 3.44812 10.3033L0.958758 10.4489L0.556064 10.4854C0.446239 10.4854 0.263198 10.3397 0.189981 10.1577C0.153373 10.0849 0.153368 10.0121 0.11676 9.93925C0.11676 9.83002 0.116764 9.75721 0.189981 9.64799C0.226589 9.57518 0.263191 9.50236 0.263191 9.39313C0.263191 9.17469 0.373025 9.02905 0.592675 8.95624L1.47127 8.7378L1.50788 8.59216L1.36144 6.04364C1.32483 5.64316 1.32484 5.24268 1.28823 4.8422C1.28823 4.69657 1.21501 4.55093 1.21501 4.4053C1.21501 4.29608 1.21501 4.15046 1.21501 4.00483C1.21501 3.89561 1.21501 3.82279 1.21501 3.71356L1.1784 2.40289C1.1784 2.33008 1.1418 2.29367 1.1418 2.22085L0.702495 2.25726C0.37302 2.25726 0.226585 2.18445 0.11676 1.85678C0.11676 1.85678 0.116758 1.82038 0.0801494 1.82038C0.0435411 1.74756 0.00693952 1.63834 0.00693952 1.52911C-0.0296688 1.23785 0.0801517 0.873775 0.299802 0.764553C0.446235 0.691738 0.592675 0.691742 0.775716 0.655335C1.54449 0.58252 2.31326 0.473295 3.08204 0.436888C3.30169 0.436888 3.52134 0.400478 3.70438 0.400478C3.81421 0.400478 3.92402 0.546115 3.96063 0.691745C3.99724 1.01941 3.92403 1.34707 3.88742 1.67474V1.74756C3.88742 1.78397 3.88742 1.78397 3.88742 1.82038C3.85081 1.9296 3.7776 2.03882 3.70438 2.07523C3.55795 2.14804 3.41151 2.22085 3.26508 2.22085C3.19186 2.22085 3.11864 2.22086 3.00881 2.18445H2.97221H2.89899C2.97221 2.83979 3.04543 3.53153 3.08204 4.18687C3.11864 4.58735 3.15526 5.02424 3.15526 5.42472C3.19186 5.42472 3.30169 5.38831 3.3383 5.3519C3.52134 5.16986 3.66777 4.95142 3.85081 4.76938L4.47315 4.11405L4.76602 3.85919L5.31514 3.31308L6.12052 2.65775L6.8893 2.03882C6.92591 2.00241 6.92591 1.966 6.96252 1.89319C6.8893 1.85678 6.8893 1.85678 6.85269 1.85678C6.81608 1.85678 6.81608 1.85678 6.77948 1.89319C6.66965 1.89319 6.55983 1.85679 6.45 1.82038C6.23035 1.71116 6.12052 1.56552 6.12052 1.38348C6.12052 1.31067 6.12052 1.20144 6.15713 1.12863C6.19374 0.94659 6.23035 0.800963 6.30356 0.618925C6.34017 0.473295 6.41339 0.400487 6.59644 0.364079H6.63305C7.21878 0.327672 7.76789 0.254855 8.31702 0.145632C8.35363 0.145632 8.42684 0.109223 8.50006 0.109223C8.60989 0.109223 8.75632 0.109223 8.86614 0.109223C9.23223 0.072815 9.59831 0.0728106 9.96439 0.0364031L10.5135 4.44427e-06C10.6233 4.44427e-06 10.7698 0.072815 10.8796 0.109223C10.9162 0.14563 10.9528 0.218443 10.9528 0.25485V0.29126C10.9528 0.473297 10.9162 0.618925 10.9162 0.800963C10.9162 0.910185 10.9162 0.983007 10.9162 1.09223C10.9162 1.31067 10.8064 1.49271 10.5867 1.60193C9.9644 1.89319 9.63492 1.74756 9.12241 2.25726L7.54825 3.78638C7.43843 3.8956 7.40181 4.00483 7.40181 4.15046C7.43842 4.91501 9.08579 6.15286 9.41527 6.62616C9.52509 6.8082 9.74475 6.99024 9.92779 7.17227L10.1474 7.46354C10.3305 7.71839 10.5135 7.97324 10.7332 8.22809C11.0626 8.59216 11.9779 8.2645 12.4538 8.59216C12.4904 8.62857 12.527 8.66499 12.527 8.70139C12.5636 8.81062 12.6002 8.95625 12.6002 9.10188C12.6002 9.28392 12.6002 9.42954 12.5636 9.57517C12.527 9.83002 11.9778 9.90284 11.4287 9.97566C10.9162 10.0121 10.4403 10.0121 10.2939 10.0121C10.0376 10.0485 9.78136 10.0485 9.48849 10.0849V9.83003Z" transform="matrix(0.994985 -0.100024 0.10087 0.9949 86.0256 53.4355)" fill="#2D2D2D"/>
<path d="M5.35457 10.6637C8.31182 10.6637 10.7092 8.27654 10.7092 5.33184C10.7092 2.38715 8.31182 0 5.35457 0C2.39732 0 0 2.38715 0 5.33184C0 8.27654 2.39732 10.6637 5.35457 10.6637Z" transform="translate(63.0549 96.1504)" stroke="#333333" stroke-miterlimit="10"/>
<path d="M5.35458 10.6637C8.31183 10.6637 10.7091 8.27653 10.7091 5.33184C10.7091 2.38714 8.31183 0 5.35458 0C2.39733 0 0 2.38714 0 5.33184C0 8.27653 2.39733 10.6637 5.35458 10.6637Z" transform="translate(83.469 96.2061)" stroke="#333333" stroke-miterlimit="10"/>
<path d="M-3.40435e-06 1.3142C2.84461 -0.574164 6.35855 -0.296464 10.3187 1.3142" transform="translate(73.541 98.3909)" stroke="#333333" stroke-miterlimit="10"/>
<path d="M1.70217e-06 5.94278L11.9362 -3.38989e-06" transform="translate(93.8438 93.7622)" stroke="#333333" stroke-miterlimit="10"/>
<path d="M12.9402 6.27602L0 1.69495e-06" transform="translate(50.4492 93.4287)" stroke="#333333" stroke-miterlimit="10"/>
<path d="M-3.40435e-06 2.82758C2.00796 6.3266 3.79282 6.27106 5.46613 2.54988C3.45816 -0.949145 1.61752 -0.838065 -3.40435e-06 2.82758Z" transform="translate(84.9756 90.7122)" fill="#2D2D2D"/>
<path d="M0 2.82758C2.00797 6.3266 3.79282 6.27106 5.46613 2.54988C3.45816 -0.949142 1.61753 -0.838062 0 2.82758Z" transform="translate(66.0671 91.0454)" fill="#2D2D2D"/>
<path d="M0 1.91707C1.33864 4.30529 2.56574 4.24976 3.68127 1.75046C2.34263 -0.63776 1.11554 -0.582227 0 1.91707Z" transform="translate(79.4536 108.785)" fill="#D8A68B"/>
<path d="M0 1.91707C1.33864 4.30529 2.56574 4.24976 3.68127 1.75046C2.34263 -0.63776 1.11554 -0.582227 0 1.91707Z" transform="translate(72.7603 108.785)" fill="#D8A68B"/>
<path d="M16.2868 -3.38989e-06C11.8805 4.60982 4.85258 4.9986 -8.51087e-07 0.833097L16.2868 -3.38989e-06Z" transform="translate(70.0271 118.755)" fill="white"/>
</svg>
