<svg width="278" height="187" viewBox="0 0 278 187" fill="none" xmlns="http://www.w3.org/2000/svg">
<path d="M1.32525e-08 3.39385e-06C53.4729 3.39385e-06 106.89 3.39385e-06 160.363 3.39385e-06C155.638 41.2032 109.447 31.6392 80.2094 31.6392C49.4708 31.6392 7.22607 40.9252 1.32525e-08 3.39385e-06Z" transform="translate(0.947754 146.407)" fill="#DC3221"/>
<path d="M3.39265e-06 32.8949C3.3907 13.6 108.169 -9.86526 118.118 4.36958C130.236 21.6627 80.932 18.6044 72.2607 19.4941C49.6375 21.7739 20.1218 21.6627 3.39265e-06 32.8949Z" transform="translate(157.976 127.692)" fill="#242623"/>
<path d="M-8.48162e-07 11.8994C1.16729 -3.83674 31.7947 3.55871 46.1357 3.55871C59.4205 3.55871 102.999 -4.44839 113.394 3.55871C125.845 13.1784 74.9844 11.8994 72.3719 11.8994C48.2479 11.8994 24.124 11.8994 -8.48162e-07 11.8994Z" transform="translate(24.8496 175.044)" fill="#2A2727"/>
<path d="M8.97296 10.2313C9.41764 14.1792 7.97243 16.9039 4.52615 18.3496C-5.25683 18.3496 3.74796 2.72463 4.52615 -3.39385e-06C6.91631 3.05826 8.41711 6.45016 8.97296 10.2313Z" transform="translate(77.5764 165.48)" fill="#FF6551"/>
<path d="M6.86029 7.39544C5.80417 9.39721 4.69248 11.3434 3.63636 13.3452C-4.20115 13.3452 2.96934 1.72375 3.63636 0C4.74806 2.50222 5.80417 4.94883 6.86029 7.39544Z" transform="translate(78.4661 170.262)" fill="#FFB54B"/>
<path d="M4.83591 5.96766C3.22394 11.9174 1.61197 11.9174 1.69632e-06 5.96766C1.69632e-06 3.35423 4.44681 -6.04299 4.83591 5.96766Z" transform="translate(79.7122 173.191)" fill="#FAC953"/>
<path d="M9.38153 10.6205C9.38153 14.6241 7.6028 17.1263 4.04535 18.1828C-5.68205 17.0707 5.04589 2.55783 6.15759 3.39385e-06C8.21424 3.22509 9.27036 6.7838 9.38153 10.6205Z" transform="translate(103.682 165.591)" fill="#FF6551"/>
<path d="M7.15753 7.72908C5.87907 9.56404 4.54503 11.399 3.26657 13.234C-4.51535 12.3443 3.9336 1.61254 4.82296 3.39385e-06C6.26817 2.33541 7.04636 4.89323 7.15753 7.72908Z" transform="translate(104.516 170.318)" fill="#FFB54B"/>
<path d="M4.83591 6.12111C2.55692 11.8484 0.944949 11.626 1.69632e-06 5.56506C0.333513 2.95163 5.83644 -5.83393 4.83591 6.12111Z" transform="translate(105.837 173.26)" fill="#FAC953"/>
<path d="M10.156 11.121C9.15548 14.9577 6.76533 16.9595 3.04112 17.0707C-6.07484 13.512 8.04378 2.2242 9.76692 3.39385e-06C10.8786 3.66992 11.0454 7.39545 10.156 11.121Z" transform="translate(130.2 166.703)" fill="#FF6551"/>
<path d="M7.65718 8.06271C5.93404 9.50844 4.2109 10.9542 2.48776 12.3999C-4.7939 9.50843 6.10079 1.33452 7.37925 3.39385e-06C8.15744 2.61343 8.26861 5.33807 7.65718 8.06271Z" transform="translate(130.864 171.152)" fill="#FFB54B"/>
<path d="M4.65632 6.2139C0.987703 11.1627 -0.51309 10.5511 0.153931 4.43454C1.15446 1.98792 8.71404 -5.07389 4.65632 6.2139Z" transform="translate(132.531 174.057)" fill="#FAC953"/>
<path d="M0 10.6205C0 14.6241 1.77872 17.1263 5.33617 18.1828C15.0636 17.0707 4.33564 2.55783 3.22394 3.39385e-06C1.16729 3.22509 0.11117 6.7838 0 10.6205Z" transform="translate(50.9194 165.591)" fill="#FF6551"/>
<path d="M-8.48162e-07 7.72908C1.27846 9.56404 2.6125 11.399 3.89096 13.234C11.6729 12.3443 3.22394 1.61254 2.33458 3.39385e-06C0.833779 2.33541 0.0555843 4.89323 -8.48162e-07 7.72908Z" transform="translate(52.3647 170.318)" fill="#FFB54B"/>
<path d="M0.121402 6.12111C2.40039 11.8484 4.01236 11.626 4.95731 5.56506C4.6238 2.95163 -0.879131 -5.83393 0.121402 6.12111Z" transform="translate(53.1882 173.26)" fill="#FAC953"/>
<path d="M0.547083 11.121C1.54762 14.9577 3.93778 16.9595 7.66198 17.0707C16.7779 13.512 2.65932 2.2242 0.936177 3.39385e-06C-0.175526 3.66992 -0.286694 7.39545 0.547083 11.121Z" transform="translate(23.0798 166.703)" fill="#FF6551"/>
<path d="M0.433278 8.06271C2.15642 9.50844 3.87956 10.9542 5.6027 12.3999C12.8843 9.50843 1.98966 1.33452 0.711204 3.39385e-06C-0.122573 2.61343 -0.233743 5.33807 0.433278 8.06271Z" transform="translate(25.0837 171.152)" fill="#FFB54B"/>
<path d="M1.18204 6.2139C4.85066 11.1627 6.35146 10.5511 5.68443 4.43454C4.73949 1.98792 -2.87568 -5.07389 1.18204 6.2139Z" transform="translate(25.613 174.057)" fill="#FAC953"/>
<path d="M10.2925 89.9131C8.73614 88.5785 7.29093 87.0772 5.95688 85.4091C4.67843 83.7409 3.51114 81.906 2.62178 79.9598C0.787466 76.0118 -0.101896 71.5079 0.00927417 67.0595C0.0648593 64.8353 0.342784 62.6111 0.787465 60.4981C1.23215 58.3851 1.84358 56.2721 2.51061 54.2703C3.17763 52.2686 4.0114 50.3224 4.7896 48.4318C5.62337 46.5413 6.51274 44.7063 7.34651 42.8713C10.8484 35.6427 14.5726 28.9701 16.0734 21.9639C16.8516 18.4608 16.9627 14.8465 16.3513 11.1766C16.0734 9.34162 15.5731 7.45105 14.9061 5.61609C14.2947 3.78113 13.5165 1.89057 12.6827 -1.65715e-09C14.2947 1.27891 15.7399 2.78024 17.0739 4.39278C18.408 6.00532 19.5752 7.84029 20.4646 9.78646C22.3545 13.7344 23.1883 18.294 22.9659 22.7424C22.9659 23.2984 22.9104 23.8545 22.8548 24.4105C22.7992 24.9666 22.7436 25.5226 22.688 26.0787C22.5213 27.1908 22.2989 28.2473 22.0766 29.3038C21.6319 31.4167 20.9649 33.4741 20.2423 35.4759C19.5197 37.4777 18.6859 39.3682 17.9077 41.2588C17.0739 43.1494 16.1845 44.9287 15.2952 46.7637C11.7933 53.9367 8.23587 60.6093 6.84625 67.7267C6.12364 71.2298 6.06805 74.8997 6.6239 78.5697C6.90183 80.4046 7.4021 82.2952 8.01353 84.1858C8.79172 86.1319 9.51433 88.0225 10.2925 89.9131Z" transform="translate(74.3401)" fill="white"/>
<path d="M6.72928 58.0515C4.72822 56.3277 3.00508 54.1591 1.7822 51.6569C0.559329 49.1547 -0.052107 46.2632 0.0034781 43.3718C0.0590632 40.4803 0.726085 37.7001 1.61545 35.0867C2.06013 33.8078 2.61598 32.5288 3.11625 31.3055C3.6721 30.0822 4.28353 28.9145 4.83939 27.7468C7.17396 23.076 9.67529 18.7944 10.5647 14.2348C11.0649 11.955 11.1205 9.61964 10.6758 7.22863C10.2867 4.83762 9.34178 2.44661 8.23008 -8.48463e-07C10.2867 1.66814 12.0099 3.83674 13.2327 6.33895C14.4556 8.84117 15.0115 11.7882 14.8447 14.6797C14.7335 17.5711 13.9553 20.3514 13.0104 22.9092C12.5101 24.1881 12.0099 25.4114 11.454 26.6347C10.8982 27.858 10.2867 29.0257 9.73088 30.1934C7.3963 34.8086 5.06173 39.0902 4.22795 43.7054C3.78327 45.9852 3.78327 48.3206 4.22795 50.7672C4.83939 53.2138 5.72875 55.6049 6.72928 58.0515Z" transform="translate(50 22.4087)" fill="white"/>
<path d="M6.72928 58.0515C4.72822 56.3277 3.00507 54.1591 1.7822 51.6569C0.559329 49.1547 -0.0521062 46.2632 0.00347895 43.3718C0.0590641 40.4803 0.726087 37.7001 1.61545 35.0867C2.06013 33.8078 2.61598 32.5288 3.11625 31.3055C3.6721 30.0822 4.28353 28.9145 4.83939 27.7468C7.17396 23.076 9.67529 18.7944 10.5647 14.2348C11.0649 11.955 11.1205 9.61964 10.6758 7.22863C10.2867 4.83762 9.34178 2.44661 8.23008 -8.48463e-07C10.2867 1.66814 12.0099 3.83674 13.2327 6.33895C14.4556 8.84117 15.0115 11.7882 14.8447 14.6797C14.7335 17.5711 13.9554 20.3514 13.0104 22.9092C12.5101 24.1881 12.0099 25.4114 11.454 26.6347C10.8982 27.858 10.2867 29.0257 9.73088 30.1934C7.3963 34.8086 5.06173 39.0902 4.22795 43.7054C3.78327 45.9852 3.78327 48.3206 4.22795 50.7672C4.83939 53.2139 5.72875 55.6049 6.72928 58.0515Z" transform="translate(103.917 19.0725)" fill="white"/>
<path d="M1.32525e-08 10.2652C53.3617 10.2652 106.723 10.2652 160.085 10.2652C160.085 8.59704 160.085 6.92889 160.085 5.26075C130.57 5.26075 12.4511 -9.41894 1.32525e-08 10.2652Z" transform="translate(0.948242 136.643)" fill="#BC2820"/>
<path d="M1.32526e-08 10.2652C53.3619 10.2652 106.724 10.2652 160.086 10.2652C160.086 8.59701 160.086 6.92887 160.086 5.26073C130.57 5.26073 12.4511 -9.41891 1.32526e-08 10.2652Z" transform="translate(1.50391 116.959) rotate(5.30017)" fill="#E6E6E6"/>
<path d="M0 6.17212H153.193C98.6083 -2.05737 54.6404 -2.05737 0 6.17212Z" transform="translate(8.45117 116.688) rotate(5.30017)" fill="#FDFFFA"/>
<path d="M-8.48162e-07 0.0775063C5.66968 0.80037 15.8418 1.69005 23.3458 1.1896C17.6205 0.0775063 7.55958 -0.144913 -8.48162e-07 0.0775063Z" transform="translate(69.874 131.261)" fill="#D3D6D0"/>
<path d="M-1.69633e-06 12.0819C38.9653 22.8136 4.94709 -19.8352 -1.69633e-06 12.0819V12.0819Z" transform="translate(73.4961 111.766) rotate(5.30017)" fill="#2A2727"/>
</svg>
