<svg width="38" height="35" viewBox="0 0 38 35" fill="none" xmlns="http://www.w3.org/2000/svg">
<path d="M35.7509 8.24623C39.2152 14.8439 38.6129 21.0872 34.3896 27.2368C27.4326 37.3671 8.9467 37.806 2.69213 27.2368C-1.09594 20.8355 -0.813817 14.5844 3.08106 8.24623C9.70924 -2.53995 29.8689 -2.95558 35.7509 8.24623Z" fill="#66CC33" fill-opacity="0.5"/>
<path d="M10.7327 10.1735C5.95666 6.95517 0.201504 1.7634 0.0229739 1.35646C-0.155556 0.949522 0.736953 0 1.62943 0C2.5219 -2.98945e-10 7.62137 4.79635 11.2681 6.91795C15.2085 4.84847 20.0144 0.542584 20.7284 0.406938C21.4423 0.271292 22.6918 0.67823 22.6918 1.35646C22.6918 2.03469 15.9544 7.10614 10.7327 10.1735Z" transform="translate(8.24976 9.24719)" fill="white"/>
<path d="M10.7327 10.1735C5.95666 6.95517 0.201504 1.7634 0.0229739 1.35646C-0.155556 0.949522 0.736953 0 1.62943 0C2.5219 -2.98945e-10 7.62137 4.79635 11.2681 6.91795C15.2085 4.84847 20.0144 0.542584 20.7284 0.406938C21.4423 0.271292 22.6918 0.67823 22.6918 1.35646C22.6918 2.03469 15.9544 7.10614 10.7327 10.1735Z" transform="translate(7.80029 16.2634)" fill="white"/>
</svg>
