<svg width="201" height="231" viewBox="0 0 201 231" fill="none" xmlns="http://www.w3.org/2000/svg">
<path d="M4.80995 0C-5.70785 15.8881 1.89465 28.2056 19.1576 26.5482C20.5866 7.05957 22.9303 6.40097 4.80995 0Z" transform="translate(96.3672 81.4408)" fill="#ECBB9B"/>
<path d="M0.423404 5.25856C-2.66334 18.5177 12.1416 7.94468 12.0844 7.94468C12.1416 8.00183 3.51015 -8.00059 0.423404 5.25856Z" transform="translate(83.4907 34.4916)" fill="#FBCAA9"/>
<path d="M-1.74444e-06 2.35382C1.08608 6.86879 3.08675 7.32601 6.05917 3.72546C4.97309 -0.732356 2.97242 -1.18957 -1.74444e-06 2.35382Z" transform="translate(86.7153 38.025)" fill="#D8A68B"/>
<path d="M0.476071 6.11887C-2.61067 19.378 10.2508 12.9471 12.1371 8.80499C14.0234 4.66292 3.56282 -7.14027 0.476071 6.11887Z" transform="translate(141.229 47.0619)" fill="#FBCAA9"/>
<path d="M1.74444e-06 2.39614C1.08608 6.9111 3.08674 7.36832 6.05916 3.76777C4.97309 -0.747196 2.91526 -1.20441 1.74444e-06 2.39614Z" transform="translate(144.506 51.4705)" fill="#D8A68B"/>
<path d="M15.1806 78.3456C34.0441 86.8611 49.4206 72.6876 56.623 56.7423C60.3386 48.5696 66.1119 33.4816 66.4549 24.566C67.0265 8.7922 66.5692 11.5926 50.0494 7.59202C27.5848 2.16262 10.4933 -10.0678 4.54849 16.3933C-0.76757 39.5969 -5.45484 61.4287 15.1806 78.3456Z" transform="translate(87.4255 9.35474)" fill="#FBCAA9"/>
<path d="M18.9778 6.59602C17.4916 4.99578 5.31581 -0.977885 0 0.137908C1.48621 1.73815 11.032 5.3087 18.9778 6.59602Z" transform="translate(125.871 36.1261)" fill="#2D2D2D"/>
<path d="M19.778 3.5154C14.5763 -0.88526 7.31639 -0.0579958 0 0.31492C1.88609 1.65664 10.1745 2.22815 19.778 3.5154Z" transform="translate(97.29 31.2054)" fill="#2D2D2D"/>
<path d="M-1.74444e-06 2.12866C0.971751 6.18642 2.80093 6.58648 5.43038 3.386C4.45863 -0.671757 2.62945 -1.07182 -1.74444e-06 2.12866Z" transform="translate(130.444 46.2513)" fill="#2D2D2D"/>
<path d="M-3.48889e-06 2.12866C0.971749 6.18642 2.80093 6.58648 5.43038 3.386C4.45863 -0.671757 2.62945 -1.07182 -3.48889e-06 2.12866Z" transform="translate(102.263 39.7362)" fill="#2D2D2D"/>
<path d="M-1.74444e-06 1.41585C0.685942 4.15913 1.88635 4.44488 3.65837 2.27313C3.02959 -0.470145 1.82918 -0.698751 -1.74444e-06 1.41585Z" transform="translate(118.44 59.1375)" fill="#D8A68B"/>
<path d="M1.74444e-06 1.39715C0.685945 4.14042 1.88634 4.42618 3.65836 2.25442C3.02958 -0.431696 1.82918 -0.717454 1.74444e-06 1.39715Z" transform="translate(110.78 57.3844)" fill="#D8A68B"/>
<path d="M0.156374 1.27345C8.6735 13.8468 14.6183 15.6756 26.9653 7.50296C27.8799 6.87429 27.0225 5.50266 26.0507 6.07417C17.5908 11.1035 6.95864 8.64599 1.58542 0.416174C0.956641 -0.555402 -0.472407 0.359022 0.156374 1.27345Z" transform="translate(100.049 65.0521)" fill="#D8A68B"/>
<path d="M50.7884 31.0632C39.9277 28.8915 17.2915 29.0629 8.66008 22.6048C-1.85772 14.775 -4.8873 4.43061 11.5753 0.258555C17.806 -1.34169 43.6432 4.88783 49.7024 7.91686C56.0473 11.0602 63.8785 9.57425 62.8496 20.4902C62.278 26.5482 57.8194 32.492 50.7884 31.0632Z" transform="translate(86.9722)" fill="#2D2D2D"/>
<path d="M8.87053 24.0453C-4.50536 19.0731 -2.61901 -2.93019 13.615 0.327446C29.2202 3.41363 24.4186 27.1315 8.87053 24.0453Z" transform="translate(143.123 15.5334)" fill="#2D2D2D"/>
<path d="M72.2833 131.007C56.1636 131.007 31.9841 135.75 16.779 131.007C1.34532 126.206 4.37492 131.665 4.03195 115.263C3.57465 93.7738 -8.25787 14.5047 10.8914 2.61721C18.6082 -2.18351 54.9632 0.731216 64.1663 2.61721C80.5718 5.932 78.514 8.50382 79.3714 24.9063C80.0002 37.3082 86.0022 131.007 72.2833 131.007Z" transform="translate(63.5337 97.885)" fill="#F2C94C"/>
<path d="M0 20.9181C0 20.9181 8.91295 31.4826 15.4209 37.4482C30.6317 51.3913 49.6582 73.4466 60.2329 65.4452C63.6625 48.585 52.319 39.3758 52.319 39.3758L32.904 24.9562C32.904 24.9562 20.0632 15.6028 11.8322 0C7.8881 6.9727 0 20.9181 0 20.9181Z" transform="translate(173.11 190.517) rotate(-158.299)" fill="white"/>
<path d="M77.7931 18.4626C71.1061 40.5833 75.7525 41.5024 69.0655 63.6231C48.9223 56.2395 17.8845 71.5253 0 48.354C6.85408 41.7761 14.4848 40.2916 25.0573 38.8554C41.3979 37.9067 45.265 39.0809 55.7353 38.6668C60.9934 21.8619 57.1606 16.8049 62.4187 0C67.5054 6.11608 72.6492 12.2893 77.7931 18.4626Z" transform="translate(114.961 124.224) rotate(118.113)" fill="white"/>
<ellipse cx="48.5892" cy="30.5441" rx="48.5892" ry="30.5441" transform="translate(0 144.45)" fill="white"/>
<path d="M0 8.46203V-2.9547e-07H55.6311V7.76492C56.3067 8.55884 52.7743 12.8189 44.9952 13.6322C39.2622 14.2131 38.7796 19.8867 22.1212 20.7C6.35067 21.4746 0.289544 9.3334 0 8.46203Z" transform="translate(20.1458 165)" fill="#CC5F4E"/>
<path d="M24.7211 0C16.6138 0 1.17147 8.32648 0.206327 10.8438C-0.758821 13.3611 0.978444 28.6586 20.4744 29.0459C39.9704 29.4331 38.8122 21.8812 45.1822 21.4939C51.5522 21.1067 58.8873 12.7802 54.0616 9.39149C49.2358 6.00281 35.7238 0.193639 31.4192 0.329186C27.1146 0.464734 24.7211 0 24.7211 0Z" transform="translate(20.1519 153.071)" fill="#BA4922"/>
<path d="M22.3749 30.0334C21.9117 30.0334 21.4484 30.0334 20.9465 30.0141C10.4843 29.801 5.33043 25.328 2.84035 21.6295C-0.0937002 17.2532 -0.306033 12.5672 0.23445 11.1536C0.852144 9.5464 5.7744 6.58373 10.0597 4.53115C12.8972 3.15632 20.0586 0 25.2125 0H25.309C25.3283 0 27.7025 0.44537 31.8913 0.309822C36.5047 0.193639 50.1133 6.17709 54.8232 9.48831C56.3867 10.5727 56.9272 12.2574 56.3867 14.2131C55.2672 18.1827 50.0747 22.191 45.7122 22.4621C43.6275 22.5977 42.3921 23.5465 40.8286 24.7664C37.9524 26.9933 34.0725 30.0334 22.3749 30.0334ZM25.1546 0.968195C21.6607 0.987559 16.3138 2.59476 10.465 5.40253C5.1181 7.97793 1.50844 10.5146 1.14169 11.5022C0.736327 12.5672 0.871447 16.9628 3.63177 21.0873C5.98673 24.6115 10.909 28.8522 20.9658 29.0459C33.4355 29.2976 37.354 26.2381 40.2109 24.0112C41.8323 22.7332 43.2414 21.6488 45.635 21.4939C49.9781 21.2228 54.553 17.1564 55.4409 13.942C55.8849 12.3735 55.4795 11.1342 54.2634 10.2629C49.2639 6.758 35.9642 1.16183 31.9106 1.29738C27.8763 1.41357 25.5213 1.02629 25.1546 0.968195Z" transform="translate(19.6604 152.587)" fill="#CE7B6F"/>
<path d="M6.31206 6.93228C9.79812 6.93228 12.6241 5.38043 12.6241 3.46614C12.6241 1.55184 9.79812 0 6.31206 0C2.82601 0 0 1.55184 0 3.46614C0 5.38043 2.82601 6.93228 6.31206 6.93228Z" transform="translate(31.8625 163.199)" fill="#EFC0AF"/>
<path d="M11.4698 0C11.4698 0 8.0918 1.83957 6.83711 3.38868C5.58241 4.9378 -0.787558 17.1371 0.0810742 18.2021C0.949707 19.2671 4.48215 12.2574 7.04944 7.70683C9.61673 3.15632 11.4698 0 11.4698 0Z" transform="translate(42.2629 158.009)" fill="#CC5F4E"/>
<path d="M11.4698 -1.47735e-07C11.4698 -1.47735e-07 8.0918 1.83957 6.8371 3.38868C5.58241 4.9378 -0.787559 17.1371 0.0810736 18.2021C0.949706 19.2671 4.48215 12.2574 7.04944 7.70683C9.59743 3.15632 11.4698 -1.47735e-07 11.4698 -1.47735e-07Z" transform="translate(51.6633 160.972)" fill="#CC5F4E"/>
<path d="M0 18.3107C0 18.3107 3.37802 16.4711 4.63271 14.922C5.8874 13.3729 12.2574 1.1736 11.3887 0.108587C10.5201 -0.956428 6.98767 6.05331 4.43968 10.6038C1.89169 15.1543 0 18.3107 0 18.3107Z" transform="translate(45.9153 159.256)" fill="#CC5F4E"/>
<path d="M8.90591 0L0 7.12526V3.30815L8.90591 0Z" transform="translate(25.4934 184.021) scale(0.999728 1.00027) rotate(41.1762)" fill="#66CC33"/>
<path d="M8.90588 0L0 7.12529V3.30817L8.90588 0Z" transform="translate(56.8157 193.266) scale(0.999729 1.00027) rotate(-40.7534)" fill="#66CC33"/>
<path d="M8.52729 0L0 6.82369V3.16814L8.52729 0Z" transform="matrix(0.863532 0.504294 -0.503878 0.863775 43.6323 151.577)" fill="#66CC33"/>
<path d="M8.52692 0L0 6.82399V3.16828L8.52692 0Z" transform="translate(17.7024 177.968) scale(0.999771 1.00023) rotate(-135.441)" fill="#66CC33"/>
<path d="M8.90507 0L0 7.12593V3.30847L8.90507 0Z" transform="matrix(0.858673 0.512524 -0.512105 0.858923 83.9014 173.162)" fill="#66CC33"/>
<ellipse cx="50.8104" cy="31.9731" rx="50.8104" ry="31.9731" transform="translate(98.8901 155.88)" fill="white"/>
<path d="M0.445811 0C1.56034 0.296046 3.96771 0.84373 4.68101 0.666103C5.39431 0.488475 5.42403 2.36836 5.34973 3.33051C4.3095 3.55255 2.00615 3.95221 1.11453 3.77458C0.257447 3.60383 0.0182745 3.69296 0.00102954 3.76586L0 3.77458C0 3.77171 0.000334541 3.7688 0.00102954 3.76586L0.445811 0Z" transform="matrix(0.998098 0.0616395 -0.0614462 0.99811 133.269 172.172)" fill="#F2CF52"/>
<ellipse cx="3.12067" cy="5.32882" rx="3.12067" ry="5.32882" transform="matrix(0.998098 0.0616395 -0.0614462 0.99811 127.743 167.604)" fill="#D1AA1F"/>
<path d="M33.1101 0L34.6573 7.3286L1.89102 14.1709L0 11.9133C10.9679 7.1202 21.9702 2.95228 33.1101 0Z" transform="translate(131.698 165.472)" fill="#F18556"/>
<path d="M9.6614 10.2114C13.0309 11.1145 16.1253 10.8366 18.7383 8.33585C43.8717 -2.0145 62.61 -0.90305 72.6152 12.1912L63.0914 13.8583L72.8903 15.2477C61.0284 27.1957 44.6281 31.7804 17.363 18.7209C15.5064 17.5053 12.9965 17.2969 9.62702 18.3736C9.00814 18.582 8.49241 18.9988 8.21735 19.5892C6.39509 23.0972 3.43822 26.1885 0 29.1755L3.95395 14.0667L0 -2.64989e-07C3.26631 2.67442 6.01689 5.6267 8.07982 9.0305C8.45802 9.58622 9.00814 10.0377 9.6614 10.2114Z" transform="translate(114.851 171.307)" fill="#F6AF8F"/>
<path d="M3.79569 6.84234C5.65233 4.41105 7.57773 2.29236 9.53752 0.38206L3.0049 1.05996e-06C1.80152 0.451526 0.838818 1.21564 0.082409 2.22289C-0.123884 2.98701 0.0480279 3.7164 0.70129 4.41105L3.79569 6.84234Z" transform="translate(152.589 197.531)" fill="#E47C59"/>
<path d="M8.80185 6.28662L12.3776 3.92479L2.95687 5.29979e-07C1.37529 0.729387 0.171911 1.49351 2.62315e-07 2.39656C2.64743 4.06373 5.53554 5.34883 8.80185 6.28662Z" transform="translate(129.704 190.271)" fill="#E07853"/>
<path d="M2.39247 22.8888L0.432682 15.2477C-0.186198 12.7469 -0.151815 10.1419 0.604593 7.67592L2.94258 1.32495e-07C9.81903 1.84083 14.9764 5.10571 18.3458 9.86408L8.82194 11.5313L18.6209 12.9206C15.3202 16.7759 8.27183 21.3259 2.39247 22.8888Z" transform="translate(169.086 173.669)" fill="#EF885F"/>
<path d="M2.16608 4.37632C3.36237 4.37632 4.33216 3.39665 4.33216 2.18816C4.33216 0.979673 3.36237 0 2.16608 0C0.969787 0 0 0.979673 0 2.18816C0 3.39665 0.969787 4.37632 2.16608 4.37632Z" transform="translate(171.994 177.004)" fill="#212121"/>
<path d="M0.445811 0C1.56034 0.296046 3.96771 0.84373 4.68101 0.666103C5.39431 0.488475 5.42403 2.36836 5.34973 3.33051C4.3095 3.55255 2.00615 3.95221 1.11453 3.77458C0.257447 3.60383 0.0182745 3.69296 0.00102954 3.76586L0 3.77458C0 3.77171 0.000334541 3.7688 0.00102954 3.76586L0.445811 0Z" transform="matrix(0.998098 0.0616395 -0.0614462 0.99811 146.038 199.349)" fill="#F2CF52"/>
<ellipse cx="3.12067" cy="5.32882" rx="3.12067" ry="5.32882" transform="matrix(0.998098 0.0616395 -0.0614462 0.99811 140.512 194.781)" fill="#D1AA1F"/>
<path d="M0.512497 0C1.79374 0.340154 4.56123 0.96944 5.38122 0.765347C6.20122 0.561254 6.23539 2.72123 6.14997 3.82673C4.95414 4.08185 2.30624 4.54106 1.28124 4.33697C0.295958 4.14078 0.0210082 4.24319 0.00118355 4.32695L0 4.33697C0 4.33367 0.000384585 4.33033 0.00118355 4.32695L0.512497 0Z" transform="matrix(-0.912201 0.409743 -0.408668 -0.912683 171.93 204.796)" fill="#F2CF52"/>
<ellipse cx="3.58748" cy="6.12278" rx="3.58748" ry="6.12278" transform="matrix(-0.912201 0.409743 -0.408668 -0.912683 179.989 206.49)" fill="#D1AA1F"/>
<path d="M9.31717 0L0 7.4553V3.46139L9.31717 0Z" transform="matrix(0.75215 0.658992 -0.657816 0.753179 120.82 194.781)" fill="#66CC33"/>
<path d="M9.31707 0L0 7.45539V3.46143L9.31707 0Z" transform="matrix(0.756991 -0.653426 0.652245 0.758008 130.28 207.264)" fill="#66CC33"/>
<path d="M8.91943 0L0 7.14108V3.3155L8.91943 0Z" transform="matrix(0.863307 0.504679 -0.503494 0.863999 144.517 163.341)" fill="#66CC33"/>
<path d="M9.31466 0L0 7.45731V3.46232L9.31466 0Z" transform="matrix(0.858442 0.51291 -0.511719 0.859153 183.577 191.584)" fill="#66CC33"/>
</svg>
