<svg width="168" height="301" viewBox="0 0 168 301" fill="none" xmlns="http://www.w3.org/2000/svg">
<path d="M10.1846 16.9231C20.2643 7.23754 100.902 -8.67445 150.257 5.85392C162.424 9.43527 163.602 29.7011 164.508 34.9105C173.892 88.8727 162.075 283.275 155.819 290.54C149.562 297.804 26.8682 309.911 10.1846 290.54C-6.49897 271.169 0.104974 26.6087 10.1846 16.9231Z" fill="white"/>
<path d="M2.67448 11.2481C-3.99896 7.92732 3.5622 2.28155 6.49784 1.98855C12.6295 1.37655 124.256 -2.1624 129.539 1.98855C131.5 3.52909 132.026 7.94889 129.539 11.2481C124.326 18.1663 11.0163 15.399 2.67448 11.2481Z" transform="translate(19.5696 169.47)" fill="#F2F2F2"/>
<path d="M2.67448 11.2481C-3.99896 7.92732 3.5622 2.28155 6.49784 1.98855C12.6295 1.37655 124.256 -2.1624 129.539 1.98855C131.5 3.52909 132.026 7.94889 129.539 11.2481C124.326 18.1663 11.0163 15.399 2.67448 11.2481Z" transform="translate(148.001 211.222) rotate(180)" fill="#F2F2F2"/>
<path d="M2.67448 11.2481C-3.99896 7.92732 3.5622 2.28155 6.49784 1.98855C12.6295 1.37655 124.256 -2.1624 129.539 1.98855C131.5 3.52909 132.026 7.94889 129.539 11.2481C124.326 18.1663 11.0163 15.399 2.67448 11.2481Z" transform="translate(16.7881 220.665)" fill="#F2F2F2"/>
<path d="M121.123 6.62124C122.29 7.07572 122.012 19.7523 116.257 23.5709C104.787 31.181 9.78339 31.5883 2.94703 23.5709C-0.0786013 20.0226 -2.3306 9.23207 4.33733 6.62124C25.5394 -1.68047 97.1399 -2.71845 121.123 6.62124Z" transform="translate(27.8057 262.893)" fill="#66CC33"/>
<path d="M10.0134 10.6523C9.90399 10.3112 9.79722 9.97656 9.69305 9.64844C9.64878 9.50781 9.60191 9.36328 9.55243 9.21484C9.50295 9.06641 9.45347 8.91927 9.40399 8.77344C9.35712 8.6276 9.31024 8.48698 9.26337 8.35156C9.21649 8.21615 9.17222 8.09375 9.13055 7.98438C9.11233 7.9349 9.08238 7.90495 9.04071 7.89453C8.99904 7.88151 8.95087 7.87891 8.89618 7.88672C8.84149 7.89453 8.7816 7.90755 8.71649 7.92578C8.65399 7.94141 8.59279 7.95312 8.5329 7.96094C8.13706 8.01823 7.73733 8.06641 7.33368 8.10547C6.93264 8.14453 6.53029 8.16406 6.12665 8.16406C5.88186 8.16406 5.63706 8.15625 5.39227 8.14062C5.35581 8.13802 5.32587 8.13411 5.30243 8.12891C5.27899 8.1237 5.25686 8.12109 5.23602 8.12109C5.21519 8.12109 5.19696 8.12891 5.18134 8.14453C5.16571 8.16016 5.15139 8.1901 5.13837 8.23438C5.11233 8.32552 5.08368 8.42057 5.05243 8.51953C5.02118 8.61849 4.99123 8.72005 4.96259 8.82422C4.93394 8.92578 4.9092 9.02865 4.88837 9.13281C4.87014 9.23438 4.86102 9.33464 4.86102 9.43359C4.86102 9.54297 4.87535 9.65104 4.90399 9.75781C4.93264 9.86198 4.9743 9.96094 5.02899 10.0547C5.08628 10.1458 5.15399 10.2292 5.23212 10.3047C5.31285 10.3776 5.40399 10.4349 5.50555 10.4766C5.65139 10.5391 5.80634 10.5859 5.9704 10.6172C6.13706 10.6484 6.29331 10.6732 6.43915 10.6914C6.47821 10.6966 6.50686 10.707 6.52509 10.7227C6.54331 10.7383 6.55634 10.7578 6.56415 10.7812C6.57196 10.8047 6.57717 10.832 6.57977 10.8633C6.58238 10.8945 6.58759 10.9271 6.5954 10.9609C6.01727 10.9323 5.44696 10.8828 4.88446 10.8125C4.32456 10.7422 3.75816 10.6523 3.18524 10.543C3.14097 10.5326 3.10842 10.5156 3.08759 10.4922C3.06936 10.4661 3.05634 10.4362 3.04852 10.4023C3.03811 10.3659 3.0316 10.3268 3.02899 10.2852C3.02639 10.2435 3.02248 10.2031 3.01727 10.1641C3.08498 10.1823 3.15529 10.1979 3.22821 10.2109C3.30113 10.2214 3.37404 10.2266 3.44696 10.2266C3.58238 10.2266 3.69826 10.2057 3.79462 10.1641C3.89097 10.1198 3.9743 10.0612 4.04462 9.98828C4.11493 9.91276 4.17352 9.82682 4.2204 9.73047C4.26727 9.63411 4.30634 9.53255 4.33759 9.42578C4.37144 9.31901 4.40139 9.21094 4.42743 9.10156C4.45347 8.98958 4.47951 8.88411 4.50555 8.78516C4.71128 8.02734 4.92743 7.27214 5.15399 6.51953C5.38055 5.76432 5.62274 5.01562 5.88055 4.27344C6.13837 3.52865 6.41441 2.79167 6.70868 2.0625C7.00555 1.33333 7.32587 0.617188 7.66962 -0.0859375C7.71649 -0.184896 7.76337 -0.28125 7.81024 -0.375C7.85972 -0.471354 7.9079 -0.56901 7.95477 -0.667969H8.71259C8.75946 -0.667969 8.80113 -0.64974 8.83759 -0.613281C8.87404 -0.579427 8.9066 -0.53776 8.93524 -0.488281C8.96389 -0.438802 8.98993 -0.385417 9.01337 -0.328125C9.0368 -0.273438 9.05894 -0.226562 9.07977 -0.1875C9.37404 0.356771 9.65529 0.910156 9.92352 1.47266C10.1944 2.03516 10.4483 2.60547 10.6852 3.18359C10.9222 3.76172 11.141 4.34766 11.3415 4.94141C11.5446 5.53255 11.7269 6.12891 11.8884 6.73047C12.0472 7.32682 12.1878 7.92578 12.3102 8.52734C12.4352 9.12891 12.5472 9.73568 12.6462 10.3477C12.8024 10.319 12.9587 10.2904 13.1149 10.2617C13.2738 10.2305 13.4313 10.1979 13.5876 10.1641C13.5798 10.2031 13.5746 10.2435 13.572 10.2852C13.572 10.3268 13.5668 10.3659 13.5563 10.4023C13.5485 10.4362 13.5342 10.4661 13.5134 10.4922C13.4925 10.5156 13.46 10.5326 13.4157 10.543C12.6423 10.707 11.8584 10.8203 11.0641 10.8828C10.2725 10.9453 9.47821 10.9831 8.68134 10.9961C8.68134 10.9466 8.68264 10.8984 8.68524 10.8516C8.68785 10.8047 8.69045 10.7578 8.69305 10.7109C8.9118 10.6979 9.13055 10.6888 9.3493 10.6836C9.57066 10.6758 9.79201 10.6654 10.0134 10.6523L9.90399 10.2539L10.0134 10.6523ZM9.02118 7.44922C8.76337 6.80599 8.51467 6.17448 8.27509 5.55469C8.17352 5.29167 8.06675 5.01823 7.95477 4.73438C7.8454 4.45052 7.73733 4.17057 7.63055 3.89453C7.52639 3.61589 7.42613 3.34766 7.32977 3.08984C7.23342 2.83203 7.14618 2.59635 7.06805 2.38281C6.72691 3.27083 6.40399 4.16016 6.0993 5.05078C5.79722 5.9388 5.50946 6.83854 5.23602 7.75C5.34279 7.75521 5.44826 7.76042 5.55243 7.76562C5.6566 7.76823 5.76206 7.76953 5.86884 7.76953C6.40009 7.76953 6.92743 7.73698 7.45087 7.67188C7.9743 7.60677 8.49774 7.53255 9.02118 7.44922ZM19.1266 11.1328C19.1475 10.9583 19.1657 10.7839 19.1813 10.6094C19.1996 10.4349 19.2165 10.2591 19.2321 10.082C19.1306 10.2799 19.0186 10.457 18.8962 10.6133C18.7764 10.7669 18.6358 10.8971 18.4743 11.0039C18.3155 11.1133 18.1306 11.1953 17.9196 11.25C17.7113 11.3073 17.4691 11.3359 17.1931 11.3359C16.792 11.3359 16.4235 11.2747 16.0876 11.1523C15.7543 11.0299 15.4548 10.8646 15.1891 10.6562C14.9235 10.4453 14.6905 10.1992 14.4899 9.91797C14.292 9.63411 14.1266 9.33333 13.9938 9.01562C13.861 8.69531 13.7608 8.36589 13.6931 8.02734C13.628 7.6862 13.5954 7.35156 13.5954 7.02344C13.5954 6.7474 13.6214 6.47656 13.6735 6.21094C13.7256 5.94531 13.8141 5.6901 13.9391 5.44531C14.0225 5.28125 14.1201 5.125 14.2321 4.97656C14.3441 4.82812 14.4652 4.6888 14.5954 4.55859C14.7282 4.42839 14.8675 4.30729 15.0134 4.19531C15.1618 4.08073 15.3128 3.97396 15.4665 3.875C15.628 3.77344 15.7972 3.67318 15.9743 3.57422C16.154 3.47266 16.3376 3.38281 16.5251 3.30469C16.7152 3.22396 16.9079 3.15885 17.1032 3.10938C17.2985 3.0599 17.4951 3.03516 17.6931 3.03516C17.8727 3.03516 18.0485 3.0599 18.2204 3.10938C18.3949 3.15885 18.5563 3.23047 18.7048 3.32422C18.8558 3.41797 18.9886 3.53255 19.1032 3.66797C19.2204 3.80339 19.3115 3.95703 19.3766 4.12891C19.361 3.47526 19.3376 2.82552 19.3063 2.17969C19.2777 1.53385 19.2269 0.885417 19.154 0.234375C19.1488 0.182292 19.1397 0.14974 19.1266 0.136719C19.1136 0.121094 19.0941 0.113281 19.0681 0.113281C19.0212 0.113281 18.9652 0.114583 18.9001 0.117188C18.8376 0.117188 18.7712 0.11849 18.7009 0.121094C18.6332 0.121094 18.5641 0.122396 18.4938 0.125C18.4235 0.125 18.3571 0.125 18.2946 0.125C18.2946 0.0833333 18.2933 0.0429688 18.2907 0.00390625C18.2907 -0.0377604 18.2894 -0.0794271 18.2868 -0.121094C18.5785 -0.121094 18.8662 -0.115885 19.1501 -0.105469C19.4365 -0.0950521 19.7256 -0.0794271 20.0173 -0.0585938C20.1475 -0.0481771 20.2764 -0.0390625 20.404 -0.03125C20.5316 -0.0260417 20.6605 -0.0234375 20.7907 -0.0234375C20.8662 -0.0234375 20.9405 -0.0247396 21.0134 -0.0273438C21.0863 -0.0325521 21.1605 -0.0377604 21.236 -0.0429688C21.2855 0.358073 21.3428 0.785156 21.4079 1.23828C21.473 1.69141 21.5342 2.15625 21.5915 2.63281C21.6514 3.10677 21.7022 3.58594 21.7438 4.07031C21.7855 4.55208 21.8063 5.02474 21.8063 5.48828C21.8063 6.33203 21.7751 7.17057 21.7126 8.00391C21.6527 8.83464 21.5641 9.66797 21.447 10.5039C21.5746 10.4753 21.6996 10.4466 21.822 10.418C21.947 10.3893 22.072 10.3594 22.197 10.3281C22.1918 10.3802 22.1852 10.4336 22.1774 10.4883C22.1696 10.543 22.1631 10.5977 22.1579 10.6523C21.6579 10.7773 21.1566 10.8815 20.654 10.9648C20.1514 11.0456 19.6423 11.1016 19.1266 11.1328ZM16.1423 9.07422C16.1579 9.25651 16.1826 9.4401 16.2165 9.625C16.2503 9.8099 16.3011 9.98568 16.3688 10.1523C16.4365 10.319 16.5277 10.4701 16.6423 10.6055C16.7569 10.7409 16.904 10.8516 17.0837 10.9375C17.1722 10.9818 17.2582 11.013 17.3415 11.0312C17.4248 11.0495 17.5082 11.0586 17.5915 11.0586C17.7269 11.0586 17.8558 11.0339 17.9782 10.9844C18.1032 10.9349 18.2178 10.8672 18.322 10.7812C18.4287 10.6927 18.5251 10.5911 18.611 10.4766C18.697 10.3594 18.7712 10.2344 18.8337 10.1016C18.9248 9.90365 18.999 9.69922 19.0563 9.48828C19.1136 9.27734 19.1592 9.0638 19.1931 8.84766C19.2295 8.62891 19.2569 8.41016 19.2751 8.19141C19.2933 7.97266 19.3089 7.75521 19.322 7.53906C19.3324 7.36719 19.3415 7.1888 19.3493 7.00391C19.3597 6.81901 19.3649 6.62891 19.3649 6.43359C19.3649 6.24609 19.3558 6.04557 19.3376 5.83203C19.3194 5.61589 19.2881 5.40234 19.2438 5.19141C19.1996 4.98047 19.1397 4.77734 19.0641 4.58203C18.9912 4.38411 18.8988 4.21094 18.7868 4.0625C18.6748 3.91406 18.542 3.79557 18.3884 3.70703C18.2373 3.61589 18.0602 3.57031 17.8571 3.57031C17.6905 3.57031 17.5199 3.60417 17.3454 3.67188C17.1709 3.73958 17.0173 3.82943 16.8845 3.94141C16.7543 4.05339 16.6397 4.17969 16.5407 4.32031C16.4444 4.46094 16.3636 4.61198 16.2985 4.77344C16.236 4.9349 16.1839 5.10156 16.1423 5.27344C16.1032 5.44531 16.0746 5.61719 16.0563 5.78906C16.0407 5.96094 16.0316 6.1263 16.029 6.28516C16.029 6.26432 16.0277 6.25391 16.0251 6.25391C16.0251 6.28255 16.0251 6.35286 16.0251 6.46484C16.0277 6.57422 16.0316 6.70964 16.0368 6.87109C16.042 7.03255 16.0472 7.21224 16.0524 7.41016C16.0602 7.60807 16.0681 7.80729 16.0759 8.00781C16.0863 8.20573 16.0967 8.39844 16.1071 8.58594C16.1175 8.77083 16.1293 8.93359 16.1423 9.07422ZM27.9391 11.1328C27.96 10.9583 27.9782 10.7839 27.9938 10.6094C28.0121 10.4349 28.029 10.2591 28.0446 10.082C27.9431 10.2799 27.8311 10.457 27.7087 10.6133C27.5889 10.7669 27.4483 10.8971 27.2868 11.0039C27.128 11.1133 26.9431 11.1953 26.7321 11.25C26.5238 11.3073 26.2816 11.3359 26.0056 11.3359C25.6045 11.3359 25.236 11.2747 24.9001 11.1523C24.5668 11.0299 24.2673 10.8646 24.0016 10.6562C23.736 10.4453 23.503 10.1992 23.3024 9.91797C23.1045 9.63411 22.9391 9.33333 22.8063 9.01562C22.6735 8.69531 22.5733 8.36589 22.5056 8.02734C22.4405 7.6862 22.4079 7.35156 22.4079 7.02344C22.4079 6.7474 22.4339 6.47656 22.486 6.21094C22.5381 5.94531 22.6266 5.6901 22.7516 5.44531C22.835 5.28125 22.9326 5.125 23.0446 4.97656C23.1566 4.82812 23.2777 4.6888 23.4079 4.55859C23.5407 4.42839 23.68 4.30729 23.8259 4.19531C23.9743 4.08073 24.1253 3.97396 24.279 3.875C24.4405 3.77344 24.6097 3.67318 24.7868 3.57422C24.9665 3.47266 25.1501 3.38281 25.3376 3.30469C25.5277 3.22396 25.7204 3.15885 25.9157 3.10938C26.111 3.0599 26.3076 3.03516 26.5056 3.03516C26.6852 3.03516 26.861 3.0599 27.0329 3.10938C27.2074 3.15885 27.3688 3.23047 27.5173 3.32422C27.6683 3.41797 27.8011 3.53255 27.9157 3.66797C28.0329 3.80339 28.124 3.95703 28.1891 4.12891C28.1735 3.47526 28.1501 2.82552 28.1188 2.17969C28.0902 1.53385 28.0394 0.885417 27.9665 0.234375C27.9613 0.182292 27.9522 0.14974 27.9391 0.136719C27.9261 0.121094 27.9066 0.113281 27.8806 0.113281C27.8337 0.113281 27.7777 0.114583 27.7126 0.117188C27.6501 0.117188 27.5837 0.11849 27.5134 0.121094C27.4457 0.121094 27.3766 0.122396 27.3063 0.125C27.236 0.125 27.1696 0.125 27.1071 0.125C27.1071 0.0833333 27.1058 0.0429688 27.1032 0.00390625C27.1032 -0.0377604 27.1019 -0.0794271 27.0993 -0.121094C27.391 -0.121094 27.6787 -0.115885 27.9626 -0.105469C28.249 -0.0950521 28.5381 -0.0794271 28.8298 -0.0585938C28.96 -0.0481771 29.0889 -0.0390625 29.2165 -0.03125C29.3441 -0.0260417 29.473 -0.0234375 29.6032 -0.0234375C29.6787 -0.0234375 29.753 -0.0247396 29.8259 -0.0273438C29.8988 -0.0325521 29.973 -0.0377604 30.0485 -0.0429688C30.098 0.358073 30.1553 0.785156 30.2204 1.23828C30.2855 1.69141 30.3467 2.15625 30.404 2.63281C30.4639 3.10677 30.5147 3.58594 30.5563 4.07031C30.598 4.55208 30.6188 5.02474 30.6188 5.48828C30.6188 6.33203 30.5876 7.17057 30.5251 8.00391C30.4652 8.83464 30.3766 9.66797 30.2595 10.5039C30.3871 10.4753 30.5121 10.4466 30.6345 10.418C30.7595 10.3893 30.8845 10.3594 31.0095 10.3281C31.0043 10.3802 30.9977 10.4336 30.9899 10.4883C30.9821 10.543 30.9756 10.5977 30.9704 10.6523C30.4704 10.7773 29.9691 10.8815 29.4665 10.9648C28.9639 11.0456 28.4548 11.1016 27.9391 11.1328ZM24.9548 9.07422C24.9704 9.25651 24.9951 9.4401 25.029 9.625C25.0628 9.8099 25.1136 9.98568 25.1813 10.1523C25.249 10.319 25.3402 10.4701 25.4548 10.6055C25.5694 10.7409 25.7165 10.8516 25.8962 10.9375C25.9847 10.9818 26.0707 11.013 26.154 11.0312C26.2373 11.0495 26.3207 11.0586 26.404 11.0586C26.5394 11.0586 26.6683 11.0339 26.7907 10.9844C26.9157 10.9349 27.0303 10.8672 27.1345 10.7812C27.2412 10.6927 27.3376 10.5911 27.4235 10.4766C27.5095 10.3594 27.5837 10.2344 27.6462 10.1016C27.7373 9.90365 27.8115 9.69922 27.8688 9.48828C27.9261 9.27734 27.9717 9.0638 28.0056 8.84766C28.042 8.62891 28.0694 8.41016 28.0876 8.19141C28.1058 7.97266 28.1214 7.75521 28.1345 7.53906C28.1449 7.36719 28.154 7.1888 28.1618 7.00391C28.1722 6.81901 28.1774 6.62891 28.1774 6.43359C28.1774 6.24609 28.1683 6.04557 28.1501 5.83203C28.1319 5.61589 28.1006 5.40234 28.0563 5.19141C28.0121 4.98047 27.9522 4.77734 27.8766 4.58203C27.8037 4.38411 27.7113 4.21094 27.5993 4.0625C27.4873 3.91406 27.3545 3.79557 27.2009 3.70703C27.0498 3.61589 26.8727 3.57031 26.6696 3.57031C26.503 3.57031 26.3324 3.60417 26.1579 3.67188C25.9834 3.73958 25.8298 3.82943 25.697 3.94141C25.5668 4.05339 25.4522 4.17969 25.3532 4.32031C25.2569 4.46094 25.1761 4.61198 25.111 4.77344C25.0485 4.9349 24.9964 5.10156 24.9548 5.27344C24.9157 5.44531 24.8871 5.61719 24.8688 5.78906C24.8532 5.96094 24.8441 6.1263 24.8415 6.28516C24.8415 6.26432 24.8402 6.25391 24.8376 6.25391C24.8376 6.28255 24.8376 6.35286 24.8376 6.46484C24.8402 6.57422 24.8441 6.70964 24.8493 6.87109C24.8545 7.03255 24.8597 7.21224 24.8649 7.41016C24.8727 7.60807 24.8806 7.80729 24.8884 8.00781C24.8988 8.20573 24.9092 8.39844 24.9196 8.58594C24.93 8.77083 24.9418 8.93359 24.9548 9.07422ZM37.7829 1.10156C38.1423 0.914062 38.5147 0.765625 38.9001 0.65625C39.2881 0.546875 39.6839 0.471354 40.0876 0.429688C40.1266 0.822917 40.1566 1.21354 40.1774 1.60156C40.2009 1.98958 40.2204 2.38151 40.236 2.77734C40.2386 2.82161 40.2503 2.85547 40.2712 2.87891C40.2946 2.89974 40.3233 2.91667 40.3571 2.92969C40.3936 2.9401 40.4326 2.94922 40.4743 2.95703C40.516 2.96224 40.5563 2.97135 40.5954 2.98438C40.7464 3.03385 40.8923 3.09896 41.0329 3.17969C41.1761 3.25781 41.3102 3.34766 41.4352 3.44922C41.4769 3.48568 41.5082 3.51953 41.529 3.55078C41.5498 3.58203 41.5641 3.61458 41.572 3.64844C41.5798 3.68229 41.5837 3.72005 41.5837 3.76172C41.5837 3.80078 41.5837 3.84635 41.5837 3.89844C41.3988 3.71615 41.1931 3.57161 40.9665 3.46484C40.7425 3.35547 40.5043 3.27734 40.2516 3.23047C40.2647 3.66016 40.2751 4.08854 40.2829 4.51562C40.2907 4.9401 40.2946 5.36719 40.2946 5.79688C40.2946 6.08333 40.292 6.36849 40.2868 6.65234C40.2842 6.9362 40.2803 7.22135 40.2751 7.50781C40.2699 7.79167 40.2569 8.07682 40.236 8.36328C40.2178 8.64974 40.2074 8.9375 40.2048 9.22656C40.2048 9.30208 40.2035 9.39583 40.2009 9.50781C40.2009 9.61719 40.21 9.72396 40.2282 9.82812C40.249 9.93229 40.2868 10.0221 40.3415 10.0977C40.3962 10.1706 40.4795 10.207 40.5915 10.207C40.6592 10.207 40.7269 10.1966 40.7946 10.1758C40.8623 10.1549 40.9274 10.1289 40.9899 10.0977C41.055 10.0638 41.1162 10.0273 41.1735 9.98828C41.2308 9.94661 41.2855 9.90495 41.3376 9.86328C41.3584 9.89974 41.3832 9.94271 41.4118 9.99219C41.4405 10.0391 41.4548 10.0755 41.4548 10.1016C41.4548 10.1406 41.4365 10.1771 41.4001 10.2109C41.3662 10.2422 41.335 10.2747 41.3063 10.3086C41.1761 10.4492 41.0394 10.5781 40.8962 10.6953C40.753 10.8099 40.6006 10.9076 40.4391 10.9883C40.2803 11.069 40.111 11.1315 39.9313 11.1758C39.7516 11.2201 39.5602 11.2422 39.3571 11.2422C39.1488 11.2422 38.9665 11.2214 38.8102 11.1797C38.654 11.1406 38.5173 11.082 38.4001 11.0039C38.2829 10.9284 38.1826 10.8346 38.0993 10.7227C38.0186 10.6107 37.947 10.4818 37.8845 10.3359C37.835 10.2214 37.7972 10.1042 37.7712 9.98438C37.7451 9.86458 37.7243 9.74479 37.7087 9.625C37.6957 9.5026 37.6865 9.38021 37.6813 9.25781C37.6761 9.13281 37.6709 9.00911 37.6657 8.88672C37.6397 8.35547 37.6201 7.82812 37.6071 7.30469C37.5941 6.77865 37.5876 6.25 37.5876 5.71875C37.5876 5.41146 37.5889 5.10807 37.5915 4.80859C37.5967 4.50651 37.6019 4.20182 37.6071 3.89453C37.5342 3.89974 37.4626 3.90495 37.3923 3.91016C37.322 3.91276 37.2516 3.91406 37.1813 3.91406C37.1397 3.91406 37.0993 3.91406 37.0602 3.91406C37.0212 3.91406 36.986 3.91276 36.9548 3.91016C36.9261 3.90495 36.9027 3.89844 36.8845 3.89062C36.8662 3.88021 36.8571 3.86719 36.8571 3.85156C36.8571 3.82812 36.8584 3.79036 36.861 3.73828C36.8662 3.68359 36.8688 3.62891 36.8688 3.57422C36.96 3.57422 37.0511 3.57161 37.1423 3.56641C37.2334 3.5612 37.322 3.55339 37.4079 3.54297C37.447 3.54036 37.4795 3.53906 37.5056 3.53906C37.5316 3.53906 37.5537 3.53646 37.572 3.53125C37.5902 3.52604 37.6032 3.51432 37.611 3.49609C37.6188 3.47786 37.624 3.44661 37.6266 3.40234C37.6475 3.01693 37.6696 2.63411 37.6931 2.25391C37.7191 1.87109 37.749 1.48698 37.7829 1.10156ZM41.7946 7.21875C41.8102 6.80729 41.8832 6.40885 42.0134 6.02344C42.1436 5.63542 42.322 5.27604 42.5485 4.94531C42.7751 4.61458 43.0446 4.31901 43.3571 4.05859C43.6722 3.79818 44.0225 3.58724 44.4079 3.42578C44.6266 3.33464 44.8493 3.26823 45.0759 3.22656C45.305 3.18229 45.5355 3.16016 45.7673 3.16016C46.0511 3.16016 46.3337 3.19141 46.6149 3.25391C46.8988 3.31641 47.1709 3.40755 47.4313 3.52734C47.6918 3.64714 47.9365 3.79427 48.1657 3.96875C48.3975 4.14062 48.6058 4.33594 48.7907 4.55469C48.9444 4.73698 49.0798 4.93359 49.197 5.14453C49.3141 5.35286 49.4118 5.56901 49.4899 5.79297C49.5707 6.01693 49.6306 6.2474 49.6696 6.48438C49.7113 6.72135 49.7321 6.95833 49.7321 7.19531C49.7321 7.57031 49.6787 7.93099 49.572 8.27734C49.4678 8.62109 49.3233 8.94401 49.1384 9.24609C48.9535 9.54557 48.7334 9.81901 48.4782 10.0664C48.223 10.3138 47.9457 10.526 47.6462 10.7031C47.3467 10.8802 47.0303 11.0169 46.697 11.1133C46.3636 11.2096 46.0264 11.2578 45.6852 11.2578C45.3962 11.2578 45.111 11.224 44.8298 11.1562C44.5511 11.0911 44.2842 10.9974 44.029 10.875C43.7738 10.75 43.5329 10.599 43.3063 10.4219C43.0798 10.2448 42.8766 10.0456 42.697 9.82422C42.5433 9.63672 42.4118 9.4401 42.3024 9.23438C42.1957 9.02865 42.1058 8.81641 42.0329 8.59766C41.9626 8.37891 41.9079 8.15365 41.8688 7.92188C41.8298 7.6901 41.805 7.45573 41.7946 7.21875ZM44.3298 5.62109C44.3063 6.15234 44.2946 6.68229 44.2946 7.21094C44.2946 7.40885 44.2959 7.60677 44.2985 7.80469C44.3011 8 44.3063 8.19661 44.3141 8.39453C44.3194 8.55599 44.3233 8.72135 44.3259 8.89062C44.3311 9.0599 44.3428 9.22786 44.361 9.39453C44.3819 9.5612 44.4131 9.72526 44.4548 9.88672C44.499 10.0482 44.5602 10.2031 44.6384 10.3516C44.7556 10.5703 44.9118 10.7344 45.1071 10.8438C45.3024 10.9531 45.516 11.0078 45.7477 11.0078C45.9352 11.0078 46.098 10.9805 46.236 10.9258C46.3766 10.8711 46.4964 10.7969 46.5954 10.7031C46.697 10.6094 46.7803 10.5013 46.8454 10.3789C46.9131 10.2539 46.9678 10.1224 47.0095 9.98438C47.0537 9.84375 47.0876 9.70052 47.111 9.55469C47.1345 9.40885 47.154 9.26693 47.1696 9.12891C47.1983 8.87109 47.2178 8.61198 47.2282 8.35156C47.2386 8.09115 47.2425 7.82943 47.2399 7.56641C47.2399 7.37109 47.2386 7.17578 47.236 6.98047C47.2334 6.78516 47.2295 6.58984 47.2243 6.39453C47.2191 6.19922 47.2152 5.9974 47.2126 5.78906C47.2126 5.57812 47.2035 5.36849 47.1852 5.16016C47.167 4.95182 47.1345 4.7474 47.0876 4.54688C47.0433 4.34635 46.9743 4.15625 46.8806 3.97656C46.8285 3.8776 46.7634 3.79297 46.6852 3.72266C46.6097 3.64974 46.5251 3.58984 46.4313 3.54297C46.3376 3.49609 46.2386 3.46224 46.1345 3.44141C46.0303 3.41797 45.9235 3.40625 45.8141 3.40625C45.5928 3.40625 45.404 3.4401 45.2477 3.50781C45.0915 3.57552 44.96 3.66797 44.8532 3.78516C44.7464 3.89974 44.6618 4.03255 44.5993 4.18359C44.5368 4.33203 44.4873 4.48828 44.4509 4.65234C44.4144 4.81641 44.3871 4.98177 44.3688 5.14844C44.3532 5.3151 44.3402 5.47266 44.3298 5.62109C44.3246 5.76432 44.3207 5.86719 44.3181 5.92969C44.3155 5.99219 44.3141 6.02995 44.3141 6.04297C44.3141 6.04297 44.3155 6.01562 44.3181 5.96094C44.3233 5.90365 44.3272 5.84115 44.3298 5.77344C44.335 5.70312 44.3376 5.64062 44.3376 5.58594C44.3402 5.52865 44.3415 5.5 44.3415 5.5C44.3389 5.50781 44.3376 5.51693 44.3376 5.52734C44.335 5.53776 44.3337 5.55078 44.3337 5.56641C44.3337 5.58203 44.3324 5.60026 44.3298 5.62109ZM62.5759 8.55859C62.6071 8.5612 62.641 8.57161 62.6774 8.58984C62.7139 8.60807 62.7503 8.62891 62.7868 8.65234C62.7373 8.80078 62.6813 8.95052 62.6188 9.10156C62.5563 9.25 62.486 9.39583 62.4079 9.53906C62.3298 9.68229 62.2438 9.82161 62.1501 9.95703C62.0563 10.0898 61.9522 10.2135 61.8376 10.3281C61.6865 10.4818 61.5186 10.6159 61.3337 10.7305C61.1514 10.8424 60.9587 10.9362 60.7556 11.0117C60.555 11.0872 60.348 11.1432 60.1345 11.1797C59.9209 11.2188 59.71 11.2383 59.5016 11.2383C59.1553 11.2383 58.8181 11.1953 58.4899 11.1094C58.1644 11.026 57.8558 10.9049 57.5641 10.7461C57.2751 10.5872 57.0095 10.3945 56.7673 10.168C56.5251 9.9388 56.3155 9.67969 56.1384 9.39062C55.9639 9.09896 55.8272 8.77995 55.7282 8.43359C55.6319 8.08724 55.5837 7.71745 55.5837 7.32422C55.5837 7.02995 55.6149 6.73958 55.6774 6.45312C55.7425 6.16667 55.8363 5.88932 55.9587 5.62109C56.0811 5.35286 56.2321 5.09766 56.4118 4.85547C56.5915 4.61068 56.7972 4.38281 57.029 4.17188C57.2061 4.01042 57.3975 3.86589 57.6032 3.73828C57.8089 3.61068 58.0225 3.5026 58.2438 3.41406C58.4652 3.32552 58.6931 3.25781 58.9274 3.21094C59.1618 3.16406 59.3962 3.14062 59.6306 3.14062C59.9378 3.14062 60.2399 3.18359 60.5368 3.26953C60.8363 3.35286 61.1227 3.48698 61.3962 3.67188C61.5498 3.77604 61.6944 3.89844 61.8298 4.03906C61.9652 4.17969 62.0837 4.33203 62.1852 4.49609C62.2868 4.66016 62.3662 4.83464 62.4235 5.01953C62.4834 5.20443 62.5134 5.39193 62.5134 5.58203C62.5134 5.71224 62.4925 5.83203 62.4509 5.94141C62.4118 6.04818 62.3506 6.14062 62.2673 6.21875C62.1865 6.29688 62.0824 6.35807 61.9548 6.40234C61.8298 6.44401 61.68 6.46484 61.5056 6.46484C61.3415 6.46484 61.1957 6.44141 61.0681 6.39453C60.9431 6.34505 60.8324 6.27995 60.736 6.19922C60.6423 6.11589 60.5628 6.01823 60.4977 5.90625C60.4326 5.79427 60.3793 5.67578 60.3376 5.55078C60.3115 5.47005 60.2907 5.39323 60.2751 5.32031C60.2621 5.24479 60.2556 5.17188 60.2556 5.10156C60.2556 4.98698 60.2764 4.87891 60.3181 4.77734C60.3597 4.67578 60.43 4.57552 60.529 4.47656C60.6019 4.40365 60.6579 4.33073 60.697 4.25781C60.7386 4.1849 60.7595 4.11068 60.7595 4.03516C60.7595 3.90755 60.7204 3.79818 60.6423 3.70703C60.5641 3.61589 60.4665 3.54167 60.3493 3.48438C60.2321 3.42708 60.1045 3.38542 59.9665 3.35938C59.8311 3.33333 59.7048 3.32031 59.5876 3.32031C59.3532 3.32031 59.1553 3.36198 58.9938 3.44531C58.8324 3.52865 58.6996 3.64062 58.5954 3.78125C58.4912 3.92188 58.4105 4.08464 58.3532 4.26953C58.2959 4.45182 58.2516 4.64193 58.2204 4.83984C58.1761 5.1237 58.1475 5.40885 58.1345 5.69531C58.124 5.97917 58.1175 6.26693 58.1149 6.55859C58.1149 6.73568 58.1162 6.91146 58.1188 7.08594C58.1214 7.26042 58.124 7.43359 58.1266 7.60547C58.1293 7.82682 58.1319 8.04948 58.1345 8.27344C58.1371 8.4974 58.1475 8.72135 58.1657 8.94531C58.1865 9.16667 58.2191 9.38672 58.2634 9.60547C58.3076 9.82161 58.3727 10.0326 58.4587 10.2383C58.5134 10.3737 58.5837 10.4883 58.6696 10.582C58.7582 10.6758 58.8558 10.7526 58.9626 10.8125C59.072 10.8698 59.1878 10.9128 59.3102 10.9414C59.4352 10.9674 59.5641 10.9805 59.697 10.9805C59.9444 10.9805 60.1748 10.9479 60.3884 10.8828C60.6045 10.8151 60.805 10.724 60.9899 10.6094C61.1748 10.4922 61.3454 10.3555 61.5016 10.1992C61.6579 10.0404 61.8011 9.86979 61.9313 9.6875C62.0615 9.50521 62.1787 9.3151 62.2829 9.11719C62.3897 8.91667 62.4834 8.71745 62.5641 8.51953C62.572 8.52734 62.5759 8.54036 62.5759 8.55859ZM71.1266 9.78516C71.1553 9.81641 71.1839 9.84896 71.2126 9.88281C71.2412 9.91406 71.2699 9.94531 71.2985 9.97656C71.1761 10.1328 71.0368 10.2826 70.8806 10.4258C70.7243 10.569 70.5563 10.6953 70.3766 10.8047C70.1996 10.9141 70.0121 11.0013 69.8141 11.0664C69.6188 11.1315 69.4196 11.1641 69.2165 11.1641C69.0576 11.1641 68.9053 11.1419 68.7595 11.0977C68.6162 11.0534 68.4821 10.9896 68.3571 10.9062C68.2347 10.8203 68.1253 10.7148 68.029 10.5898C67.9352 10.4648 67.8597 10.3216 67.8024 10.1602C67.6514 10.3242 67.4847 10.4714 67.3024 10.6016C67.1201 10.7292 66.9274 10.8372 66.7243 10.9258C66.5212 11.0117 66.3115 11.0768 66.0954 11.1211C65.8819 11.168 65.6657 11.1914 65.447 11.1914C65.1345 11.1914 64.8298 11.1445 64.5329 11.0508C64.236 10.957 63.9574 10.8086 63.697 10.6055C63.5641 10.5013 63.4457 10.3828 63.3415 10.25C63.2373 10.1172 63.1488 9.97526 63.0759 9.82422C63.0056 9.67318 62.9509 9.51562 62.9118 9.35156C62.8753 9.1875 62.8571 9.02083 62.8571 8.85156C62.8571 8.60417 62.9001 8.39844 62.986 8.23438C63.0746 8.07031 63.1905 7.93359 63.3337 7.82422C63.4795 7.71484 63.6449 7.6263 63.8298 7.55859C64.0147 7.48828 64.2061 7.42578 64.404 7.37109C64.9613 7.21484 65.5186 7.06771 66.0759 6.92969C66.6358 6.78906 67.1983 6.66406 67.7634 6.55469C67.8128 6.54427 67.8441 6.53125 67.8571 6.51562C67.8727 6.5 67.8806 6.47917 67.8806 6.45312C67.8806 6.3099 67.878 6.15755 67.8727 5.99609C67.8701 5.83464 67.8662 5.67188 67.861 5.50781C67.8558 5.34115 67.8493 5.17448 67.8415 5.00781C67.8337 4.83854 67.8259 4.67448 67.8181 4.51562C67.8128 4.43229 67.8037 4.34896 67.7907 4.26562C67.7777 4.17969 67.7556 4.09766 67.7243 4.01953C67.6931 3.94141 67.6527 3.86979 67.6032 3.80469C67.5537 3.73698 67.4925 3.67708 67.4196 3.625C67.3024 3.54688 67.1748 3.49349 67.0368 3.46484C66.8988 3.43359 66.7595 3.41797 66.6188 3.41797C66.5303 3.41797 66.4235 3.42318 66.2985 3.43359C66.1735 3.44141 66.0446 3.45964 65.9118 3.48828C65.7816 3.51693 65.6553 3.5599 65.5329 3.61719C65.4105 3.67188 65.3076 3.7474 65.2243 3.84375C65.1488 3.92969 65.111 4.01432 65.111 4.09766C65.111 4.15234 65.124 4.20443 65.1501 4.25391C65.1787 4.30339 65.2126 4.35286 65.2516 4.40234C65.2907 4.44922 65.3324 4.4974 65.3766 4.54688C65.4209 4.59375 65.46 4.64062 65.4938 4.6875C65.5563 4.77865 65.6019 4.875 65.6306 4.97656C65.6618 5.07552 65.6774 5.17969 65.6774 5.28906C65.6774 5.46354 65.6436 5.63411 65.5759 5.80078C65.5082 5.96745 65.417 6.11589 65.3024 6.24609C65.1905 6.3737 65.0576 6.47656 64.904 6.55469C64.753 6.63281 64.5941 6.67188 64.4274 6.67188C64.2816 6.67188 64.1462 6.64193 64.0212 6.58203C63.8962 6.52214 63.7881 6.4401 63.697 6.33594C63.6058 6.23177 63.5329 6.10938 63.4782 5.96875C63.4261 5.82552 63.4001 5.67318 63.4001 5.51172C63.4001 5.32422 63.4352 5.14453 63.5056 4.97266C63.5785 4.80078 63.6735 4.63932 63.7907 4.48828C63.9079 4.33724 64.0394 4.20052 64.1852 4.07812C64.3337 3.95312 64.4834 3.84375 64.6345 3.75C64.8402 3.6224 65.0563 3.51953 65.2829 3.44141C65.5095 3.36328 65.7399 3.30208 65.9743 3.25781C66.2087 3.21354 66.4457 3.18359 66.6852 3.16797C66.9248 3.15234 67.1631 3.14453 67.4001 3.14453C67.5537 3.14453 67.7126 3.14844 67.8766 3.15625C68.0433 3.16146 68.21 3.17578 68.3766 3.19922C68.5433 3.22005 68.7061 3.2513 68.8649 3.29297C69.0264 3.33203 69.1787 3.38542 69.322 3.45312C69.4678 3.51823 69.6006 3.60026 69.7204 3.69922C69.8428 3.79557 69.9483 3.91146 70.0368 4.04688C70.0785 4.11458 70.1123 4.18359 70.1384 4.25391C70.167 4.32422 70.1905 4.39583 70.2087 4.46875C70.2269 4.54167 70.2412 4.61589 70.2516 4.69141C70.2621 4.76693 70.2725 4.84245 70.2829 4.91797C70.3324 5.30339 70.3688 5.6888 70.3923 6.07422C70.4183 6.45964 70.4313 6.84635 70.4313 7.23438C70.4313 7.55729 70.4222 7.87891 70.404 8.19922C70.3858 8.51693 70.3584 8.83594 70.322 9.15625C70.3141 9.21615 70.3037 9.27865 70.2907 9.34375C70.2777 9.40885 70.2634 9.47526 70.2477 9.54297C70.2347 9.60807 70.2217 9.67448 70.2087 9.74219C70.1983 9.80729 70.1931 9.87109 70.1931 9.93359C70.1931 10.043 70.2074 10.1211 70.236 10.168C70.2673 10.2148 70.3155 10.2383 70.3806 10.2383C70.4405 10.2383 70.5095 10.2201 70.5876 10.1836C70.6657 10.1471 70.7412 10.1042 70.8141 10.0547C70.8871 10.0026 70.9522 9.95182 71.0095 9.90234C71.0668 9.85286 71.1058 9.8138 71.1266 9.78516ZM67.8181 9.83594C67.8389 9.39062 67.8532 8.94661 67.861 8.50391C67.8714 8.05859 67.8766 7.61198 67.8766 7.16406V6.875C67.7178 6.90885 67.5589 6.94661 67.4001 6.98828C67.2412 7.02734 67.085 7.07422 66.9313 7.12891C66.7803 7.18359 66.6319 7.2487 66.486 7.32422C66.3428 7.39714 66.2061 7.48438 66.0759 7.58594C65.9639 7.67188 65.8545 7.76562 65.7477 7.86719C65.6436 7.96615 65.5576 8.07943 65.4899 8.20703C65.4196 8.33464 65.374 8.47526 65.3532 8.62891C65.335 8.77995 65.3259 8.92969 65.3259 9.07812C65.3259 9.26823 65.3415 9.45833 65.3727 9.64844C65.4066 9.83594 65.4652 10.0156 65.5485 10.1875C65.5824 10.263 65.6266 10.3255 65.6813 10.375C65.736 10.4245 65.7972 10.4648 65.8649 10.4961C65.9326 10.5247 66.0043 10.5456 66.0798 10.5586C66.1579 10.569 66.2373 10.5742 66.3181 10.5742C66.4665 10.5742 66.6071 10.5547 66.7399 10.5156C66.8753 10.474 67.0056 10.4193 67.1306 10.3516C67.2556 10.2839 67.374 10.2057 67.486 10.1172C67.6006 10.0286 67.7113 9.9349 67.8181 9.83594ZM72.1149 3.89453C71.9847 3.91536 71.8545 3.9375 71.7243 3.96094C71.5967 3.98438 71.4678 4.00911 71.3376 4.03516C71.3454 3.98047 71.3519 3.92708 71.3571 3.875C71.3649 3.82031 71.374 3.76562 71.3845 3.71094C71.598 3.66927 71.8089 3.63021 72.0173 3.59375C72.2256 3.55469 72.4378 3.52083 72.654 3.49219C72.9613 3.45052 73.266 3.40755 73.5681 3.36328C73.8727 3.31641 74.1761 3.2513 74.4782 3.16797C74.4704 3.30599 74.4626 3.44271 74.4548 3.57812C74.4496 3.71354 74.4444 3.85026 74.4391 3.98828C74.4574 3.98568 74.4821 3.96875 74.5134 3.9375C74.5472 3.90625 74.5811 3.87109 74.6149 3.83203C74.6488 3.79297 74.6813 3.75521 74.7126 3.71875C74.7438 3.67969 74.7686 3.65234 74.7868 3.63672C74.9743 3.48307 75.1657 3.3724 75.361 3.30469C75.5563 3.23698 75.7712 3.20312 76.0056 3.20312C76.1878 3.20312 76.3714 3.21745 76.5563 3.24609C76.7412 3.27474 76.9183 3.32161 77.0876 3.38672C77.2595 3.44922 77.4196 3.52995 77.5681 3.62891C77.7191 3.72526 77.8493 3.84375 77.9587 3.98438C78.0681 4.1224 78.154 4.28255 78.2165 4.46484C78.2816 4.64714 78.3141 4.85286 78.3141 5.08203C78.3141 5.23568 78.2946 5.36458 78.2556 5.46875C78.2165 5.57292 78.1631 5.65625 78.0954 5.71875C78.0303 5.78125 77.9535 5.82552 77.8649 5.85156C77.7764 5.8776 77.6813 5.89062 77.5798 5.89062C77.3662 5.89062 77.1657 5.86068 76.9782 5.80078C76.7907 5.73828 76.6266 5.64974 76.486 5.53516C76.348 5.42057 76.2386 5.28125 76.1579 5.11719C76.0772 4.95312 76.0368 4.76693 76.0368 4.55859C76.0368 4.45182 76.0446 4.34375 76.0602 4.23438C76.0759 4.125 76.1149 4.02474 76.1774 3.93359C76.1983 3.90234 76.223 3.86068 76.2516 3.80859C76.2803 3.75391 76.2946 3.70182 76.2946 3.65234C76.2946 3.61328 76.2816 3.58073 76.2556 3.55469C76.2295 3.52865 76.197 3.50781 76.1579 3.49219C76.1214 3.47656 76.0811 3.46484 76.0368 3.45703C75.9925 3.44922 75.9509 3.44531 75.9118 3.44531C75.8519 3.44531 75.792 3.45182 75.7321 3.46484C75.6722 3.47526 75.6136 3.48958 75.5563 3.50781C75.499 3.52604 75.4444 3.54688 75.3923 3.57031C75.3428 3.59375 75.2985 3.61719 75.2595 3.64062C75.0876 3.75 74.9483 3.89193 74.8415 4.06641C74.7373 4.24089 74.6553 4.42969 74.5954 4.63281C74.5355 4.83333 74.4912 5.04036 74.4626 5.25391C74.4365 5.46484 74.4183 5.66146 74.4079 5.84375C74.3949 6.03906 74.3858 6.23568 74.3806 6.43359C74.3753 6.62891 74.3727 6.82422 74.3727 7.01953C74.3727 7.65234 74.3793 8.27995 74.3923 8.90234C74.4053 9.52214 74.4287 10.1471 74.4626 10.7773C74.598 10.7747 74.7347 10.7747 74.8727 10.7773C75.0134 10.7773 75.1501 10.7695 75.2829 10.7539C75.2803 10.7904 75.2777 10.8268 75.2751 10.8633C75.2751 10.8971 75.2712 10.9271 75.2634 10.9531C75.2582 10.9792 75.249 11 75.236 11.0156C75.223 11.0312 75.2048 11.0391 75.1813 11.0391C74.8923 11.0391 74.5993 11.0352 74.3024 11.0273C74.0056 11.0221 73.7087 11.0091 73.4118 10.9883C73.1175 10.9674 72.8233 10.9401 72.529 10.9062C72.2373 10.8698 71.9509 10.8216 71.6696 10.7617C71.6201 10.7513 71.5798 10.7448 71.5485 10.7422C71.5173 10.7396 71.4912 10.7292 71.4704 10.7109C71.4522 10.6901 71.4378 10.6562 71.4274 10.6094C71.417 10.5625 71.4079 10.4922 71.4001 10.3984C71.5251 10.4349 71.6514 10.4688 71.779 10.5C71.9066 10.5286 72.0355 10.5573 72.1657 10.5859C72.0589 10.0104 71.9795 9.4349 71.9274 8.85938C71.878 8.28125 71.8532 7.69922 71.8532 7.11328C71.8532 6.57161 71.8753 6.03385 71.9196 5.5C71.9639 4.96354 72.029 4.42839 72.1149 3.89453ZM79.0798 1.10156C79.4391 0.914062 79.8115 0.765625 80.197 0.65625C80.585 0.546875 80.9808 0.471354 81.3845 0.429688C81.4235 0.822917 81.4535 1.21354 81.4743 1.60156C81.4977 1.98958 81.5173 2.38151 81.5329 2.77734C81.5355 2.82161 81.5472 2.85547 81.5681 2.87891C81.5915 2.89974 81.6201 2.91667 81.654 2.92969C81.6905 2.9401 81.7295 2.94922 81.7712 2.95703C81.8128 2.96224 81.8532 2.97135 81.8923 2.98438C82.0433 3.03385 82.1891 3.09896 82.3298 3.17969C82.473 3.25781 82.6071 3.34766 82.7321 3.44922C82.7738 3.48568 82.805 3.51953 82.8259 3.55078C82.8467 3.58203 82.861 3.61458 82.8688 3.64844C82.8766 3.68229 82.8806 3.72005 82.8806 3.76172C82.8806 3.80078 82.8806 3.84635 82.8806 3.89844C82.6957 3.71615 82.4899 3.57161 82.2634 3.46484C82.0394 3.35547 81.8011 3.27734 81.5485 3.23047C81.5615 3.66016 81.572 4.08854 81.5798 4.51562C81.5876 4.9401 81.5915 5.36719 81.5915 5.79688C81.5915 6.08333 81.5889 6.36849 81.5837 6.65234C81.5811 6.9362 81.5772 7.22135 81.572 7.50781C81.5668 7.79167 81.5537 8.07682 81.5329 8.36328C81.5147 8.64974 81.5043 8.9375 81.5016 9.22656C81.5016 9.30208 81.5003 9.39583 81.4977 9.50781C81.4977 9.61719 81.5069 9.72396 81.5251 9.82812C81.5459 9.93229 81.5837 10.0221 81.6384 10.0977C81.6931 10.1706 81.7764 10.207 81.8884 10.207C81.9561 10.207 82.0238 10.1966 82.0915 10.1758C82.1592 10.1549 82.2243 10.1289 82.2868 10.0977C82.3519 10.0638 82.4131 10.0273 82.4704 9.98828C82.5277 9.94661 82.5824 9.90495 82.6345 9.86328C82.6553 9.89974 82.68 9.94271 82.7087 9.99219C82.7373 10.0391 82.7516 10.0755 82.7516 10.1016C82.7516 10.1406 82.7334 10.1771 82.697 10.2109C82.6631 10.2422 82.6319 10.2747 82.6032 10.3086C82.473 10.4492 82.3363 10.5781 82.1931 10.6953C82.0498 10.8099 81.8975 10.9076 81.736 10.9883C81.5772 11.069 81.4079 11.1315 81.2282 11.1758C81.0485 11.2201 80.8571 11.2422 80.654 11.2422C80.4457 11.2422 80.2634 11.2214 80.1071 11.1797C79.9509 11.1406 79.8141 11.082 79.697 11.0039C79.5798 10.9284 79.4795 10.8346 79.3962 10.7227C79.3155 10.6107 79.2438 10.4818 79.1813 10.3359C79.1319 10.2214 79.0941 10.1042 79.0681 9.98438C79.042 9.86458 79.0212 9.74479 79.0056 9.625C78.9925 9.5026 78.9834 9.38021 78.9782 9.25781C78.973 9.13281 78.9678 9.00911 78.9626 8.88672C78.9365 8.35547 78.917 7.82812 78.904 7.30469C78.891 6.77865 78.8845 6.25 78.8845 5.71875C78.8845 5.41146 78.8858 5.10807 78.8884 4.80859C78.8936 4.50651 78.8988 4.20182 78.904 3.89453C78.8311 3.89974 78.7595 3.90495 78.6891 3.91016C78.6188 3.91276 78.5485 3.91406 78.4782 3.91406C78.4365 3.91406 78.3962 3.91406 78.3571 3.91406C78.3181 3.91406 78.2829 3.91276 78.2516 3.91016C78.223 3.90495 78.1996 3.89844 78.1813 3.89062C78.1631 3.88021 78.154 3.86719 78.154 3.85156C78.154 3.82812 78.1553 3.79036 78.1579 3.73828C78.1631 3.68359 78.1657 3.62891 78.1657 3.57422C78.2569 3.57422 78.348 3.57161 78.4391 3.56641C78.5303 3.5612 78.6188 3.55339 78.7048 3.54297C78.7438 3.54036 78.7764 3.53906 78.8024 3.53906C78.8285 3.53906 78.8506 3.53646 78.8688 3.53125C78.8871 3.52604 78.9001 3.51432 78.9079 3.49609C78.9157 3.47786 78.9209 3.44661 78.9235 3.40234C78.9444 3.01693 78.9665 2.63411 78.9899 2.25391C79.016 1.87109 79.0459 1.48698 79.0798 1.10156Z" transform="translate(45.8796 272.579)" fill="white"/>
<path d="M6.98683 128.6C0.31339 125.279 -4.64671 20.3292 6.98682 4.07112C11.6894 -2.5009 124.745 -0.0798226 130.028 4.07112C136.632 9.25981 139.065 121.682 133.852 128.6C128.638 135.518 15.3286 132.751 6.98683 128.6Z" transform="translate(16.7527 20.1158)" fill="#F2F2F2"/>
<ellipse cx="66.3868" cy="41.5095" rx="66.3868" ry="41.5095" transform="translate(19.5698 52.5519)" fill="white"/>
<path d="M0.583139 0C2.04098 0.384989 5.18993 1.09722 6.12295 0.866225C7.05598 0.635232 7.09485 3.07991 6.99766 4.33113C5.63701 4.61987 2.62412 5.1396 1.45785 4.90861C0.336752 4.68656 0.0239039 4.80247 0.0013467 4.89727L0 4.90861C0 4.90488 0.000437597 4.90109 0.0013467 4.89727L0.583139 0Z" transform="matrix(0.997002 0.0611811 -0.0617311 0.996375 64.4878 73.7025)" fill="#F2CF52"/>
<ellipse cx="4.08165" cy="6.92972" rx="4.08165" ry="6.92972" transform="matrix(0.997003 0.0611807 -0.0617315 0.996375 57.2676 67.7722)" fill="#D1AA1F"/>
<path d="M43.2603 0L45.2818 9.51444L2.47073 18.3976L0 15.4666C14.3303 9.24388 28.7054 3.83283 43.2603 0Z" transform="translate(62.4353 65.0048)" fill="#F18556"/>
<path d="M12.6232 13.2571C17.0256 14.4295 21.0686 14.0687 24.4827 10.8221C57.321 -2.61534 81.8037 -1.17239 94.8762 15.8273L82.4327 17.9918L95.2355 19.7954C79.7373 35.3071 58.3093 41.2593 22.6858 24.3047C20.26 22.7264 16.9807 22.4559 12.5783 23.8537C11.7697 24.1243 11.0958 24.6654 10.7365 25.432C8.35557 29.9863 4.49224 33.9995 0 37.8774L5.16608 18.2623L0 -3.44026e-07C4.26763 3.47209 7.86142 7.30492 10.5568 11.724C11.0509 12.4454 11.7697 13.0316 12.6232 13.2571Z" transform="translate(40.4238 72.5803)" fill="#F6AF8F"/>
<path d="M4.9593 8.88315C7.38511 5.7267 9.90076 2.97608 12.4613 0.496014L3.92608 1.3761e-06C2.35379 0.586199 1.09597 1.57822 0.107672 2.8859C-0.161862 3.87792 0.0627513 4.82486 0.916277 5.7267L4.9593 8.88315Z" transform="translate(89.7305 106.625)" fill="#E47C59"/>
<path d="M11.5001 8.16168L16.1721 5.09541L3.86333 6.88051e-07C1.7969 0.946935 0.224613 1.93896 3.42731e-07 3.11136C3.45903 5.27578 7.23251 6.94419 11.5001 8.16168Z" transform="translate(59.8303 97.2005)" fill="#E07853"/>
<path d="M3.1259 29.7157L0.565325 19.7954C-0.243278 16.5488 -0.198356 13.1669 0.789938 9.96536L3.84466 1.72013e-07C12.8292 2.38988 19.5675 6.62854 23.9699 12.8062L11.5264 14.9706L24.3293 16.7743C20.0167 21.7795 10.8076 27.6866 3.1259 29.7157Z" transform="translate(111.285 75.6465)" fill="#EF885F"/>
<path d="M2.83011 5.68161C4.39314 5.68161 5.66023 4.40974 5.66023 2.8408C5.66023 1.27187 4.39314 0 2.83011 0C1.26709 0 0 1.27187 0 2.8408C0 4.40974 1.26709 5.68161 2.83011 5.68161Z" transform="translate(115.085 79.9753)" fill="#212121"/>
<path d="M0.583138 0C2.04098 0.384995 5.18993 1.09724 6.12295 0.866239C7.05597 0.635242 7.09484 3.07996 6.99765 4.33119C5.637 4.61994 2.62412 5.13968 1.45784 4.90869C0.336751 4.68664 0.0239039 4.80255 0.00134669 4.89735L0 4.90869C0 4.90496 0.000437596 4.90117 0.00134669 4.89735L0.583138 0Z" transform="matrix(0.997003 0.0611803 -0.061732 0.996375 81.1702 108.986)" fill="#F2CF52"/>
<ellipse cx="4.08165" cy="6.92972" rx="4.08165" ry="6.92972" transform="matrix(0.997003 0.0611807 -0.0617315 0.996375 73.9517 103.055)" fill="#D1AA1F"/>
<path d="M0.698397 0C2.44439 0.467777 6.21573 1.33316 7.33317 1.0525C8.4506 0.771832 8.49716 3.74221 8.38076 5.26249C6.75117 5.61332 3.14279 6.24482 1.74599 5.96415C0.403311 5.69436 0.0286285 5.83519 0.00161286 5.95038L0 5.96415C0 5.95962 0.000524085 5.95502 0.00161286 5.95038L0.698397 0Z" transform="matrix(-0.874561 0.390338 -0.388255 -0.861582 115 116.057)" fill="#F2CF52"/>
<ellipse cx="4.88879" cy="8.42003" rx="4.88879" ry="8.42003" transform="matrix(-0.874559 0.39034 -0.388253 -0.861583 125.529 118.257)" fill="#D1AA1F"/>
<path d="M12.1399 0L0 9.70575V4.50624L12.1399 0Z" transform="matrix(0.754226 0.656615 -0.660191 0.751098 48.2222 103.055)" fill="#66CC33"/>
<path d="M12.1404 0L0 9.70541V4.50608L12.1404 0Z" transform="matrix(0.759046 -0.651037 0.654632 0.755948 60.583 119.261)" fill="#66CC33"/>
<path d="M11.635 0L0 9.28605V4.31138L11.635 0Z" transform="matrix(0.864703 0.502284 -0.50589 0.862598 79.1841 62.2375)" fill="#66CC33"/>
<path d="M12.1499 0L0 9.69778V4.50254L12.1499 0Z" transform="matrix(0.859876 0.510504 -0.514128 0.857714 130.218 98.9042)" fill="#66CC33"/>
</svg>
