<svg width="330" height="237" viewBox="0 0 330 237" fill="none" xmlns="http://www.w3.org/2000/svg">
<path d="M7.97795 13.3248C15.8737 5.69866 277.44 -6.83005 316.102 4.60923C325.632 7.4291 326.555 23.3859 327.265 27.4877C334.616 69.9762 325.359 223.044 320.458 228.764C315.557 234.483 21.0468 244.016 7.97795 228.764C-5.09085 213.511 0.0822297 20.951 7.97795 13.3248Z" fill="white"/>
<path d="M2.09501 8.85646C-3.13251 6.24178 2.79039 1.79644 5.08997 1.56573C9.89307 1.08386 97.3339 -1.70262 101.472 1.56573C103.008 2.77872 103.42 6.25876 101.472 8.85646C97.3883 14.3037 8.62941 12.1248 2.09501 8.85646Z" transform="translate(130.688 61.554)" fill="#F2F2F2"/>
<path d="M2.09501 8.85646C-3.13251 6.24178 2.79039 1.79644 5.08997 1.56573C9.89307 1.08386 97.3339 -1.70262 101.472 1.56573C103.008 2.77872 103.42 6.25876 101.472 8.85646C97.3883 14.3037 8.62941 12.1248 2.09501 8.85646Z" transform="translate(233.472 99.3304) rotate(-180)" fill="#F2F2F2"/>
<path d="M2.09501 8.85646C-3.13251 6.24178 2.79039 1.79644 5.08997 1.56573C9.89307 1.08386 97.3339 -1.70262 101.472 1.56573C103.008 2.77872 103.42 6.25876 101.472 8.85646C97.3883 14.3037 8.62941 12.1248 2.09501 8.85646Z" transform="translate(130.688 166.141)" fill="#F2F2F2"/>
<path d="M2.09501 8.85646C-3.13251 6.24178 2.79039 1.79644 5.08997 1.56573C9.89307 1.08386 97.3339 -1.70262 101.472 1.56573C103.008 2.77872 103.42 6.25876 101.472 8.85646C97.3883 14.3037 8.62941 12.1248 2.09501 8.85646Z" transform="translate(233.472 203.918) rotate(-180)" fill="#F2F2F2"/>
<path d="M4.87142 90.1927C0.218505 87.8637 -3.23982 14.2578 4.87141 2.85526C8.15021 -1.75399 86.9759 -0.0559831 90.6595 2.85526C95.2639 6.49431 96.9603 85.3406 93.3252 90.1927C89.6901 95.0447 10.6876 93.1039 4.87142 90.1927Z" transform="translate(21.2368 21.789)" fill="#F2F2F2"/>
<ellipse cx="46.2868" cy="29.1124" rx="46.2868" ry="29.1124" transform="translate(23.2002 44.5379)" fill="white"/>
<path d="M0 8.06537V-2.8162e-07H52.995V7.40095C53.6386 8.15765 50.2736 12.218 42.8631 12.9932C37.4018 13.5469 36.9421 18.9545 21.073 19.7297C6.04975 20.468 0.275824 8.8959 0 8.06537Z" transform="translate(42.3921 64.1241)" fill="#CC5F4E"/>
<path d="M23.5497 0C15.8266 0 1.11596 7.93618 0.19655 10.3355C-0.722864 12.7348 0.932081 27.3152 19.5042 27.6843C38.0764 28.0535 36.9731 20.8555 43.0413 20.4864C49.1094 20.1173 56.0969 12.1811 51.4999 8.95127C46.9028 5.72143 34.031 0.184562 29.9304 0.313756C25.8298 0.44295 23.5497 0 23.5497 0Z" transform="translate(42.3975 52.7551)" fill="#BA4922"/>
<path d="M21.3147 28.6256C20.8734 28.6256 20.4321 28.6256 19.954 28.6072C9.98752 28.4041 5.07785 24.1408 2.70576 20.6156C-0.0892603 16.4445 -0.291531 11.9781 0.223341 10.6308C0.811766 9.09892 5.50078 6.27512 9.58298 4.31876C12.2861 3.00837 19.1081 0 24.0178 0H24.1097C24.1281 0 26.3899 0.424493 30.3801 0.2953C34.7749 0.184562 47.7387 5.88754 52.2254 9.04355C53.7149 10.0771 54.2297 11.6828 53.7149 13.5469C52.6483 17.3304 47.7019 21.1508 43.5461 21.4092C41.5602 21.5384 40.3834 22.4428 38.8939 23.6055C36.154 25.728 32.458 28.6256 21.3147 28.6256ZM23.9626 0.922812C20.6343 0.941268 15.5408 2.47313 9.96913 5.14929C4.87558 7.60397 1.43697 10.0217 1.08759 10.963C0.701436 11.9781 0.830154 16.1677 3.45968 20.0988C5.70305 23.4579 10.3921 27.4998 19.9724 27.6843C31.8512 27.9243 35.584 25.0082 38.3055 22.8857C39.8501 21.6676 41.1924 20.6341 43.4726 20.4864C47.6099 20.228 51.968 16.3522 52.8138 13.2885C53.2368 11.7935 52.8506 10.6123 51.6922 9.7818C46.9296 6.44122 34.2601 1.10737 30.3985 1.23657C26.5554 1.3473 24.312 0.97818 23.9626 0.922812Z" transform="translate(41.9292 52.2936)" fill="#CE7B6F"/>
<path d="M6.01297 6.60733C9.33384 6.60733 12.0259 5.12823 12.0259 3.30366C12.0259 1.4791 9.33384 0 6.01297 0C2.6921 0 0 1.4791 0 3.30366C0 5.12823 2.6921 6.60733 6.01297 6.60733Z" transform="translate(53.5532 62.4077)" fill="#EFC0AF"/>
<path d="M10.9263 0C10.9263 0 7.70837 1.75334 6.51313 3.22984C5.31789 4.70634 -0.75024 16.3338 0.0772325 17.3489C0.904705 18.364 4.26976 11.6828 6.7154 7.34558C9.16105 3.00837 10.9263 0 10.9263 0Z" transform="translate(63.4607 57.4614)" fill="#CC5F4E"/>
<path d="M10.9263 -1.4081e-07C10.9263 -1.4081e-07 7.70837 1.75334 6.51313 3.22984C5.31789 4.70634 -0.750241 16.3338 0.077232 17.3489C0.904705 18.364 4.26976 11.6828 6.7154 7.34558C9.14266 3.00837 10.9263 -1.4081e-07 10.9263 -1.4081e-07Z" transform="translate(72.4153 60.2852)" fill="#CC5F4E"/>
<path d="M0 17.4524C0 17.4524 3.21795 15.699 4.41319 14.2225C5.60843 12.746 11.6766 1.11859 10.8491 0.103497C10.0216 -0.911596 6.65656 5.76956 4.2293 10.1068C1.80205 14.444 0 17.4524 0 17.4524Z" transform="translate(66.9399 58.6498)" fill="#CC5F4E"/>
<path d="M8.48588 0L0 6.78969V3.15236L8.48588 0Z" transform="translate(47.4861 82.2535) scale(0.999465 1.00054) rotate(41.1742)" fill="#66CC33"/>
<path d="M8.48581 0L0 6.78974V3.15238L8.48581 0Z" transform="translate(77.3237 91.0652) scale(0.999467 1.00053) rotate(-40.7512)" fill="#66CC33"/>
<path d="M8.12434 0L0 6.50295V3.01923L8.12434 0Z" transform="matrix(0.863414 0.504496 -0.503676 0.863892 64.7649 51.3308)" fill="#66CC33"/>
<path d="M8.12502 0L0 6.50241V3.01898L8.12502 0Z" transform="translate(40.0637 76.4844) scale(0.999503 1.0005) rotate(-135.442)" fill="#66CC33"/>
<path d="M8.4843 0L0 6.79095V3.15294L8.4843 0Z" transform="matrix(0.858552 0.512726 -0.511903 0.859043 103.126 71.9038)" fill="#66CC33"/>
<path d="M5.09411 94.4122C0.228493 91.9743 -3.38792 14.9248 5.0941 2.98884C8.52279 -1.83605 90.952 -0.0586022 94.8039 2.98884C99.6188 6.79814 101.393 89.3331 97.5915 94.4122C93.7902 99.4913 11.1761 97.4596 5.09411 94.4122Z" transform="translate(21.781 126.376)" fill="#F2F2F2"/>
<ellipse cx="48.4028" cy="30.4744" rx="48.4028" ry="30.4744" transform="translate(23.8337 150.189)" fill="white"/>
<path d="M0.424687 0C1.4864 0.282168 3.77971 0.804179 4.45921 0.634878C5.13871 0.465577 5.16702 2.25734 5.09624 3.17439C4.10531 3.38602 1.91109 3.76694 1.06172 3.59764C0.245249 3.4349 0.0174086 3.51985 0.000980758 3.58933L0 3.59764C0 3.59491 0.000318688 3.59213 0.000980758 3.58933L0.424687 0Z" transform="matrix(0.998096 0.0616724 -0.0614135 0.998112 56.5837 165.717)" fill="#F2CF52"/>
<ellipse cx="2.97281" cy="5.07902" rx="2.97281" ry="5.07902" transform="matrix(0.998096 0.0616724 -0.0614134 0.998112 51.3203 161.363)" fill="#D1AA1F"/>
<path d="M31.5412 0L33.015 6.98507L1.80142 13.5067L0 11.3549C10.4482 6.78645 20.9292 2.81389 31.5412 0Z" transform="translate(55.0879 159.332)" fill="#F18556"/>
<path d="M9.2036 9.73276C12.4134 10.5935 15.3612 10.3286 17.8504 7.94511C41.7929 -1.92007 59.6432 -0.86072 69.1744 11.6197L60.1018 13.2087L69.4364 14.5329C58.1366 25.9209 42.5134 30.2907 16.5403 17.8434C14.7716 16.6847 12.3806 16.4861 9.17085 17.5123C8.58129 17.711 8.09 18.1082 7.82797 18.671C6.09206 22.0146 3.2753 24.9609 0 27.8079L3.7666 13.4074L0 -2.52568e-07C3.11154 2.54906 5.73178 5.36295 7.69696 8.6072C8.05724 9.13687 8.58129 9.56723 9.2036 9.73276Z" transform="translate(39.0391 164.893)" fill="#F6AF8F"/>
<path d="M3.61583 6.52161C5.38449 4.20429 7.21866 2.18491 9.08558 0.364151L2.86251 1.01027e-06C1.71616 0.430361 0.799071 1.15866 0.0785041 2.11869C-0.118014 2.847 0.0457521 3.54219 0.668059 4.20429L3.61583 6.52161Z" transform="translate(74.989 189.888)" fill="#E47C59"/>
<path d="M8.38477 5.99194L11.7911 3.74082L2.81676 5.05136e-07C1.31012 0.695198 0.163765 1.4235 2.49886e-07 2.28422C2.52198 3.87324 5.27324 5.09811 8.38477 5.99194Z" transform="translate(53.1875 182.969)" fill="#E07853"/>
<path d="M2.2791 21.8159L0.41218 14.5329C-0.177375 12.1494 -0.144622 9.66655 0.575945 7.31612L2.80315 1.26284e-07C9.35375 1.75454 14.2667 4.86638 17.4765 9.40171L8.40391 10.9907L17.7385 12.3149C14.5942 15.9895 7.87987 20.3262 2.2791 21.8159Z" transform="translate(90.7036 167.145)" fill="#EF885F"/>
<path d="M2.06344 4.17118C3.20305 4.17118 4.12688 3.23743 4.12688 2.08559C4.12688 0.933751 3.20305 0 2.06344 0C0.923834 0 0 0.933751 0 2.08559C0 3.23743 0.923834 4.17118 2.06344 4.17118Z" transform="translate(93.4746 170.323)" fill="#212121"/>
<path d="M0.424687 0C1.4864 0.282168 3.77971 0.804179 4.45921 0.634878C5.13871 0.465577 5.16702 2.25734 5.09624 3.17439C4.10531 3.38602 1.91109 3.76694 1.06172 3.59764C0.245249 3.4349 0.0174086 3.51985 0.000980758 3.58933L0 3.59764C0 3.59491 0.000318688 3.59213 0.000980758 3.58933L0.424687 0Z" transform="matrix(0.998096 0.0616724 -0.0614135 0.998112 68.7478 191.62)" fill="#F2CF52"/>
<ellipse cx="2.97281" cy="5.07902" rx="2.97281" ry="5.07902" transform="matrix(0.998096 0.0616724 -0.0614134 0.998112 63.4841 187.267)" fill="#D1AA1F"/>
<path d="M0.488257 0C1.7089 0.324181 4.34549 0.923915 5.1267 0.729407C5.90791 0.534898 5.94046 2.59345 5.85908 3.64703C4.71982 3.89017 2.19716 4.32781 1.22064 4.1333C0.281959 3.94633 0.0200145 4.04393 0.00112757 4.12376L0 4.1333C0 4.13016 0.000366393 4.12698 0.00112757 4.12376L0.488257 0Z" transform="matrix(-0.912119 0.409925 -0.408486 -0.912764 93.4138 196.812)" fill="#F2CF52"/>
<ellipse cx="3.4178" cy="5.83525" rx="3.4178" ry="5.83525" transform="matrix(-0.912119 0.409925 -0.408486 -0.912764 101.09 198.427)" fill="#D1AA1F"/>
<path d="M8.87775 0L0 7.10419V3.29837L8.87775 0Z" transform="matrix(0.751975 0.659192 -0.657616 0.753353 44.7249 187.267)" fill="#66CC33"/>
<path d="M8.87761 0L0 7.1043V3.29843L8.87761 0Z" transform="matrix(0.756817 -0.653626 0.652044 0.758181 53.7373 199.164)" fill="#66CC33"/>
<path d="M8.49795 0L0 6.80542V3.15966L8.49795 0Z" transform="matrix(0.863189 0.50488 -0.503292 0.864116 67.2986 157.3)" fill="#66CC33"/>
<path d="M8.87454 0L0 7.10676V3.29957L8.87454 0Z" transform="matrix(0.858321 0.513113 -0.511517 0.859273 104.509 184.219)" fill="#66CC33"/>
<path d="M3.20764 13.4732C-4.79615 9.4955 4.27233 2.73289 7.7932 2.38192C15.1472 1.64886 149.027 -2.59016 155.363 2.38192C157.715 4.22722 158.345 9.52133 155.363 13.4732C149.11 21.76 13.2124 18.4452 3.20764 13.4732Z" transform="translate(284.246 44.6675) rotate(180)" fill="#F2F2F2"/>
<path d="M3.20764 13.4732C-4.79615 9.4955 4.27233 2.73289 7.7932 2.38192C15.1472 1.64886 149.027 -2.59016 155.363 2.38192C157.715 4.22722 158.345 9.52133 155.363 13.4732C149.11 21.76 13.2124 18.4452 3.20764 13.4732Z" transform="translate(132.322 131.824)" fill="#F2F2F2"/>
<path d="M61.4975 5.8867C69.3883 17.846 62.0524 48.1306 57.5439 51.1373C45.4201 59.2226 8.02948 57.45 2.67434 51.1374C0.304261 48.3435 -1.99572 11.0876 2.8491 8.25239C24.7279 -4.55104 57.5439 -0.105296 61.4975 5.8867Z" transform="translate(251.623 164.428)" fill="#66CC33"/>
<path d="M46.9812 16.6571C50.684 16.6571 54.8564 19.0467 52.6988 20.7426C48.887 23.7385 48.288 25.6451 46.9812 34.3607C45.3475 45.2552 42.8972 45.2552 38.8132 45.7999C34.7291 46.3446 32.551 43.8934 20.5713 45.7999C8.5915 47.7064 5.05209 41.7145 5.05209 39.5355C5.05209 37.3566 3.14619 22.6491 3.14619 22.9214C3.14619 23.1938 -3.93274 18.2913 3.14619 17.2018C10.2251 16.1124 11.3142 12.844 13.2201 9.57565C15.1259 6.3073 16.215 1.94949 20.5713 0.587719C24.9275 -0.774056 18.3931 10.1204 17.0318 14.2058C15.6705 18.2912 27.3779 17.2018 32.551 17.2018C37.7241 17.2018 35.0014 13.1164 32.551 9.57565C30.1006 6.03494 29.0116 3.31135 31.1897 0.587719C33.3678 -2.13591 36.3628 5.21789 38.8132 10.1204C41.2636 15.0229 42.3526 16.6571 46.9812 16.6571Z" transform="translate(257.02 169.954)" fill="white"/>
<path d="M0.208667 2.45883C0.7532 -0.264797 0.480934 0.00756563 2.93133 0.00756563C3.38513 0.00756563 4.23827 1.36938 4.02045 6.81665C3.74819 13.6257 2.93133 19.8901 1.57 18.8006C0.208667 17.7112 -0.335866 5.18246 0.208667 2.45883Z" transform="translate(269.487 190.962)" fill="#66CC33"/>
<path d="M0.208667 2.45883C0.7532 -0.264797 0.480934 0.00756563 2.93133 0.00756563C3.38513 0.00756563 4.23827 1.36938 4.02045 6.81665C3.74819 13.6257 2.93133 19.8901 1.57 18.8006C0.208667 17.7112 -0.335866 5.18246 0.208667 2.45883Z" transform="translate(285.76 190.697)" fill="#66CC33"/>
<path d="M0.208667 2.45883C0.7532 -0.264797 0.480934 0.00756563 2.93133 0.00756563C3.38513 0.00756563 4.23827 1.36938 4.02045 6.81665C3.74819 13.6257 2.93133 19.8901 1.57 18.8006C0.208667 17.7112 -0.335866 5.18246 0.208667 2.45883Z" transform="translate(281.646 209.621) rotate(180)" fill="#66CC33"/>
<path d="M0.208667 2.45883C0.7532 -0.264797 0.480934 0.00756563 2.93133 0.00756563C3.38513 0.00756563 4.23827 1.36938 4.02045 6.81665C3.74819 13.6257 2.93133 19.8901 1.57 18.8006C0.208667 17.7112 -0.335866 5.18246 0.208667 2.45883Z" transform="translate(297.983 209.621) rotate(180)" fill="#66CC33"/>
</svg>
