<svg width="327" height="248" viewBox="0 0 327 248" fill="none" xmlns="http://www.w3.org/2000/svg">
<rect width="327" height="248" fill="#E5E5E5"/>
<g clip-path="url(#clip0)">
<rect width="360" height="4177" fill="#F2F2F2" transform="translate(-17 -1839)"/>
<path d="M255.598 46.7549C227.215 14.0452 175.173 25.5901 138.134 5.10889C106.635 -12.3089 62.9728 18.7484 19.5523 39.2625C-23.8681 59.7767 18.6494 39.6149 18.198 39.791V265.981C18.198 269.353 19.5523 312 19.5523 312C19.5523 312 80.6667 252.973 123.853 241.038C184.323 224.325 233.094 283.603 272.946 203.646C300.079 149.208 291.845 88.5262 255.598 46.7549Z" transform="translate(-40 45)" fill="#E0E0E0"/>
<path d="M6.87734 11.4364C13.6838 4.89103 239.165 -5.86208 272.493 3.956C280.709 6.37623 281.505 20.0716 282.116 23.5921C288.453 60.0591 280.473 191.434 276.249 196.343C272.024 201.252 18.1432 209.434 6.87734 196.343C-4.38853 183.252 0.0708856 17.9818 6.87734 11.4364Z" transform="translate(42.5256 44.588)" fill="white"/>
<path d="M81.79 4.47455C82.5781 4.78168 82.3906 13.3484 78.5041 15.9289C70.7588 21.0717 6.6064 21.3469 1.99003 15.9289C-0.0530768 13.531 -1.57378 6.23892 2.92885 4.47455C17.2459 -1.13564 65.5953 -1.83709 81.79 4.47455Z" transform="translate(225.787 209.919)" fill="#66CC33"/>
<path d="M11.3559 7.73926C11.2739 7.4834 11.1938 7.23242 11.1157 6.98633C11.0825 6.88086 11.0474 6.77246 11.0102 6.66113C10.9731 6.5498 10.936 6.43945 10.8989 6.33008C10.8638 6.2207 10.8286 6.11523 10.7934 6.01367C10.7583 5.91211 10.7251 5.82031 10.6938 5.73828C10.6802 5.70117 10.6577 5.67871 10.6265 5.6709C10.5952 5.66113 10.5591 5.65918 10.5181 5.66504C10.477 5.6709 10.4321 5.68066 10.3833 5.69434C10.3364 5.70605 10.2905 5.71484 10.2456 5.7207C9.94872 5.76367 9.64891 5.7998 9.34618 5.8291C9.0454 5.8584 8.74364 5.87305 8.44091 5.87305C8.25731 5.87305 8.07372 5.86719 7.89013 5.85547C7.86278 5.85352 7.84032 5.85059 7.82274 5.84668C7.80516 5.84277 7.78856 5.84082 7.77294 5.84082C7.75731 5.84082 7.74364 5.84668 7.73192 5.8584C7.7202 5.87012 7.70946 5.89258 7.6997 5.92578C7.68016 5.99414 7.65868 6.06543 7.63524 6.13965C7.6118 6.21387 7.58934 6.29004 7.56786 6.36816C7.54638 6.44434 7.52782 6.52148 7.5122 6.59961C7.49852 6.67578 7.49169 6.75098 7.49169 6.8252C7.49169 6.90723 7.50243 6.98828 7.52391 7.06836C7.5454 7.14648 7.57665 7.2207 7.61766 7.29102C7.66063 7.35938 7.71141 7.42188 7.77001 7.47852C7.83055 7.5332 7.89891 7.57617 7.97509 7.60742C8.08446 7.6543 8.20067 7.68945 8.32372 7.71289C8.44872 7.73633 8.56591 7.75488 8.67528 7.76855C8.70458 7.77246 8.72606 7.78027 8.73973 7.79199C8.75341 7.80371 8.76317 7.81836 8.76903 7.83594C8.77489 7.85352 8.7788 7.87402 8.78075 7.89746C8.7827 7.9209 8.78661 7.94531 8.79247 7.9707C8.35888 7.94922 7.93114 7.91211 7.50927 7.85938C7.08934 7.80664 6.66454 7.73926 6.23485 7.65723C6.20165 7.64941 6.17723 7.63672 6.16161 7.61914C6.14794 7.59961 6.13817 7.57715 6.13231 7.55176C6.1245 7.52441 6.11962 7.49512 6.11766 7.46387C6.11571 7.43262 6.11278 7.40234 6.10888 7.37305C6.15966 7.38672 6.21239 7.39844 6.26708 7.4082C6.32177 7.41602 6.37645 7.41992 6.43114 7.41992C6.5327 7.41992 6.61962 7.4043 6.69188 7.37305C6.76415 7.33984 6.82665 7.2959 6.87938 7.24121C6.93212 7.18457 6.97606 7.12012 7.01122 7.04785C7.04638 6.97559 7.07567 6.89941 7.09911 6.81934C7.1245 6.73926 7.14696 6.6582 7.16649 6.57617C7.18602 6.49219 7.20555 6.41309 7.22509 6.33887C7.37938 5.77051 7.54149 5.2041 7.71141 4.63965C7.88134 4.07324 8.06298 3.51172 8.25634 2.95508C8.4497 2.39648 8.65673 1.84375 8.87743 1.29688C9.10009 0.75 9.34032 0.212891 9.59813 -0.314453C9.63329 -0.388672 9.66845 -0.460938 9.7036 -0.53125C9.74071 -0.603516 9.77684 -0.676758 9.812 -0.750977H10.3804C10.4155 -0.750977 10.4468 -0.737305 10.4741 -0.709961C10.5015 -0.68457 10.5259 -0.65332 10.5474 -0.616211C10.5688 -0.579102 10.5884 -0.539062 10.6059 -0.496094C10.6235 -0.455078 10.6401 -0.419922 10.6558 -0.390625C10.8765 0.0175781 11.0874 0.432617 11.2886 0.854492C11.4917 1.27637 11.6821 1.7041 11.8599 2.1377C12.0376 2.57129 12.2016 3.01074 12.352 3.45605C12.5044 3.89941 12.6411 4.34668 12.7622 4.79785C12.8813 5.24512 12.9868 5.69434 13.0786 6.14551C13.1724 6.59668 13.2563 7.05176 13.3306 7.51074C13.4477 7.48926 13.5649 7.46777 13.6821 7.44629C13.8013 7.42285 13.9194 7.39844 14.0366 7.37305C14.0308 7.40234 14.0268 7.43262 14.0249 7.46387C14.0249 7.49512 14.021 7.52441 14.0132 7.55176C14.0073 7.57715 13.9966 7.59961 13.9809 7.61914C13.9653 7.63672 13.9409 7.64941 13.9077 7.65723C13.3276 7.78027 12.7397 7.86523 12.144 7.91211C11.5503 7.95898 10.9546 7.9873 10.3569 7.99707C10.3569 7.95996 10.3579 7.92383 10.3599 7.88867C10.3618 7.85352 10.3638 7.81836 10.3657 7.7832C10.5298 7.77344 10.6938 7.7666 10.8579 7.7627C11.0239 7.75684 11.1899 7.74902 11.3559 7.73926L11.2739 7.44043L11.3559 7.73926ZM10.6118 5.33691C10.4184 4.85449 10.2319 4.38086 10.0522 3.91602C9.97606 3.71875 9.89598 3.51367 9.812 3.30078C9.72997 3.08789 9.64891 2.87793 9.56884 2.6709C9.49071 2.46191 9.41552 2.26074 9.34325 2.06738C9.27098 1.87402 9.20555 1.69727 9.14696 1.53711C8.8911 2.20312 8.64891 2.87012 8.4204 3.53809C8.19384 4.2041 7.97802 4.87891 7.77294 5.5625C7.85302 5.56641 7.93212 5.57031 8.01024 5.57422C8.08837 5.57617 8.16747 5.57715 8.24755 5.57715C8.64598 5.57715 9.04149 5.55273 9.43407 5.50391C9.82665 5.45508 10.2192 5.39941 10.6118 5.33691ZM18.1909 8.09961C18.2065 7.96875 18.2202 7.83789 18.2319 7.70703C18.2456 7.57617 18.2583 7.44434 18.27 7.31152C18.1938 7.45996 18.1099 7.59277 18.0181 7.70996C17.9282 7.8252 17.8227 7.92285 17.7016 8.00293C17.5825 8.08496 17.4438 8.14648 17.2856 8.1875C17.1294 8.23047 16.9477 8.25195 16.7407 8.25195C16.4399 8.25195 16.1636 8.20605 15.9116 8.11426C15.6616 8.02246 15.437 7.89844 15.2378 7.74219C15.0386 7.58398 14.8638 7.39941 14.7134 7.18848C14.5649 6.97559 14.4409 6.75 14.3413 6.51172C14.2417 6.27148 14.1665 6.02441 14.1157 5.77051C14.0669 5.51465 14.0425 5.26367 14.0425 5.01758C14.0425 4.81055 14.062 4.60742 14.1011 4.4082C14.1401 4.20898 14.2065 4.01758 14.3003 3.83398C14.3628 3.71094 14.436 3.59375 14.52 3.48242C14.604 3.37109 14.6948 3.2666 14.7925 3.16895C14.8921 3.07129 14.9966 2.98047 15.1059 2.89648C15.2173 2.81055 15.3306 2.73047 15.4458 2.65625C15.5669 2.58008 15.6938 2.50488 15.8266 2.43066C15.9614 2.35449 16.0991 2.28711 16.2397 2.22852C16.3823 2.16797 16.5268 2.11914 16.6733 2.08203C16.8198 2.04492 16.9673 2.02637 17.1157 2.02637C17.2505 2.02637 17.3823 2.04492 17.5112 2.08203C17.6421 2.11914 17.7632 2.17285 17.8745 2.24316C17.9878 2.31348 18.0874 2.39941 18.1733 2.50098C18.2612 2.60254 18.3296 2.71777 18.3784 2.84668C18.3667 2.35645 18.3491 1.86914 18.3257 1.38477C18.3042 0.900391 18.2661 0.414062 18.2114 -0.0742188C18.2075 -0.113281 18.2007 -0.137695 18.1909 -0.147461C18.1811 -0.15918 18.1665 -0.165039 18.147 -0.165039C18.1118 -0.165039 18.0698 -0.164062 18.021 -0.162109C17.9741 -0.162109 17.9243 -0.161133 17.8716 -0.15918C17.8208 -0.15918 17.769 -0.158203 17.7163 -0.15625C17.6636 -0.15625 17.6138 -0.15625 17.5669 -0.15625C17.5669 -0.1875 17.5659 -0.217773 17.564 -0.24707C17.564 -0.27832 17.563 -0.30957 17.561 -0.34082C17.7798 -0.34082 17.9956 -0.336914 18.2085 -0.329102C18.4233 -0.321289 18.6401 -0.30957 18.8589 -0.293945C18.9565 -0.286133 19.0532 -0.279297 19.1489 -0.273438C19.2446 -0.269531 19.3413 -0.267578 19.439 -0.267578C19.4956 -0.267578 19.5513 -0.268555 19.6059 -0.270508C19.6606 -0.274414 19.7163 -0.27832 19.7729 -0.282227C19.81 0.0185547 19.853 0.338867 19.9018 0.678711C19.9507 1.01855 19.9966 1.36719 20.0395 1.72461C20.0845 2.08008 20.1225 2.43945 20.1538 2.80273C20.185 3.16406 20.2007 3.51855 20.2007 3.86621C20.2007 4.49902 20.1772 5.12793 20.1304 5.75293C20.0854 6.37598 20.019 7.00098 19.9311 7.62793C20.0268 7.60645 20.1206 7.58496 20.2124 7.56348C20.3061 7.54199 20.3999 7.51953 20.4936 7.49609C20.4897 7.53516 20.4849 7.5752 20.479 7.61621C20.4731 7.65723 20.4683 7.69824 20.4643 7.73926C20.0893 7.83301 19.7134 7.91113 19.3364 7.97363C18.9595 8.03418 18.5776 8.07617 18.1909 8.09961ZM15.9526 6.55566C15.9643 6.69238 15.9829 6.83008 16.0083 6.96875C16.0337 7.10742 16.0718 7.23926 16.1225 7.36426C16.1733 7.48926 16.2417 7.60254 16.3276 7.7041C16.4136 7.80566 16.5239 7.88867 16.6587 7.95312C16.7251 7.98633 16.7895 8.00977 16.852 8.02344C16.9145 8.03711 16.977 8.04395 17.0395 8.04395C17.1411 8.04395 17.2378 8.02539 17.3296 7.98828C17.4233 7.95117 17.5093 7.90039 17.5874 7.83594C17.6675 7.76953 17.7397 7.69336 17.8042 7.60742C17.8686 7.51953 17.9243 7.42578 17.9712 7.32617C18.0395 7.17773 18.0952 7.02441 18.1382 6.86621C18.1811 6.70801 18.2153 6.54785 18.2407 6.38574C18.2681 6.22168 18.2886 6.05762 18.3022 5.89355C18.3159 5.72949 18.3276 5.56641 18.3374 5.4043C18.3452 5.27539 18.352 5.1416 18.3579 5.00293C18.3657 4.86426 18.3696 4.72168 18.3696 4.5752C18.3696 4.43457 18.3628 4.28418 18.3491 4.12402C18.3354 3.96191 18.312 3.80176 18.2788 3.64355C18.2456 3.48535 18.2007 3.33301 18.144 3.18652C18.0893 3.03809 18.02 2.9082 17.936 2.79688C17.852 2.68555 17.7524 2.59668 17.6372 2.53027C17.5239 2.46191 17.3911 2.42773 17.2388 2.42773C17.1138 2.42773 16.9858 2.45312 16.855 2.50391C16.7241 2.55469 16.6089 2.62207 16.5093 2.70605C16.4116 2.79004 16.3257 2.88477 16.2515 2.99023C16.1792 3.0957 16.1186 3.20898 16.0698 3.33008C16.0229 3.45117 15.9839 3.57617 15.9526 3.70508C15.9233 3.83398 15.9018 3.96289 15.8882 4.0918C15.8765 4.2207 15.8696 4.34473 15.8677 4.46387C15.8677 4.44824 15.8667 4.44043 15.8647 4.44043C15.8647 4.46191 15.8647 4.51465 15.8647 4.59863C15.8667 4.68066 15.8696 4.78223 15.8735 4.90332C15.8774 5.02441 15.8813 5.15918 15.8852 5.30762C15.8911 5.45605 15.897 5.60547 15.9028 5.75586C15.9106 5.9043 15.9184 6.04883 15.9263 6.18945C15.9341 6.32812 15.9429 6.4502 15.9526 6.55566ZM24.8003 8.09961C24.8159 7.96875 24.8296 7.83789 24.8413 7.70703C24.855 7.57617 24.8677 7.44434 24.8794 7.31152C24.8032 7.45996 24.7192 7.59277 24.6274 7.70996C24.5376 7.8252 24.4321 7.92285 24.311 8.00293C24.1919 8.08496 24.0532 8.14648 23.895 8.1875C23.7388 8.23047 23.5571 8.25195 23.3501 8.25195C23.0493 8.25195 22.7729 8.20605 22.521 8.11426C22.271 8.02246 22.0464 7.89844 21.8472 7.74219C21.6479 7.58398 21.4731 7.39941 21.3227 7.18848C21.1743 6.97559 21.0503 6.75 20.9507 6.51172C20.8511 6.27148 20.7759 6.02441 20.7251 5.77051C20.6763 5.51465 20.6518 5.26367 20.6518 5.01758C20.6518 4.81055 20.6714 4.60742 20.7104 4.4082C20.7495 4.20898 20.8159 4.01758 20.9097 3.83398C20.9722 3.71094 21.0454 3.59375 21.1294 3.48242C21.2134 3.37109 21.3042 3.2666 21.4018 3.16895C21.5015 3.07129 21.6059 2.98047 21.7153 2.89648C21.8266 2.81055 21.9399 2.73047 22.0552 2.65625C22.1763 2.58008 22.3032 2.50488 22.436 2.43066C22.5708 2.35449 22.7085 2.28711 22.8491 2.22852C22.9917 2.16797 23.1362 2.11914 23.2827 2.08203C23.4292 2.04492 23.5766 2.02637 23.7251 2.02637C23.8599 2.02637 23.9917 2.04492 24.1206 2.08203C24.2515 2.11914 24.3725 2.17285 24.4839 2.24316C24.5972 2.31348 24.6968 2.39941 24.7827 2.50098C24.8706 2.60254 24.939 2.71777 24.9878 2.84668C24.9761 2.35645 24.9585 1.86914 24.935 1.38477C24.9136 0.900391 24.8755 0.414062 24.8208 -0.0742188C24.8169 -0.113281 24.81 -0.137695 24.8003 -0.147461C24.7905 -0.15918 24.7759 -0.165039 24.7563 -0.165039C24.7212 -0.165039 24.6792 -0.164062 24.6304 -0.162109C24.5835 -0.162109 24.5337 -0.161133 24.4809 -0.15918C24.4302 -0.15918 24.3784 -0.158203 24.3257 -0.15625C24.2729 -0.15625 24.2231 -0.15625 24.1763 -0.15625C24.1763 -0.1875 24.1753 -0.217773 24.1733 -0.24707C24.1733 -0.27832 24.1724 -0.30957 24.1704 -0.34082C24.3891 -0.34082 24.605 -0.336914 24.8179 -0.329102C25.0327 -0.321289 25.2495 -0.30957 25.4683 -0.293945C25.5659 -0.286133 25.6626 -0.279297 25.7583 -0.273438C25.854 -0.269531 25.9507 -0.267578 26.0483 -0.267578C26.105 -0.267578 26.1606 -0.268555 26.2153 -0.270508C26.27 -0.274414 26.3257 -0.27832 26.3823 -0.282227C26.4194 0.0185547 26.4624 0.338867 26.5112 0.678711C26.56 1.01855 26.6059 1.36719 26.6489 1.72461C26.6938 2.08008 26.7319 2.43945 26.7632 2.80273C26.7944 3.16406 26.81 3.51855 26.81 3.86621C26.81 4.49902 26.7866 5.12793 26.7397 5.75293C26.6948 6.37598 26.6284 7.00098 26.5405 7.62793C26.6362 7.60645 26.73 7.58496 26.8218 7.56348C26.9155 7.54199 27.0093 7.51953 27.103 7.49609C27.0991 7.53516 27.0942 7.5752 27.0884 7.61621C27.0825 7.65723 27.0776 7.69824 27.0737 7.73926C26.6987 7.83301 26.3227 7.91113 25.9458 7.97363C25.5688 8.03418 25.187 8.07617 24.8003 8.09961ZM22.562 6.55566C22.5737 6.69238 22.5923 6.83008 22.6177 6.96875C22.6431 7.10742 22.6811 7.23926 22.7319 7.36426C22.7827 7.48926 22.8511 7.60254 22.937 7.7041C23.0229 7.80566 23.1333 7.88867 23.2681 7.95312C23.3345 7.98633 23.3989 8.00977 23.4614 8.02344C23.5239 8.03711 23.5864 8.04395 23.6489 8.04395C23.7505 8.04395 23.8472 8.02539 23.939 7.98828C24.0327 7.95117 24.1186 7.90039 24.1968 7.83594C24.2768 7.76953 24.3491 7.69336 24.4136 7.60742C24.478 7.51953 24.5337 7.42578 24.5806 7.32617C24.6489 7.17773 24.7046 7.02441 24.7475 6.86621C24.7905 6.70801 24.8247 6.54785 24.8501 6.38574C24.8774 6.22168 24.8979 6.05762 24.9116 5.89355C24.9253 5.72949 24.937 5.56641 24.9468 5.4043C24.9546 5.27539 24.9614 5.1416 24.9673 5.00293C24.9751 4.86426 24.979 4.72168 24.979 4.5752C24.979 4.43457 24.9722 4.28418 24.9585 4.12402C24.9448 3.96191 24.9214 3.80176 24.8882 3.64355C24.855 3.48535 24.81 3.33301 24.7534 3.18652C24.6987 3.03809 24.6294 2.9082 24.5454 2.79688C24.4614 2.68555 24.3618 2.59668 24.2466 2.53027C24.1333 2.46191 24.0005 2.42773 23.8481 2.42773C23.7231 2.42773 23.5952 2.45312 23.4643 2.50391C23.3335 2.55469 23.2183 2.62207 23.1186 2.70605C23.021 2.79004 22.935 2.88477 22.8608 2.99023C22.7886 3.0957 22.728 3.20898 22.6792 3.33008C22.6323 3.45117 22.5933 3.57617 22.562 3.70508C22.5327 3.83398 22.5112 3.96289 22.4975 4.0918C22.4858 4.2207 22.479 4.34473 22.477 4.46387C22.477 4.44824 22.4761 4.44043 22.4741 4.44043C22.4741 4.46191 22.4741 4.51465 22.4741 4.59863C22.4761 4.68066 22.479 4.78223 22.4829 4.90332C22.4868 5.02441 22.4907 5.15918 22.4946 5.30762C22.5005 5.45605 22.5063 5.60547 22.5122 5.75586C22.52 5.9043 22.5278 6.04883 22.5356 6.18945C22.5434 6.32812 22.5522 6.4502 22.562 6.55566ZM32.1274 2.6709C32.0298 2.68652 31.9321 2.70312 31.8345 2.7207C31.7388 2.73828 31.6421 2.75684 31.5444 2.77637C31.5503 2.73535 31.5552 2.69531 31.5591 2.65625C31.5649 2.61523 31.5718 2.57422 31.5796 2.5332C31.7397 2.50195 31.8979 2.47266 32.0542 2.44531C32.2104 2.41602 32.3696 2.39062 32.5317 2.36914C32.7622 2.33789 32.9907 2.30566 33.2173 2.27246C33.4458 2.2373 33.6733 2.18848 33.8999 2.12598C33.894 2.22949 33.8882 2.33203 33.8823 2.43359C33.8784 2.53516 33.8745 2.6377 33.8706 2.74121C33.8843 2.73926 33.9028 2.72656 33.9263 2.70312C33.9516 2.67969 33.977 2.65332 34.0024 2.62402C34.0278 2.59473 34.0522 2.56641 34.0757 2.53906C34.0991 2.50977 34.1177 2.48926 34.1313 2.47754C34.272 2.3623 34.4155 2.2793 34.562 2.22852C34.7085 2.17773 34.8696 2.15234 35.0454 2.15234C35.1821 2.15234 35.3198 2.16309 35.4585 2.18457C35.5972 2.20605 35.73 2.24121 35.8569 2.29004C35.9858 2.33691 36.1059 2.39746 36.2173 2.47168C36.3306 2.54395 36.4282 2.63281 36.5102 2.73828C36.5923 2.8418 36.6567 2.96191 36.7036 3.09863C36.7524 3.23535 36.7768 3.38965 36.7768 3.56152C36.7768 3.67676 36.7622 3.77344 36.7329 3.85156C36.7036 3.92969 36.6636 3.99219 36.6128 4.03906C36.564 4.08594 36.5063 4.11914 36.4399 4.13867C36.3735 4.1582 36.3022 4.16797 36.2261 4.16797C36.0659 4.16797 35.9155 4.14551 35.7749 4.10059C35.6343 4.05371 35.5112 3.9873 35.4058 3.90137C35.3022 3.81543 35.2202 3.71094 35.1597 3.58789C35.0991 3.46484 35.0688 3.3252 35.0688 3.16895C35.0688 3.08887 35.0747 3.00781 35.0864 2.92578C35.0981 2.84375 35.1274 2.76855 35.1743 2.7002C35.1899 2.67676 35.2085 2.64551 35.23 2.60645C35.2515 2.56543 35.2622 2.52637 35.2622 2.48926C35.2622 2.45996 35.2524 2.43555 35.2329 2.41602C35.2134 2.39648 35.189 2.38086 35.1597 2.36914C35.1323 2.35742 35.102 2.34863 35.0688 2.34277C35.0356 2.33691 35.0044 2.33398 34.9751 2.33398C34.9302 2.33398 34.8852 2.33887 34.8403 2.34863C34.7954 2.35645 34.7515 2.36719 34.7085 2.38086C34.6655 2.39453 34.6245 2.41016 34.5854 2.42773C34.5483 2.44531 34.5151 2.46289 34.4858 2.48047C34.3569 2.5625 34.2524 2.66895 34.1724 2.7998C34.0942 2.93066 34.0327 3.07227 33.9878 3.22461C33.9429 3.375 33.9097 3.53027 33.8882 3.69043C33.8686 3.84863 33.855 3.99609 33.8472 4.13281C33.8374 4.2793 33.8306 4.42676 33.8266 4.5752C33.8227 4.72168 33.8208 4.86816 33.8208 5.01465C33.8208 5.48926 33.8257 5.95996 33.8354 6.42676C33.8452 6.8916 33.8628 7.36035 33.8882 7.83301C33.9897 7.83105 34.0923 7.83105 34.1958 7.83301C34.3013 7.83301 34.4038 7.82715 34.5034 7.81543C34.5015 7.84277 34.4995 7.87012 34.4975 7.89746C34.4975 7.92285 34.4946 7.94531 34.4888 7.96484C34.4849 7.98438 34.478 8 34.4683 8.01172C34.4585 8.02344 34.4448 8.0293 34.4272 8.0293C34.2104 8.0293 33.9907 8.02637 33.7681 8.02051C33.5454 8.0166 33.3227 8.00684 33.1001 7.99121C32.8794 7.97559 32.6587 7.95508 32.438 7.92969C32.2192 7.90234 32.0044 7.86621 31.7934 7.82129C31.7563 7.81348 31.7261 7.80859 31.7026 7.80664C31.6792 7.80469 31.6597 7.79688 31.644 7.7832C31.6304 7.76758 31.6196 7.74219 31.6118 7.70703C31.604 7.67188 31.5972 7.61914 31.5913 7.54883C31.685 7.57617 31.7798 7.60156 31.8755 7.625C31.9712 7.64648 32.0679 7.66797 32.1655 7.68945C32.0854 7.25781 32.0259 6.82617 31.9868 6.39453C31.9497 5.96094 31.9311 5.52441 31.9311 5.08496C31.9311 4.67871 31.9477 4.27539 31.9809 3.875C32.0141 3.47266 32.063 3.07129 32.1274 2.6709ZM41.8979 6.36523C41.9233 6.38867 41.9487 6.41211 41.9741 6.43555C41.9995 6.45703 42.0249 6.47852 42.0503 6.5C41.9292 6.71875 41.7876 6.92676 41.6255 7.12402C41.4653 7.32129 41.2866 7.49512 41.0893 7.64551C40.894 7.79395 40.6821 7.91211 40.4536 8C40.2251 8.08789 39.9839 8.13184 39.73 8.13184C39.4624 8.13184 39.1987 8.10156 38.939 8.04102C38.6811 7.98047 38.436 7.8916 38.2036 7.77441C37.9731 7.65723 37.7602 7.51367 37.5649 7.34375C37.3696 7.17188 37.2007 6.97559 37.0581 6.75488C36.9175 6.53418 36.8071 6.28906 36.727 6.01953C36.647 5.75 36.6069 5.45898 36.6069 5.14648C36.6069 4.93555 36.6274 4.72656 36.6684 4.51953C36.7114 4.31055 36.7739 4.1084 36.8559 3.91309C36.938 3.71777 37.0386 3.53125 37.1577 3.35352C37.2788 3.17383 37.4175 3.00781 37.5737 2.85547C37.6968 2.73438 37.8276 2.625 37.9663 2.52734C38.105 2.42773 38.2505 2.34375 38.4028 2.27539C38.5571 2.20508 38.7173 2.15039 38.8833 2.11133C39.0493 2.07227 39.2212 2.05273 39.3989 2.05273C39.5356 2.05273 39.6733 2.0625 39.812 2.08203C39.9507 2.10156 40.0874 2.13086 40.2222 2.16992C40.3569 2.20898 40.4878 2.25781 40.6147 2.31641C40.7417 2.37305 40.8608 2.43848 40.9722 2.5127C41.1733 2.64746 41.3472 2.80371 41.4936 2.98145C41.6401 3.15918 41.7612 3.35156 41.8569 3.55859C41.9546 3.76367 42.0288 3.97949 42.0796 4.20605C42.1304 4.43262 42.1616 4.66309 42.1733 4.89746C41.9741 4.80762 41.769 4.74512 41.5581 4.70996C41.3491 4.67285 41.1352 4.6543 40.9165 4.6543C40.7134 4.6543 40.5112 4.66602 40.31 4.68945C40.1108 4.71094 39.9126 4.73926 39.7153 4.77441C39.5181 4.80762 39.3227 4.84473 39.1294 4.88574C38.938 4.9248 38.7495 4.96191 38.564 4.99707C38.5347 5.00293 38.5151 5.01172 38.5054 5.02344C38.4956 5.0332 38.4907 5.04785 38.4907 5.06738C38.4907 5.08105 38.4917 5.09668 38.4936 5.11426C38.4975 5.13184 38.4995 5.15137 38.4995 5.17285C38.5015 5.42285 38.5034 5.67285 38.5054 5.92285C38.5073 6.1709 38.522 6.41992 38.5493 6.66992C38.5591 6.76562 38.5737 6.86426 38.5933 6.96582C38.6147 7.06543 38.644 7.16211 38.6811 7.25586C38.7202 7.34961 38.7681 7.43848 38.8247 7.52246C38.8813 7.60449 38.9516 7.6748 39.0356 7.7334C39.1352 7.80566 39.2436 7.85742 39.3608 7.88867C39.478 7.91797 39.5991 7.93262 39.7241 7.93262C39.8901 7.93262 40.0483 7.91211 40.1987 7.87109C40.3511 7.83008 40.4946 7.77344 40.6294 7.70117C40.7641 7.62695 40.8921 7.54004 41.0132 7.44043C41.1343 7.34082 41.2475 7.2334 41.353 7.11816C41.4585 7.00098 41.5561 6.87891 41.646 6.75195C41.7378 6.62305 41.8218 6.49414 41.8979 6.36523ZM38.5024 4.72461C38.8149 4.66797 39.1294 4.6084 39.4458 4.5459C39.7641 4.4834 40.0835 4.43555 40.4038 4.40234C40.4116 4.4043 40.4184 4.40625 40.4243 4.4082C40.4302 4.4082 40.436 4.4082 40.4419 4.4082C40.477 4.4082 40.4946 4.39355 40.4946 4.36426C40.4946 4.34277 40.4917 4.31055 40.4858 4.26758C40.4819 4.22266 40.479 4.18262 40.477 4.14746C40.4712 3.97754 40.4614 3.81055 40.4477 3.64648C40.436 3.48047 40.4136 3.31543 40.3804 3.15137C40.3647 3.0791 40.3462 3.00488 40.3247 2.92871C40.3052 2.85254 40.2788 2.7793 40.2456 2.70898C40.2143 2.63672 40.1753 2.57129 40.1284 2.5127C40.0815 2.45215 40.0239 2.40234 39.9556 2.36328C39.8833 2.32227 39.81 2.29199 39.7358 2.27246C39.6636 2.25293 39.5903 2.24316 39.5161 2.24316C39.4302 2.24316 39.3462 2.25586 39.2641 2.28125C39.1841 2.30664 39.1079 2.34277 39.0356 2.38965C38.9653 2.43652 38.9009 2.49414 38.8423 2.5625C38.7856 2.62891 38.7378 2.7041 38.6987 2.78809C38.6401 2.91699 38.6011 3.04883 38.5815 3.18359C38.564 3.31641 38.5503 3.45215 38.5405 3.59082C38.5249 3.78027 38.5151 3.96973 38.5112 4.15918C38.5073 4.34668 38.5044 4.53516 38.5024 4.72461ZM47.602 6.16895C47.6255 6.1709 47.6509 6.17871 47.6782 6.19238C47.7056 6.20605 47.7329 6.22168 47.7602 6.23926C47.7231 6.35059 47.6811 6.46289 47.6343 6.57617C47.5874 6.6875 47.5347 6.79688 47.4761 6.9043C47.4175 7.01172 47.353 7.11621 47.2827 7.21777C47.2124 7.31738 47.1343 7.41016 47.0483 7.49609C46.935 7.61133 46.8091 7.71191 46.6704 7.79785C46.5337 7.88184 46.3891 7.95215 46.2368 8.00879C46.0864 8.06543 45.9311 8.10742 45.771 8.13477C45.6108 8.16406 45.4526 8.17871 45.2964 8.17871C45.0366 8.17871 44.7837 8.14648 44.5376 8.08203C44.2934 8.01953 44.062 7.92871 43.8433 7.80957C43.6265 7.69043 43.4272 7.5459 43.2456 7.37598C43.064 7.2041 42.9067 7.00977 42.7739 6.79297C42.6431 6.57422 42.5405 6.33496 42.4663 6.0752C42.394 5.81543 42.3579 5.53809 42.3579 5.24316C42.3579 5.02246 42.3813 4.80469 42.4282 4.58984C42.477 4.375 42.5474 4.16699 42.6391 3.96582C42.7309 3.76465 42.8442 3.57324 42.979 3.3916C43.1138 3.20801 43.2681 3.03711 43.4419 2.87891C43.5747 2.75781 43.7183 2.64941 43.8725 2.55371C44.0268 2.45801 44.187 2.37695 44.353 2.31055C44.519 2.24414 44.6899 2.19336 44.8657 2.1582C45.0415 2.12305 45.2173 2.10547 45.3931 2.10547C45.6235 2.10547 45.8501 2.1377 46.0727 2.20215C46.2974 2.26465 46.5122 2.36523 46.7173 2.50391C46.8325 2.58203 46.9409 2.67383 47.0425 2.7793C47.144 2.88477 47.2329 2.99902 47.3091 3.12207C47.3852 3.24512 47.4448 3.37598 47.4878 3.51465C47.5327 3.65332 47.5552 3.79395 47.5552 3.93652C47.5552 4.03418 47.5395 4.12402 47.5083 4.20605C47.479 4.28613 47.4331 4.35547 47.3706 4.41406C47.31 4.47266 47.2319 4.51855 47.1362 4.55176C47.0425 4.58301 46.9302 4.59863 46.7993 4.59863C46.6763 4.59863 46.5669 4.58105 46.4712 4.5459C46.3774 4.50879 46.2944 4.45996 46.2222 4.39941C46.1518 4.33691 46.0923 4.26367 46.0434 4.17969C45.9946 4.0957 45.9546 4.00684 45.9233 3.91309C45.9038 3.85254 45.8882 3.79492 45.8765 3.74023C45.8667 3.68359 45.8618 3.62891 45.8618 3.57617C45.8618 3.49023 45.8774 3.40918 45.9087 3.33301C45.9399 3.25684 45.9927 3.18164 46.0669 3.10742C46.1216 3.05273 46.1636 2.99805 46.1929 2.94336C46.2241 2.88867 46.2397 2.83301 46.2397 2.77637C46.2397 2.68066 46.2104 2.59863 46.1518 2.53027C46.0933 2.46191 46.02 2.40625 45.9321 2.36328C45.8442 2.32031 45.7485 2.28906 45.645 2.26953C45.5434 2.25 45.4487 2.24023 45.3608 2.24023C45.185 2.24023 45.0366 2.27148 44.9155 2.33398C44.7944 2.39648 44.6948 2.48047 44.6167 2.58594C44.5386 2.69141 44.478 2.81348 44.435 2.95215C44.3921 3.08887 44.3589 3.23145 44.3354 3.37988C44.3022 3.59277 44.2808 3.80664 44.271 4.02148C44.2632 4.23438 44.2583 4.4502 44.2563 4.66895C44.2563 4.80176 44.2573 4.93359 44.2593 5.06445C44.2612 5.19531 44.2632 5.3252 44.2651 5.4541C44.2671 5.62012 44.269 5.78711 44.271 5.95508C44.2729 6.12305 44.2808 6.29102 44.2944 6.45898C44.31 6.625 44.3345 6.79004 44.3677 6.9541C44.4009 7.11621 44.4497 7.27441 44.5141 7.42871C44.5552 7.53027 44.6079 7.61621 44.6724 7.68652C44.7388 7.75684 44.812 7.81445 44.8921 7.85938C44.9741 7.90234 45.061 7.93457 45.1528 7.95605C45.2466 7.97559 45.3433 7.98535 45.4429 7.98535C45.6284 7.98535 45.8013 7.96094 45.9614 7.91211C46.1235 7.86133 46.2739 7.79297 46.4126 7.70703C46.5513 7.61914 46.6792 7.5166 46.7964 7.39941C46.9136 7.28027 47.021 7.15234 47.1186 7.01562C47.2163 6.87891 47.3042 6.73633 47.3823 6.58789C47.4624 6.4375 47.5327 6.28809 47.5933 6.13965C47.5991 6.14551 47.602 6.15527 47.602 6.16895ZM48.4663 3.03418H48.4048C48.3423 3.03418 48.2808 3.03223 48.2202 3.02832C48.1597 3.02246 48.1001 3.01172 48.0415 2.99609C48.02 2.99023 48.0005 2.98633 47.9829 2.98438C47.9673 2.98047 47.9536 2.97559 47.9419 2.96973C47.9302 2.96191 47.9214 2.95215 47.9155 2.94043C47.9097 2.92676 47.9067 2.9082 47.9067 2.88477C47.9067 2.85547 47.9067 2.82617 47.9067 2.79688C47.9067 2.76758 47.9077 2.73828 47.9097 2.70898C48.0132 2.73438 48.1216 2.74707 48.2349 2.74707C48.3599 2.74707 48.4839 2.7334 48.6069 2.70605C48.7319 2.67676 48.855 2.64062 48.9761 2.59766C49.0972 2.55273 49.2183 2.50391 49.3393 2.45117C49.4604 2.39844 49.5815 2.34863 49.7026 2.30176C49.8237 2.25488 49.9458 2.21387 50.0688 2.17871C50.1919 2.1416 50.3159 2.11816 50.4409 2.1084C50.4643 2.75293 50.4761 3.39844 50.4761 4.04492C50.4761 4.70312 50.4634 5.35742 50.438 6.00781C50.4145 6.65625 50.3784 7.30957 50.3296 7.96777C50.4292 7.93262 50.5268 7.89453 50.6225 7.85352C50.7202 7.81055 50.8159 7.76465 50.9097 7.71582C50.9077 7.74512 50.9058 7.77441 50.9038 7.80371C50.9018 7.83301 50.8999 7.8623 50.8979 7.8916C50.896 7.91504 50.8921 7.93262 50.8862 7.94434C50.8804 7.95605 50.8725 7.96582 50.8628 7.97363C50.853 7.98145 50.8403 7.98828 50.8247 7.99414C50.8091 8 50.7915 8.00781 50.772 8.01758C50.5727 8.11133 50.3618 8.18164 50.1391 8.22852C49.9165 8.27734 49.6919 8.30176 49.4653 8.30176C48.9653 8.30176 48.4878 8.19238 48.0327 7.97363C48.0288 7.93457 48.0259 7.89551 48.0239 7.85645C48.022 7.81738 48.019 7.77832 48.0151 7.73926C48.1987 7.86035 48.396 7.95508 48.6069 8.02344C48.5503 7.33594 48.5112 6.65039 48.4897 5.9668C48.4702 5.2832 48.4604 4.5957 48.4604 3.9043C48.4624 3.75781 48.4624 3.61328 48.4604 3.4707C48.4604 3.32617 48.4624 3.18066 48.4663 3.03418ZM49.4302 -0.296875C49.5415 -0.296875 49.6499 -0.275391 49.7554 -0.232422C49.8628 -0.191406 49.9575 -0.133789 50.0395 -0.0595703C50.1216 0.0126953 50.188 0.100586 50.2388 0.204102C50.2895 0.305664 50.3149 0.416016 50.3149 0.535156C50.3149 0.642578 50.2866 0.733398 50.23 0.807617C50.1733 0.879883 50.0991 0.941406 50.0073 0.992188C49.937 1.03125 49.8667 1.07129 49.7964 1.1123C49.7261 1.15332 49.6538 1.19141 49.5796 1.22656C49.5073 1.25977 49.4331 1.28711 49.3569 1.30859C49.2808 1.33008 49.2026 1.34082 49.1225 1.34082C49.0464 1.34082 48.9761 1.32617 48.9116 1.29688C48.8491 1.26758 48.7925 1.23145 48.7417 1.18848C48.6929 1.14355 48.6499 1.0957 48.6128 1.04492C48.5776 0.992188 48.5493 0.943359 48.5278 0.898438C48.5083 0.851562 48.4956 0.8125 48.4897 0.78125C48.4858 0.748047 48.4897 0.729492 48.5015 0.725586C48.5054 0.59668 48.5308 0.47168 48.5776 0.350586C48.6245 0.227539 48.688 0.118164 48.7681 0.0224609C48.8481 -0.0732422 48.9438 -0.150391 49.0552 -0.208984C49.1684 -0.267578 49.2934 -0.296875 49.4302 -0.296875ZM53.5112 1.9707C53.4897 2.12891 53.4712 2.28613 53.4556 2.44238C53.4399 2.59863 53.4253 2.75586 53.4116 2.91406C53.5522 2.61523 53.7485 2.38184 54.0005 2.21387C54.2524 2.04395 54.5659 1.95898 54.9409 1.95898C55.2475 1.95898 55.5268 2.00488 55.7788 2.09668C56.0308 2.18848 56.2563 2.31348 56.4556 2.47168C56.6567 2.62988 56.8315 2.81445 56.98 3.02539C57.1284 3.23633 57.2515 3.46191 57.3491 3.70215C57.4468 3.94238 57.52 4.19043 57.5688 4.44629C57.6177 4.7002 57.6421 4.9502 57.6421 5.19629C57.6421 5.4209 57.6186 5.64355 57.5718 5.86426C57.5268 6.08496 57.4468 6.29297 57.3315 6.48828C57.2632 6.60352 57.186 6.71289 57.1001 6.81641C57.0161 6.91797 56.9253 7.01465 56.8276 7.10645C56.73 7.19629 56.6265 7.28125 56.5171 7.36133C56.4097 7.44141 56.3003 7.5166 56.189 7.58691C56.0718 7.66113 55.9477 7.73438 55.8169 7.80664C55.688 7.87695 55.5542 7.94043 55.4155 7.99707C55.2788 8.05371 55.1391 8.09961 54.9966 8.13477C54.854 8.16992 54.7124 8.1875 54.5718 8.1875C54.2808 8.1875 54.0259 8.11816 53.8071 7.97949C53.5884 7.84082 53.4214 7.63867 53.3061 7.37305C53.3159 7.84961 53.3315 8.32422 53.353 8.79688C53.3765 9.26953 53.4145 9.74219 53.4673 10.2148C53.4692 10.2441 53.4692 10.2695 53.4673 10.291C53.4673 10.3125 53.4692 10.3301 53.4731 10.3438C53.479 10.3594 53.4888 10.3701 53.5024 10.376C53.5161 10.3838 53.5395 10.3877 53.5727 10.3877C53.6606 10.3916 53.7466 10.3936 53.8306 10.3936C53.9165 10.3936 54.0034 10.3936 54.0913 10.3936L54.1001 10.5781C53.6313 10.5703 53.1636 10.543 52.6968 10.4961C52.2319 10.4512 51.7729 10.3691 51.3198 10.25C51.2886 10.2422 51.2661 10.2295 51.2524 10.2119C51.2388 10.1943 51.229 10.1738 51.2231 10.1504C51.2173 10.127 51.2143 10.1016 51.2143 10.0742C51.2143 10.0469 51.2124 10.0186 51.2085 9.98926C51.3022 10.0205 51.397 10.0488 51.4927 10.0742C51.5884 10.1016 51.6841 10.1279 51.7798 10.1533C51.6802 9.50879 51.6059 8.86426 51.5571 8.21973C51.5083 7.57715 51.4839 6.92969 51.4839 6.27734C51.4839 5.03711 51.5718 3.80469 51.7475 2.58008C51.6518 2.60156 51.5561 2.62305 51.4604 2.64453C51.3667 2.66406 51.272 2.68652 51.1763 2.71191C51.1802 2.6709 51.185 2.63086 51.1909 2.5918C51.1968 2.55078 51.2016 2.50977 51.2056 2.46875C51.3618 2.42969 51.5181 2.39355 51.6743 2.36035C51.8306 2.3252 51.9878 2.29395 52.146 2.2666C52.3765 2.22754 52.605 2.18652 52.8315 2.14355C53.06 2.10059 53.2866 2.04297 53.5112 1.9707ZM55.814 5.46582C55.81 5.14941 55.8042 4.83398 55.7964 4.51953C55.7905 4.20312 55.7622 3.8877 55.7114 3.57324C55.6938 3.47168 55.6733 3.36719 55.6499 3.25977C55.6284 3.15039 55.6001 3.04492 55.5649 2.94336C55.5298 2.83984 55.4868 2.74219 55.436 2.65039C55.3852 2.55664 55.3218 2.47559 55.2456 2.40723C55.1714 2.33691 55.0825 2.28125 54.979 2.24023C54.8774 2.19922 54.7583 2.17871 54.6216 2.17871C54.4458 2.17871 54.2934 2.22168 54.1645 2.30762C54.0376 2.39355 53.9292 2.50586 53.8393 2.64453C53.7495 2.7832 53.6753 2.94141 53.6167 3.11914C53.56 3.29492 53.5141 3.47461 53.479 3.6582C53.4438 3.83984 53.4175 4.01758 53.3999 4.19141C53.3823 4.36328 53.3686 4.51465 53.3589 4.64551C53.3472 4.79199 53.3374 4.93945 53.3296 5.08789C53.3218 5.23633 53.3179 5.38477 53.3179 5.5332C53.3179 5.70703 53.3237 5.87891 53.3354 6.04883C53.3491 6.21875 53.3716 6.38867 53.4028 6.55859C53.4204 6.6543 53.439 6.75098 53.4585 6.84863C53.48 6.94629 53.5073 7.04004 53.5405 7.12988C53.5737 7.21973 53.6138 7.30469 53.6606 7.38477C53.7095 7.46484 53.769 7.53418 53.8393 7.59277C53.9116 7.65137 53.9956 7.69824 54.0913 7.7334C54.189 7.7666 54.3042 7.7832 54.437 7.7832C54.5347 7.7832 54.6313 7.77148 54.727 7.74805C54.8247 7.72461 54.9165 7.69043 55.0024 7.64551C55.0903 7.60059 55.1714 7.54688 55.2456 7.48438C55.3218 7.41992 55.3872 7.34668 55.4419 7.26465C55.5239 7.14355 55.5874 7.00879 55.6323 6.86035C55.6792 6.70996 55.7143 6.55566 55.7378 6.39746C55.7632 6.2373 55.7798 6.07715 55.7876 5.91699C55.7974 5.75684 55.8061 5.60645 55.814 5.46582C55.814 5.44824 55.813 5.43945 55.811 5.43945C55.811 5.43945 55.81 5.44922 55.8081 5.46875C55.8061 5.48828 55.8042 5.51172 55.8022 5.53906C55.8022 5.56445 55.8013 5.58984 55.7993 5.61523C55.7993 5.63867 55.7993 5.65527 55.7993 5.66504V5.67383C55.8013 5.67383 55.8032 5.65918 55.8052 5.62988C55.8071 5.59863 55.81 5.54395 55.814 5.46582ZM62.9917 6.36523C63.0171 6.38867 63.0425 6.41211 63.0679 6.43555C63.0933 6.45703 63.1186 6.47852 63.144 6.5C63.0229 6.71875 62.8813 6.92676 62.7192 7.12402C62.5591 7.32129 62.3804 7.49512 62.1831 7.64551C61.9878 7.79395 61.7759 7.91211 61.5474 8C61.3188 8.08789 61.0776 8.13184 60.8237 8.13184C60.5561 8.13184 60.2925 8.10156 60.0327 8.04102C59.7749 7.98047 59.5298 7.8916 59.2974 7.77441C59.0669 7.65723 58.854 7.51367 58.6587 7.34375C58.4634 7.17188 58.2944 6.97559 58.1518 6.75488C58.0112 6.53418 57.9009 6.28906 57.8208 6.01953C57.7407 5.75 57.7007 5.45898 57.7007 5.14648C57.7007 4.93555 57.7212 4.72656 57.7622 4.51953C57.8052 4.31055 57.8677 4.1084 57.9497 3.91309C58.0317 3.71777 58.1323 3.53125 58.2515 3.35352C58.3725 3.17383 58.5112 3.00781 58.6675 2.85547C58.7905 2.73438 58.9214 2.625 59.06 2.52734C59.1987 2.42773 59.3442 2.34375 59.4966 2.27539C59.6509 2.20508 59.811 2.15039 59.977 2.11133C60.1431 2.07227 60.3149 2.05273 60.4927 2.05273C60.6294 2.05273 60.7671 2.0625 60.9058 2.08203C61.0444 2.10156 61.1811 2.13086 61.3159 2.16992C61.4507 2.20898 61.5815 2.25781 61.7085 2.31641C61.8354 2.37305 61.9546 2.43848 62.0659 2.5127C62.2671 2.64746 62.4409 2.80371 62.5874 2.98145C62.7339 3.15918 62.855 3.35156 62.9507 3.55859C63.0483 3.76367 63.1225 3.97949 63.1733 4.20605C63.2241 4.43262 63.2554 4.66309 63.2671 4.89746C63.0679 4.80762 62.8628 4.74512 62.6518 4.70996C62.4429 4.67285 62.229 4.6543 62.0102 4.6543C61.8071 4.6543 61.605 4.66602 61.4038 4.68945C61.2046 4.71094 61.0063 4.73926 60.8091 4.77441C60.6118 4.80762 60.4165 4.84473 60.2231 4.88574C60.0317 4.9248 59.8433 4.96191 59.6577 4.99707C59.6284 5.00293 59.6089 5.01172 59.5991 5.02344C59.5893 5.0332 59.5845 5.04785 59.5845 5.06738C59.5845 5.08105 59.5854 5.09668 59.5874 5.11426C59.5913 5.13184 59.5933 5.15137 59.5933 5.17285C59.5952 5.42285 59.5972 5.67285 59.5991 5.92285C59.6011 6.1709 59.6157 6.41992 59.6431 6.66992C59.6528 6.76562 59.6675 6.86426 59.687 6.96582C59.7085 7.06543 59.7378 7.16211 59.7749 7.25586C59.814 7.34961 59.8618 7.43848 59.9184 7.52246C59.9751 7.60449 60.0454 7.6748 60.1294 7.7334C60.229 7.80566 60.3374 7.85742 60.4546 7.88867C60.5718 7.91797 60.6929 7.93262 60.8179 7.93262C60.9839 7.93262 61.1421 7.91211 61.2925 7.87109C61.4448 7.83008 61.5884 7.77344 61.7231 7.70117C61.8579 7.62695 61.9858 7.54004 62.1069 7.44043C62.228 7.34082 62.3413 7.2334 62.4468 7.11816C62.5522 7.00098 62.6499 6.87891 62.7397 6.75195C62.8315 6.62305 62.9155 6.49414 62.9917 6.36523ZM59.5962 4.72461C59.9087 4.66797 60.2231 4.6084 60.5395 4.5459C60.8579 4.4834 61.1772 4.43555 61.4975 4.40234C61.5054 4.4043 61.5122 4.40625 61.5181 4.4082C61.5239 4.4082 61.5298 4.4082 61.5356 4.4082C61.5708 4.4082 61.5884 4.39355 61.5884 4.36426C61.5884 4.34277 61.5854 4.31055 61.5796 4.26758C61.5757 4.22266 61.5727 4.18262 61.5708 4.14746C61.5649 3.97754 61.5552 3.81055 61.5415 3.64648C61.5298 3.48047 61.5073 3.31543 61.4741 3.15137C61.4585 3.0791 61.4399 3.00488 61.4184 2.92871C61.3989 2.85254 61.3725 2.7793 61.3393 2.70898C61.3081 2.63672 61.269 2.57129 61.2222 2.5127C61.1753 2.45215 61.1177 2.40234 61.0493 2.36328C60.977 2.32227 60.9038 2.29199 60.8296 2.27246C60.7573 2.25293 60.6841 2.24316 60.6099 2.24316C60.5239 2.24316 60.4399 2.25586 60.3579 2.28125C60.2778 2.30664 60.2016 2.34277 60.1294 2.38965C60.0591 2.43652 59.9946 2.49414 59.936 2.5625C59.8794 2.62891 59.8315 2.7041 59.7925 2.78809C59.7339 2.91699 59.6948 3.04883 59.6753 3.18359C59.6577 3.31641 59.644 3.45215 59.6343 3.59082C59.6186 3.78027 59.6089 3.96973 59.605 4.15918C59.6011 4.34668 59.5981 4.53516 59.5962 4.72461Z" transform="translate(232.335 216.719)" fill="white"/>
<path d="M8.37475 154.368C0.375644 150.382 -5.56977 24.4027 8.37473 4.88688C14.0115 -3.00202 149.526 -0.0958171 155.858 4.88688C163.774 11.1152 166.69 146.064 160.441 154.368C154.192 162.673 18.3736 159.351 8.37475 154.368Z" transform="translate(55.8599 66.8562)" fill="#F2F2F2"/>
<path d="M1.80599 7.60131C-2.70036 5.35718 2.40544 1.54184 4.38778 1.34383C8.52825 0.930257 83.9061 -1.46132 87.4736 1.34383C88.7976 2.38492 89.1525 5.37175 87.4736 7.60131C83.953 12.2766 7.43893 10.4065 1.80599 7.60131Z" transform="translate(225.787 78.0768)" fill="#F2F2F2"/>
<path d="M1.80599 7.60131C-2.70036 5.35718 2.40544 1.54184 4.38778 1.34383C8.52825 0.930257 83.9061 -1.46132 87.4736 1.34383C88.7976 2.38492 89.1525 5.37175 87.4736 7.60131C83.953 12.2766 7.43893 10.4065 1.80599 7.60131Z" transform="translate(314.39 117.98) rotate(-180)" fill="#F2F2F2"/>
<path d="M1.80599 7.60131C-2.70036 5.35718 2.40544 1.54184 4.38778 1.34383C8.52825 0.930257 83.9061 -1.46132 87.4736 1.34383C88.7976 2.38492 89.1525 5.37175 87.4736 7.60131C83.953 12.2766 7.43893 10.4065 1.80599 7.60131Z" transform="translate(182.017 151.642) rotate(-180)" fill="white"/>
<path d="M1.79874 7.63197C-2.68951 5.37879 2.39577 1.54806 4.37015 1.34925C8.494 0.934009 83.569 -1.46721 87.1222 1.34925C88.4409 2.39453 88.7944 5.39342 87.1222 7.63197C83.6158 12.3261 7.40905 10.4484 1.79874 7.63197Z" transform="translate(132.469 190.541) rotate(-90)" fill="white"/>
<path d="M1.80599 7.60131C-2.70036 5.35718 2.40544 1.54184 4.38778 1.34383C8.52825 0.930257 83.9061 -1.46132 87.4736 1.34383C88.7976 2.38492 89.1525 5.37175 87.4736 7.60131C83.953 12.2766 7.43893 10.4065 1.80599 7.60131Z" transform="translate(225.787 138.855)" fill="#F2F2F2"/>
<path d="M1.80599 7.60131C-2.70036 5.35718 2.40544 1.54184 4.38778 1.34383C8.52825 0.930257 83.9061 -1.46132 87.4736 1.34383C88.7976 2.38492 89.1525 5.37175 87.4736 7.60131C83.953 12.2766 7.43893 10.4065 1.80599 7.60131Z" transform="translate(314.39 182.966) rotate(-180)" fill="#F2F2F2"/>
<path d="M17.556 31.7836C11.9437 21.0279 8.01554 15.0472 0 4.44364C3.17172 3.07916 10.315 0.405813 10.9904 0.0414845C10.9916 0.0163386 10.9998 0.00264669 11.0155 0.000904564C11.0586 -0.00387789 11.048 0.0103979 10.9904 0.0414845C10.935 1.22293 26.5672 27.6885 28.5715 28.0243C30.6487 28.3724 34.9833 25.5597 36.1447 22.8981C35.1039 29.7503 34.167 33.6238 30.9812 40.6691C20.6622 40.7952 15.3417 38.8349 6.19623 33.8341C11.3621 33.7402 14.2569 33.6861 17.556 31.7836Z" transform="translate(84.0247 126.232)" fill="#E54848"/>
<mask id="path-13-inside-1" fill="white">
<path d="M7.03095 129.47C0.315369 126.127 -4.67605 20.4668 7.03094 4.09867C11.7633 -2.51782 125.533 -0.0803627 130.849 4.09867C137.495 9.32247 139.943 122.505 134.697 129.47C129.45 136.435 15.4254 133.649 7.03095 129.47Z"/>
</mask>
<path d="M7.03095 129.47C0.315369 126.127 -4.67605 20.4668 7.03094 4.09867C11.7633 -2.51782 125.533 -0.0803627 130.849 4.09867C137.495 9.32247 139.943 122.505 134.697 129.47C129.45 136.435 15.4254 133.649 7.03095 129.47Z" fill="#E54848" stroke="white" stroke-width="50" mask="url(#path-13-inside-1)"/>
<ellipse cx="47.6066" cy="29.7967" rx="47.6066" ry="29.7967" transform="translate(20.6536 48.155)" fill="white"/>
<path d="M0.200137 0C0.200137 21.5529 -3.88374 34.4567 24.8442 34.5034C53.3845 34.5502 51.1313 22.4412 51.1313 0C34.1855 0 17.1928 0 0.200137 0Z" transform="translate(42.7166 53.7654)" fill="#D08738"/>
<path d="M23.5175 9.49078C15.3967 9.49078 7.22894 7.66743 0 3.97397C0 2.94541 0 1.96361 0 0.935052C16.0069 9.07 35.0181 7.76093 50.8842 0C50.8842 0.935052 50.8842 1.8701 50.8842 2.7584C42.4817 6.87263 32.9527 9.49078 23.5175 9.49078Z" transform="translate(42.9636 64.051)" fill="#D4145A"/>
<path d="M23.5175 9.63103C15.3967 9.63103 7.22894 7.71418 0 4.06748C0 3.03892 0 2.05711 0 1.02856C16.0539 9.16351 35.065 7.76093 50.8842 3.56694e-07C50.8842 0.981805 50.8842 1.91686 50.9311 2.89866C42.4817 7.01289 32.9527 9.63103 23.5175 9.63103Z" transform="translate(42.9636 59.2356)" fill="#D4145A"/>
<path d="M2.79791e-09 24.3113C4.03694 20.4776 20.1847 0 25.5829 0C31.3097 0 46.6126 20.1971 50.9311 24.3113C34.6895 32.2125 16.1478 32.9606 2.79791e-09 24.3113Z" transform="translate(42.9167 29.454)" fill="white"/>
<path d="M6.80671 3.42852C6.80671 11.1427 -0.0467004 3.42852 0.000240756 3.42852C-0.0467004 3.42852 6.80671 -4.28566 6.80671 3.42852Z" transform="translate(64.9792 37.6201)" fill="#D4145A"/>
<path d="M6.80671 3.42852C6.80671 11.1427 -0.0467015 3.42852 0.000239682 3.42852C-0.0467015 3.42852 6.80671 -4.28566 6.80671 3.42852Z" transform="translate(54.8394 47.8123)" fill="#D4145A"/>
<path d="M6.80671 3.42852C6.80671 11.1427 -0.0467011 3.42852 0.00024004 3.42852C-0.0467011 3.42852 6.80671 -4.28566 6.80671 3.42852Z" transform="translate(75.1182 46.9707)" fill="#D4145A"/>
</g>
<defs>
<clipPath id="clip0">
<rect width="360" height="4177" fill="white" transform="translate(-17 -1839)"/>
</clipPath>
</defs>
</svg>
