<svg width="24" height="24" viewBox="0 0 24 24" fill="none" xmlns="http://www.w3.org/2000/svg">
<path d="M19.8426 13.6418L18.8541 13.3594C20.2405 11.4323 20.4375 9.48253 20.4375 8.4375C20.4375 3.78042 16.6633 0 12 0C7.34292 0 3.5625 3.77419 3.5625 8.4375C3.5625 9.48277 3.75928 11.4321 5.14589 13.3594L4.15739 13.6418C0.9975 14.5446 0 17.4183 0 19.1534V20.3572C0 22.3658 1.63416 24 3.64284 24H20.3571C22.3658 24 24 22.3658 24 20.3572V19.1534C24 17.4543 23.0285 14.5521 19.8426 13.6418ZM12 2.25C15.4173 2.25 18.1875 5.02027 18.1875 8.4375C18.1875 11.8547 15.4173 14.625 12 14.625C8.58272 14.625 5.8125 11.8547 5.8125 8.4375C5.8125 5.02027 8.58272 2.25 12 2.25ZM21.75 20.3572C21.75 21.1264 21.1264 21.75 20.3572 21.75H3.64284C2.87362 21.75 2.25 21.1264 2.25 20.3572V19.1534C2.25 17.5987 3.28064 16.2323 4.77553 15.8052L6.93661 15.1878C7.62577 15.7058 9.39502 16.875 12 16.875C14.605 16.875 16.3742 15.7058 17.0634 15.1878L19.2245 15.8052C20.7194 16.2323 21.75 17.5987 21.75 19.1534V20.3572Z" fill="white"/>
</svg>
